<svg width="24" height="19" viewBox="0 0 24 19" fill="none" xmlns="http://www.w3.org/2000/svg">
<path d="M6.05 18.796C2.646 18.796 0.852 16.174 0.852 11.62C0.852 6.56 3.382 2.696 8.626 0.119999L10.374 3.708C7.108 5.226 5.544 7.296 5.544 10.424L5.682 15.116L3.06 11.482C3.888 10.838 4.946 10.286 6.05 10.286C8.35 10.286 10.236 11.85 10.236 14.334C10.236 17.048 8.488 18.796 6.05 18.796ZM18.93 18.796C15.526 18.796 13.732 16.174 13.732 11.62C13.732 6.56 16.262 2.696 21.506 0.119999L23.254 3.708C19.988 5.226 18.424 7.296 18.424 10.424L18.562 15.116L15.94 11.482C16.768 10.838 17.826 10.286 18.93 10.286C21.23 10.286 23.116 11.85 23.116 14.334C23.116 17.048 21.368 18.796 18.93 18.796Z" fill="#63D172"/>
</svg>
