<svg width="64" height="64" viewBox="0 0 64 64" fill="none" xmlns="http://www.w3.org/2000/svg">
<circle cx="32" cy="32" r="32" fill="#292929"/>
<g clip-path="url(#clip0_1676_2327)">
<path d="M39.4251 17.744L34.3243 17.2186C33.189 17.1042 32.0437 17.1042 30.9084 17.2186L25.6345 17.744C24.4919 17.744 23.396 18.1658 22.5881 18.9165C21.7801 19.6672 21.3262 20.6854 21.3262 21.7471V40.919C21.3262 41.9807 21.7801 42.9989 22.5881 43.7497C23.396 44.5004 24.4919 44.9221 25.6345 44.9221H39.4251C40.5678 44.9221 41.6636 44.5004 42.4716 43.7497C43.2796 42.9989 43.7335 41.9807 43.7335 40.919V21.7471C43.7335 20.6854 43.2796 19.6672 42.4716 18.9165C41.6636 18.1658 40.5678 17.744 39.4251 17.744ZM29.7544 20.489H35.3052C35.4583 20.489 35.605 20.5455 35.7133 20.646C35.8215 20.7465 35.8823 20.8829 35.8823 21.0251C35.8823 21.1673 35.8215 21.3037 35.7133 21.4042C35.605 21.5047 35.4583 21.5612 35.3052 21.5612H29.7544C29.6014 21.5612 29.4546 21.5047 29.3464 21.4042C29.2382 21.3037 29.1774 21.1673 29.1774 21.0251C29.1774 20.8829 29.2382 20.7465 29.3464 20.646C29.4546 20.5455 29.6014 20.489 29.7544 20.489ZM23.9843 26.2434C23.9843 25.0675 24.8498 24.0989 25.9076 24.0989H31.924V38.1276H25.8923C24.8383 38.1276 23.9689 37.1661 23.9689 35.9831L23.9843 26.2434ZM41.0869 41.3587C41.0869 41.5164 41.0198 41.6676 40.9001 41.7795C40.7805 41.8913 40.6181 41.9546 40.4483 41.9556H24.6151C24.4454 41.9546 24.283 41.8913 24.1634 41.7795C24.0437 41.6676 23.9766 41.5164 23.9766 41.3587V41.2479C23.9776 41.0908 24.0452 40.9404 24.1647 40.8294C24.2843 40.7183 24.4461 40.6555 24.6151 40.6545H40.4483C40.6174 40.6555 40.7792 40.7183 40.8988 40.8294C41.0183 40.9404 41.0859 41.0908 41.0869 41.2479V41.3587ZM41.0869 35.9974C41.0869 37.1733 40.2252 38.1419 39.1635 38.1419H33.1511V24.1025H39.1674C40.2252 24.1025 41.0908 25.0675 41.0908 26.247L41.0869 35.9974Z" fill="white"/>
<path d="M38.1459 15.8233L36.2956 14.4866C35.8601 14.1616 35.3154 13.9895 34.7569 14.0005H30.3063C29.7478 13.9895 29.2031 14.1616 28.7676 14.4866L26.925 15.8233C26.8291 15.8917 26.7588 15.9862 26.7239 16.0936C26.6889 16.2011 26.6912 16.316 26.7303 16.4222C26.7694 16.5283 26.8433 16.6205 26.9417 16.6855C27.0402 16.7506 27.1581 16.7853 27.2789 16.7848C27.4071 16.7835 27.5314 16.7433 27.6328 16.6704L29.4907 15.3229L29.5254 15.2979L29.5638 15.2693L30.8794 19.276H34.0145L35.4955 15.2658L35.5301 15.2908L37.4535 16.6704C37.5549 16.7433 37.6792 16.7835 37.8074 16.7848C37.9282 16.7853 38.0461 16.7506 38.1445 16.6855C38.2429 16.6205 38.3169 16.5283 38.356 16.4222C38.3951 16.316 38.3973 16.2011 38.3624 16.0936C38.3275 15.9862 38.2571 15.8917 38.1613 15.8233H38.1459ZM33.1913 18.2037H31.7334L30.7063 15.0727H34.3453L33.1913 18.2037Z" fill="white"/>
<path d="M28.4631 43.7356C28.332 43.6694 28.1784 43.6533 28.0347 43.6906C27.891 43.728 27.7687 43.8159 27.6937 43.9358L23.847 50.2013C23.7757 50.3231 23.7583 50.4659 23.7986 50.5994C23.8388 50.7328 23.9334 50.8465 24.0624 50.9162C24.1492 50.9622 24.2472 50.9868 24.3471 50.9877C24.4494 50.9876 24.5499 50.9625 24.6383 50.9148C24.7268 50.8671 24.8002 50.7985 24.851 50.716L28.6977 44.4505C28.7675 44.3265 28.7819 44.1821 28.738 44.0484C28.6941 43.9146 28.5954 43.8023 28.4631 43.7356ZM41.2304 50.2013L37.3837 43.9358C37.3082 43.8121 37.1829 43.7213 37.0354 43.6834C36.8879 43.6456 36.7302 43.6637 36.597 43.7338C36.4639 43.804 36.3662 43.9204 36.3254 44.0575C36.2847 44.1945 36.3042 44.3411 36.3797 44.4648L40.2264 50.7303C40.276 50.813 40.3486 50.8819 40.4365 50.9296C40.5245 50.9774 40.6246 51.0024 40.7265 51.0019C40.8264 51.0011 40.9244 50.9765 41.0112 50.9305C41.0771 50.8959 41.1349 50.8496 41.1815 50.7942C41.228 50.7388 41.2623 50.6754 41.2823 50.6076C41.3023 50.5398 41.3077 50.469 41.2982 50.3993C41.2886 50.3296 41.2643 50.2623 41.2266 50.2013H41.2304Z" fill="white"/>
<path d="M38.3918 47.3379H26.6708C26.5177 47.3379 26.371 47.2814 26.2628 47.1809C26.1545 47.0803 26.0938 46.9439 26.0938 46.8018C26.0938 46.6596 26.1545 46.5232 26.2628 46.4227C26.371 46.3221 26.5177 46.2656 26.6708 46.2656H38.3918C38.5448 46.2656 38.6916 46.3221 38.7998 46.4227C38.908 46.5232 38.9688 46.6596 38.9688 46.8018C38.9688 46.9439 38.908 47.0803 38.7998 47.1809C38.6916 47.2814 38.5448 47.3379 38.3918 47.3379Z" fill="white"/>
<path d="M39.5834 49.4551H25.4774C25.3244 49.4551 25.1776 49.3986 25.0694 49.298C24.9612 49.1975 24.9004 49.0611 24.9004 48.9189C24.9004 48.7768 24.9612 48.6404 25.0694 48.5398C25.1776 48.4393 25.3244 48.3828 25.4774 48.3828H39.5834C39.7365 48.3828 39.8832 48.4393 39.9914 48.5398C40.0996 48.6404 40.1604 48.7768 40.1604 48.9189C40.1604 49.0611 40.0996 49.1975 39.9914 49.298C39.8832 49.3986 39.7365 49.4551 39.5834 49.4551Z" fill="white"/>
<path d="M22.6466 23.6944C22.6466 23.0153 22.0541 22.4648 21.3233 22.4648C20.5925 22.4648 20 23.0153 20 23.6944V26.9683C20 27.6474 20.5925 28.1978 21.3233 28.1978C22.0541 28.1978 22.6466 27.6474 22.6466 26.9683V23.6944Z" fill="white"/>
<path d="M45.0001 23.6944C45.0001 23.0153 44.4076 22.4648 43.6768 22.4648C42.946 22.4648 42.3535 23.0153 42.3535 23.6944V26.9683C42.3535 27.6474 42.946 28.1978 43.6768 28.1978C44.4076 28.1978 45.0001 27.6474 45.0001 26.9683V23.6944Z" fill="white"/>
</g>
<defs>
<clipPath id="clip0_1676_2327">
<rect width="25" height="37" fill="white" transform="translate(20 14)"/>
</clipPath>
</defs>
</svg>
