<svg width="44" height="44" viewBox="0 0 44 44" fill="none" xmlns="http://www.w3.org/2000/svg">
<path d="M22.3528 25.7746C22.1515 25.7734 21.9564 25.7042 21.7994 25.5782L16.0058 20.9809C15.8199 20.8329 15.7005 20.6171 15.6737 20.3811C15.6469 20.145 15.715 19.908 15.863 19.7222C16.0109 19.5363 16.2267 19.4168 16.4627 19.3901C16.6988 19.3633 16.9358 19.4314 17.1216 19.5793L22.2725 23.6768L30.5656 15.0266C30.6389 14.9178 30.7352 14.8266 30.8478 14.7593C30.9604 14.692 31.0864 14.6503 31.2169 14.6373C31.3474 14.6242 31.4792 14.64 31.6029 14.6837C31.7266 14.7273 31.8391 14.7977 31.9325 14.8898C32.0259 14.9818 32.0979 15.0933 32.1433 15.2164C32.1887 15.3394 32.2065 15.471 32.1953 15.6016C32.1841 15.7323 32.1443 15.8589 32.0786 15.9725C32.0129 16.086 31.923 16.1837 31.8154 16.2585L22.9956 25.4979C22.9126 25.5849 22.8129 25.6543 22.7024 25.7018C22.592 25.7494 22.4731 25.7742 22.3528 25.7746Z" fill="white"/>
<path d="M22.4155 10.8093C22.039 10.8093 21.678 10.6598 21.4118 10.3936C21.1456 10.1274 20.9961 9.76636 20.9961 9.38992V6.9975C20.9961 6.62106 21.1456 6.26004 21.4118 5.99385C21.678 5.72767 22.039 5.57812 22.4155 5.57812C22.7919 5.57812 23.1529 5.72767 23.4191 5.99385C23.6853 6.26004 23.8349 6.62106 23.8349 6.9975V9.38992C23.8349 9.76636 23.6853 10.1274 23.4191 10.3936C23.1529 10.6598 22.7919 10.8093 22.4155 10.8093Z" fill="white"/>
<path d="M22.4157 41.3506C22.2271 41.3507 22.0403 41.3131 21.8663 41.2401C21.6923 41.1671 21.5346 41.0601 21.4025 40.9255C21.2703 40.7908 21.1663 40.6312 21.0966 40.4559C21.0269 40.2806 20.9928 40.0931 20.9963 39.9045V37.7709C20.9963 37.3945 21.1459 37.0335 21.4121 36.7673C21.6783 36.5011 22.0393 36.3516 22.4157 36.3516C22.7922 36.3516 23.1532 36.5011 23.4194 36.7673C23.6856 37.0335 23.8351 37.3945 23.8351 37.7709V39.9045C23.8387 40.0931 23.8046 40.2806 23.7348 40.4559C23.6651 40.6312 23.5611 40.7908 23.429 40.9255C23.2968 41.0601 23.1391 41.1671 22.9652 41.2401C22.7912 41.3131 22.6044 41.3507 22.4157 41.3506Z" fill="white"/>
<path d="M39.0381 24.9984H36.61C36.4147 25.0139 36.2184 24.9888 36.0333 24.9248C35.8482 24.8607 35.6783 24.759 35.5344 24.6261C35.3906 24.4932 35.2757 24.332 35.1972 24.1525C35.1187 23.9731 35.0781 23.7793 35.0781 23.5834C35.0781 23.3876 35.1187 23.1938 35.1972 23.0144C35.2757 22.8349 35.3906 22.6737 35.5344 22.5408C35.6783 22.4079 35.8482 22.3062 36.0333 22.2421C36.2184 22.1781 36.4147 22.153 36.61 22.1685H39.0381C39.2334 22.153 39.4297 22.1781 39.6148 22.2421C39.7999 22.3062 39.9698 22.4079 40.1136 22.5408C40.2575 22.6737 40.3724 22.8349 40.4509 23.0144C40.5294 23.1938 40.57 23.3876 40.57 23.5834C40.57 23.7793 40.5294 23.9731 40.4509 24.1525C40.3724 24.332 40.2575 24.4932 40.1136 24.6261C39.9698 24.759 39.7999 24.8607 39.6148 24.9248C39.4297 24.9888 39.2334 25.0139 39.0381 24.9984Z" fill="white"/>
<path d="M8.22279 24.9984H5.66076C5.4655 25.0139 5.26915 24.9888 5.08405 24.9248C4.89894 24.8607 4.72911 24.759 4.58522 24.6261C4.44133 24.4932 4.32651 24.332 4.24798 24.1525C4.16945 23.9731 4.12891 23.7793 4.12891 23.5834C4.12891 23.3876 4.16945 23.1938 4.24798 23.0144C4.32651 22.8349 4.44133 22.6737 4.58522 22.5408C4.72911 22.4079 4.89894 22.3062 5.08405 22.2421C5.26915 22.1781 5.4655 22.153 5.66076 22.1685H8.22279C8.41805 22.153 8.6144 22.1781 8.7995 22.2421C8.9846 22.3062 9.15444 22.4079 9.29833 22.5408C9.44222 22.6737 9.55704 22.8349 9.63557 23.0144C9.7141 23.1938 9.75464 23.3876 9.75464 23.5834C9.75464 23.7793 9.7141 23.9731 9.63557 24.1525C9.55704 24.332 9.44222 24.4932 9.29833 24.6261C9.15444 24.759 8.9846 24.8607 8.7995 24.9248C8.6144 24.9888 8.41805 25.0139 8.22279 24.9984Z" fill="white"/>
<path d="M37.8955 29.1917C36.4426 33.0387 33.6031 36.203 29.9353 38.0625C26.2676 39.922 22.0369 40.3422 18.075 39.2404C14.1131 38.1387 10.7067 35.5947 8.52548 32.1087C6.34424 28.6226 5.54597 24.4467 6.28762 20.402C7.02926 16.3572 9.25717 12.7362 12.5333 10.2508C15.8095 7.76542 19.8969 6.59551 23.9919 6.97106C28.0869 7.34662 31.8933 9.24047 34.6627 12.2803C37.4322 15.3201 38.9643 19.286 38.9578 23.3982C38.9578 23.9338 38.9578 24.4694 38.8775 24.9961H40.6629C40.6629 24.4694 40.7432 23.9338 40.7432 23.3982C40.7499 18.7806 39.0175 14.3298 35.8908 10.9319C32.7642 7.53392 28.4726 5.43798 23.8704 5.06127C19.2682 4.68457 14.693 6.05473 11.0554 8.899C7.41775 11.7433 4.98462 15.8531 4.2403 20.4103C3.49598 24.9675 4.49507 29.6378 7.03868 33.4917C9.58228 37.3455 13.4839 40.1002 17.9668 41.2073C22.4496 42.3145 27.1851 41.6929 31.2303 39.4663C35.2756 37.2397 38.3341 33.5715 39.797 29.1917H37.8955Z" fill="white"/>
</svg>
