<svg width="44" height="44" viewBox="0 0 44 44" fill="none" xmlns="http://www.w3.org/2000/svg">
<path d="M37.7706 13.3288L36.4048 14.6321C37.8928 16.9966 38.7588 19.6989 38.9222 22.4878H32.227C32.1004 19.4068 31.3279 16.3868 29.9596 13.6234C31.3086 13.0552 32.5877 12.3333 33.7714 11.472L35.2443 10.249C35.0122 10.0169 34.7712 9.79375 34.5212 9.57058C31.2471 6.6895 27.0537 5.0691 22.6931 5L22.095 5C17.269 5.07732 12.6669 7.04885 9.28168 10.4892C5.89645 13.9295 3.99948 18.5629 4.0001 23.3894C3.99184 25.8444 4.48028 28.2757 5.43604 30.537C6.3918 32.7983 7.79512 34.8429 9.56157 36.5477V36.6102C12.9186 39.8586 17.3884 41.704 22.0593 41.77H22.7466C27.4177 41.7049 31.8878 39.8594 35.2443 36.6102L35.2979 36.5477C38.3541 33.5784 40.2807 29.6373 40.7466 25.4017C41.2125 21.1661 40.1886 16.9004 37.851 13.3377L37.7706 13.3288ZM19.8097 7.07997C18.2052 8.53117 16.8218 10.2094 15.7033 12.0612C14.5305 11.5856 13.4114 10.9871 12.3646 10.2758C14.5415 8.60063 17.0993 7.49043 19.8097 7.04426V7.07997ZM10.9631 11.4363C12.1593 12.3126 13.4535 13.0466 14.8195 13.6234C13.4552 16.3883 12.6829 19.4074 12.5521 22.4878H5.86583C6.09875 18.2901 7.92132 14.3385 10.9631 11.4363ZM5.8569 24.3H12.5521C12.6601 27.0423 13.2903 29.7388 14.4089 32.2449C12.9541 32.8997 11.5866 33.7334 10.3382 34.7266C7.64975 31.8961 6.06054 28.1985 5.8569 24.3ZM11.6594 35.9853C12.7622 35.1419 13.9607 34.4318 15.2302 33.8696C16.42 36.073 17.9779 38.0566 19.8365 39.7346C16.8129 39.2771 13.9792 37.9778 11.6594 35.9853ZM21.479 38.7795C19.6347 37.2109 18.0866 35.3242 16.9084 33.2091C18.3852 32.7085 19.9224 32.4083 21.479 32.3164V38.7795ZM21.479 30.5399C19.6537 30.6305 17.8504 30.9791 16.1229 31.5754C15.0944 29.2804 14.5069 26.8123 14.391 24.3H21.5326L21.479 30.5399ZM21.479 22.5057H14.3375C14.4672 19.6317 15.2034 16.8176 16.4978 14.2483C18.1034 14.7602 19.7689 15.0603 21.4522 15.141L21.479 22.5057ZM21.479 13.3556C20.1084 13.2833 18.751 13.0496 17.4351 12.6593C18.5358 10.9102 19.8998 9.34141 21.479 8.00837V13.3556ZM32.4145 10.2222C31.3697 10.9317 30.2538 11.53 29.0847 12.0076C27.9603 10.1575 26.5742 8.47971 24.9694 7.02641C27.6765 7.46202 30.234 8.55984 32.4145 10.2222ZM23.3001 7.99052C24.8725 9.33046 26.2355 10.8981 27.344 12.6414C26.0278 13.0303 24.6706 13.264 23.3001 13.3377V7.99052ZM23.3001 15.1321C24.9804 15.0505 26.6429 14.7504 28.2456 14.2394C29.5406 16.8026 30.2798 19.6103 30.4149 22.4789H23.2733L23.3001 15.1321ZM23.3001 24.2821H30.4416C30.3344 26.7956 29.7465 29.2653 28.7098 31.5576C26.9816 30.9638 25.1787 30.6152 23.3537 30.5221L23.3001 24.2821ZM23.3001 38.7616V32.3342C24.8566 32.427 26.3937 32.7272 27.8707 33.2269C26.6907 35.3357 25.1428 37.2162 23.3001 38.7795V38.7616ZM24.9694 39.7168C26.8255 38.0363 28.383 36.0532 29.5757 33.8518C30.8442 34.4158 32.0425 35.1258 33.1465 35.9675C30.8285 37.9659 27.9947 39.2715 24.9694 39.7346V39.7168ZM34.4409 34.7266C33.1925 33.7334 31.825 32.8997 30.3702 32.2449C31.4888 29.7388 32.119 27.0423 32.227 24.3H38.9222C38.7225 28.1994 37.1327 31.8983 34.4409 34.7266Z" fill="white"/>
</svg>
