<svg width="16" height="15" viewBox="0 0 16 15" fill="none" xmlns="http://www.w3.org/2000/svg">
<path d="M14.0348 1.36332C13.6355 0.930525 13.1612 0.587169 12.6391 0.3529C12.117 0.118631 11.5574 -0.00195312 10.9922 -0.00195312C10.427 -0.00195312 9.8673 0.118631 9.3452 0.3529C8.82311 0.587169 8.34883 0.930525 7.94951 1.36332L0.968256 8.81192C0.340789 9.49082 -0.0117188 10.4116 -0.0117187 11.3717C-0.0117187 12.3318 0.340789 13.2526 0.968256 13.9315C1.59572 14.6104 2.44675 14.9918 3.33413 14.9918C4.2215 14.9918 5.07253 14.6104 5.69999 13.9315L12.6812 6.47453C13.0874 5.98184 13.3039 5.3397 13.2864 4.6798C13.2689 4.0199 13.0187 3.39226 12.5871 2.92558C12.1555 2.45891 11.5753 2.18857 10.9654 2.17001C10.3555 2.15145 9.76211 2.38607 9.30698 2.82576L4.07104 8.49089C4.02609 8.53815 3.99018 8.59452 3.96537 8.65679C3.94056 8.71905 3.92732 8.786 3.92642 8.8538C3.92552 8.92161 3.93697 8.98894 3.96012 9.05195C3.98327 9.11497 4.01766 9.17243 4.06134 9.22106C4.10501 9.2697 4.15711 9.30854 4.21467 9.33539C4.27222 9.36224 4.33409 9.37656 4.39676 9.37753C4.45942 9.37851 4.52165 9.36612 4.57989 9.34107C4.63814 9.31602 4.69125 9.27881 4.73619 9.23155L9.97213 3.56643C10.2439 3.29533 10.6019 3.14817 10.9715 3.15563C11.3412 3.16309 11.6938 3.32458 11.9561 3.60645C12.2184 3.88833 12.37 4.26884 12.3794 4.66868C12.3887 5.06853 12.2551 5.45686 12.0064 5.75275L5.04065 13.2181C4.5914 13.7042 3.98207 13.9773 3.34673 13.9773C2.71139 13.9773 2.10206 13.7042 1.65281 13.2181C1.20355 12.732 0.951161 12.0728 0.951161 11.3854C0.951161 10.6979 1.20355 10.0387 1.65281 9.55258L8.55843 2.16693C9.18615 1.48775 10.0375 1.10619 10.9253 1.10619C11.813 1.10619 12.6644 1.48775 13.2921 2.16693C13.9198 2.84611 14.2725 3.76727 14.2725 4.72778C14.2725 5.68828 13.9198 6.60945 13.2921 7.28863L8.11628 12.8866C8.03269 12.985 7.98747 13.1146 7.99008 13.2482C7.99268 13.3819 8.04291 13.5092 8.13027 13.6038C8.21762 13.6983 8.33535 13.7526 8.45886 13.7554C8.58237 13.7583 8.70212 13.7093 8.79308 13.6189L14.029 7.95375C14.8353 7.0807 15.2883 5.89697 15.2883 4.66273C15.2883 3.4285 14.8353 2.24477 14.029 1.37171" fill="#292929"/>
</svg>
