<svg width="44" height="44" viewBox="0 0 44 44" fill="none" xmlns="http://www.w3.org/2000/svg">
<path d="M35.4156 12.7111H29.8687C29.5796 12.71 29.2937 12.653 29.0275 12.5437C28.7613 12.4343 28.5201 12.2747 28.3179 12.0741C28.1158 11.8735 27.9566 11.6359 27.8498 11.375C27.743 11.1142 27.6906 10.8354 27.6956 10.5548V6.16797H29.6018V10.5548C29.5992 10.5903 29.6041 10.626 29.6164 10.6596C29.6286 10.6932 29.6478 10.724 29.6729 10.7501C29.6979 10.7761 29.7282 10.7969 29.7619 10.8111C29.7956 10.8252 29.832 10.8325 29.8687 10.8324H35.4156V12.7111Z" fill="white"/>
<path d="M5.21484 24.2799L8.09313 21.707L8.32187 25.4738L5.21484 24.2799Z" fill="white"/>
<path d="M38.9441 23.8962L36.3898 21.3789L36.1992 25.0531L38.9441 23.8962Z" fill="white"/>
<path d="M9.99604 26.573V9.11841C9.99095 8.52353 10.2288 7.95094 10.6575 7.52597C11.0862 7.10101 11.6708 6.85829 12.2834 6.85097H29.029C31.0182 8.52571 32.8638 10.355 34.5473 12.3206V26.499L36.4534 25.3607V11.6357L36.2247 11.3766C34.3394 9.16127 32.2638 7.10547 30.0202 5.23137L29.7819 5H12.2834C11.1653 5.00734 10.0958 5.44508 9.30966 6.21716C8.52348 6.98925 8.08481 8.03264 8.08989 9.11841V25.3607L9.99604 26.573Z" fill="white"/>
<path d="M27.4993 16.9641H24.4399V14.3265C24.4412 14.2394 24.4246 14.153 24.3911 14.0722C24.3577 13.9914 24.3081 13.9179 24.2451 13.8559C24.1821 13.7939 24.1071 13.7446 24.0244 13.711C23.9417 13.6774 23.8529 13.6601 23.7632 13.6602H20.8182C20.6362 13.6602 20.4617 13.7304 20.333 13.8553C20.2043 13.9803 20.132 14.1498 20.132 14.3265V16.9641H17.0726C16.9075 16.9666 16.7499 17.032 16.634 17.1463C16.5181 17.2606 16.4531 17.4145 16.4531 17.575V20.2681C16.4531 20.4277 16.5184 20.5807 16.6346 20.6935C16.7508 20.8063 16.9083 20.8697 17.0726 20.8697H20.132V28.0329C20.132 28.137 20.1533 28.2401 20.1946 28.3361C20.2359 28.4322 20.2964 28.5193 20.3726 28.5925C20.4489 28.6657 20.5393 28.7234 20.6387 28.7624C20.7381 28.8014 20.8445 28.8208 20.9516 28.8196H23.6298C23.843 28.8172 24.0466 28.7332 24.1965 28.5859C24.3463 28.4387 24.4304 28.24 24.4304 28.0329V20.8697H27.4993C27.6645 20.8697 27.823 20.8066 27.9407 20.6941C28.0584 20.5815 28.1258 20.4285 28.1283 20.2681V17.575C28.1258 17.4137 28.0588 17.2597 27.9413 17.1457C27.8239 17.0316 27.6653 16.9665 27.4993 16.9641Z" fill="white"/>
<path d="M37.6654 29.3601V37.1989C37.7131 37.9903 37.4411 38.7686 36.9072 39.3683C36.3733 39.968 35.6195 40.3418 34.8062 40.4104H9.76889C8.95463 40.3441 8.19944 39.9709 7.66503 39.3707C7.13062 38.7705 6.85948 37.9909 6.90967 37.1989V26.0376L22.1589 35.2924L36.5122 26.6484L39.543 24.7142C39.5148 24.5233 39.4427 24.341 39.3322 24.1808C39.2217 24.0206 39.0755 23.8866 38.9044 23.7887C38.7132 23.6814 38.4962 23.625 38.2754 23.625C38.0545 23.625 37.8376 23.6814 37.6463 23.7887L22.1589 33.1268L6.90967 23.872C6.71552 23.7631 6.49529 23.7058 6.27111 23.7058C6.04692 23.7058 5.82669 23.7631 5.63255 23.872C5.44214 23.984 5.2844 24.1414 5.1743 24.3293C5.06421 24.5172 5.00542 24.7293 5.00352 24.9455V37.1989C4.95415 38.4813 5.42628 39.7311 6.31792 40.6784C7.20956 41.6256 8.44914 42.1942 9.76889 42.2613H34.7681C36.0878 42.1942 37.3274 41.6256 38.219 40.6784C39.1107 39.7311 39.5828 38.4813 39.5334 37.1989V29.3601H37.6654Z" fill="white"/>
</svg>
