<svg width="64" height="64" viewBox="0 0 64 64" fill="none" xmlns="http://www.w3.org/2000/svg">
<circle cx="32" cy="32" r="32" fill="#292929"/>
<path d="M47.7122 25.9645H46.6674C46.4284 25.9645 46.1942 26.0293 45.9907 26.1517C45.7872 26.2742 45.6226 26.4495 45.5151 26.658H44.883C44.685 24.5668 43.696 22.623 42.1096 21.2068C40.5232 19.7905 38.4534 19.0036 36.305 19H26.7294C24.5773 18.9984 22.5022 19.7829 20.9112 21.1997C19.3203 22.6165 18.3283 24.5632 18.1299 26.658H17.515C17.4075 26.4495 17.2429 26.2742 17.0394 26.1517C16.8359 26.0293 16.6017 25.9645 16.3627 25.9645H15.305C14.9589 25.9645 14.6269 26.0989 14.3822 26.3382C14.1375 26.5774 14 26.9018 14 27.2402C14 27.5785 14.1375 27.903 14.3822 28.1422C14.6269 28.3814 14.9589 28.5158 15.305 28.5158H16.3627C16.5776 28.5196 16.7901 28.4708 16.9808 28.3739C17.1716 28.2771 17.3345 28.1351 17.4549 27.961L15.8338 33.0804C15.6612 33.4438 15.5717 33.8397 15.5716 34.2404V38.0947C15.5722 38.672 15.7527 39.2355 16.0892 39.7101C16.4256 40.1846 16.902 40.5477 17.4549 40.751V41.9237C17.4615 42.4723 17.6875 42.9966 18.0844 43.3846C18.4813 43.7726 19.0177 43.9935 19.5789 44H19.738C20.2993 43.9935 20.8357 43.7726 21.2326 43.3846C21.6295 42.9966 21.8554 42.4723 21.8621 41.9237V40.9402H41.211V41.9237C41.2177 42.4723 41.4436 42.9966 41.8405 43.3846C42.2374 43.7726 42.7738 43.9935 43.3351 44H43.4899C44.0511 43.9935 44.5875 43.7726 44.9844 43.3846C45.3813 42.9966 45.6072 42.4723 45.6139 41.9237V40.751C46.163 40.5475 46.6359 40.1857 46.9699 39.7136C47.3039 39.2414 47.4833 38.6813 47.4843 38.1073V34.253C47.4842 33.8496 47.3947 33.451 47.2221 33.0846C47.2221 33.0846 47.2221 33.0846 47.2221 33.0509L45.2399 27.7929H45.4979C45.6045 28.008 45.7705 28.1897 45.9771 28.3174C46.1838 28.4451 46.4229 28.5139 46.6674 28.5158H47.7122C48.0583 28.5158 48.3903 28.3814 48.635 28.1422C48.8797 27.903 49.0172 27.5785 49.0172 27.2402C49.0172 26.9018 48.8797 26.5774 48.635 26.3382C48.3903 26.0989 48.0583 25.9645 47.7122 25.9645ZM26.7294 20.6812H36.305C38.1354 20.6868 39.8892 21.4003 41.1831 22.6659C42.477 23.9315 43.2058 25.6463 43.2104 27.4356C43.2093 27.695 43.1033 27.9435 42.9157 28.1269C42.7281 28.3103 42.4739 28.4138 42.2085 28.4149H20.8259C20.5598 28.4149 20.3045 28.3119 20.1159 28.1284C19.9274 27.9448 19.8209 27.6957 19.8197 27.4356C19.8254 25.6459 20.5552 23.9312 21.8498 22.6657C23.1444 21.4002 24.8986 20.6868 26.7294 20.6812ZM19.0759 34.9718C17.988 34.9171 17.1195 33.8327 18.5943 32.6937C20.0691 31.5546 23.754 34.522 23.754 34.522C23.4229 35.2239 20.1637 35.039 19.0759 34.9718ZM36.3738 38.0652H26.6692C26.2598 38.0652 25.8672 37.9063 25.5777 37.6233C25.2882 37.3403 25.1256 36.9565 25.1256 36.5563C25.1256 36.1561 25.2882 35.7723 25.5777 35.4894C25.8672 35.2064 26.2598 35.0474 26.6692 35.0474H36.3738C36.7832 35.0474 37.1758 35.2064 37.4653 35.4894C37.7548 35.7723 37.9174 36.1561 37.9174 36.5563C37.9174 36.9565 37.7548 37.3403 37.4653 37.6233C37.1758 37.9063 36.7832 38.0652 36.3738 38.0652ZM43.9585 34.9718C42.8707 35.0264 39.6115 35.2113 39.2632 34.522C39.2632 34.522 42.9567 31.5799 44.4229 32.6937C45.8891 33.8075 45.0464 34.9297 43.9585 34.9718Z" fill="white"/>
</svg>
