<svg width="44" height="44" viewBox="0 0 44 44" fill="none" xmlns="http://www.w3.org/2000/svg">
<path d="M35.9318 21.5335H7.16926C6.59394 21.5335 6.04219 21.305 5.63537 20.8982C5.22856 20.4914 5.00002 19.9396 5.00002 19.3643V14.9008C4.99884 14.6152 5.05408 14.3322 5.16257 14.0679C5.27106 13.8037 5.43066 13.5635 5.63221 13.3612C5.83376 13.1588 6.07329 12.9982 6.33706 12.8886C6.60083 12.7791 6.88364 12.7227 7.16926 12.7227H35.9318C36.5071 12.7227 37.0589 12.9512 37.4657 13.358C37.8725 13.7648 38.101 14.3166 38.101 14.8919V19.3554C38.1022 19.641 38.047 19.924 37.9385 20.1882C37.83 20.4524 37.6704 20.6926 37.4688 20.895C37.2673 21.0974 37.0278 21.258 36.764 21.3675C36.5002 21.4771 36.2174 21.5335 35.9318 21.5335ZM7.16926 14.392C7.04058 14.392 6.91703 14.4425 6.8252 14.5326C6.73338 14.6228 6.68062 14.7454 6.67828 14.874V19.3375C6.67828 19.4677 6.73001 19.5926 6.82208 19.6847C6.91416 19.7768 7.03904 19.8285 7.16926 19.8285H35.9318C36.0604 19.8261 36.183 19.7734 36.2732 19.6816C36.3634 19.5897 36.4139 19.4662 36.4138 19.3375V14.874C36.4138 14.7462 36.3631 14.6236 36.2726 14.5332C36.1822 14.4428 36.0596 14.392 35.9318 14.392H7.16926Z" fill="white"/>
<path d="M31.9417 3.20501C31.299 2.49086 29.826 1.41963 27.1926 2.38373C23.9878 3.53531 22.372 6.40977 21.5508 8.94502C20.7295 6.40977 19.1048 3.53531 15.9089 2.38373C13.2309 1.43748 11.7936 2.49086 11.1509 3.20501C10.4916 4.05956 10.0887 5.08386 9.98913 6.15858C9.88956 7.2333 10.0974 8.31418 10.5885 9.27531C12.3739 13.105 16.9891 14.3279 17.1855 14.3815H17.4087C17.6454 14.4123 17.8847 14.3478 18.0739 14.2021C18.2631 14.0565 18.3866 13.8416 18.4174 13.6049C18.4482 13.3681 18.3837 13.1288 18.238 12.9397C18.0924 12.7505 17.8775 12.6269 17.6408 12.5961C17.5961 12.5961 13.6594 11.516 12.1953 8.45404C11.8678 7.80798 11.7206 7.08552 11.7693 6.36281C11.818 5.64011 12.0608 4.94393 12.4721 4.34766C13.088 3.66921 14.0432 3.55316 15.3019 4.00843C20.2653 5.79382 20.6045 13.3549 20.6134 13.4353C20.6134 13.672 20.7075 13.8991 20.8749 14.0665C21.0423 14.2339 21.2694 14.3279 21.5061 14.3279C21.7429 14.3279 21.9699 14.2339 22.1374 14.0665C22.3048 13.8991 22.3988 13.672 22.3988 13.4353C22.3988 13.3549 22.738 5.79382 27.7014 4.00843C29.1029 3.60672 29.9956 3.72277 30.6205 4.40122C31.0349 4.99639 31.2789 5.69344 31.3261 6.41713C31.3733 7.14082 31.2219 7.86365 30.8883 8.5076C29.4332 11.5695 25.4875 12.6408 25.4518 12.6497C25.2236 12.7105 25.0287 12.8592 24.91 13.0633C24.7912 13.2674 24.7581 13.5103 24.818 13.7388C24.8686 13.9352 24.9846 14.1085 25.1469 14.2302C25.3091 14.3519 25.508 14.4147 25.7107 14.4083C25.7848 14.4176 25.8598 14.4176 25.9339 14.4083C26.1303 14.3547 30.7187 13.1317 32.5398 9.3021C33.0293 8.33389 33.233 7.24633 33.1271 6.16661C33.0211 5.08688 32.61 4.05964 31.9417 3.20501Z" fill="white"/>
<path d="M18.1055 13.0039V36.3835L21.5513 33.7947L24.997 36.3835V13.1557L18.1055 13.0039Z" fill="white"/>
<path d="M33.8604 25.8814L33.423 37.906C33.3783 39.0486 32.6731 39.9681 31.8518 39.9681H11.2485C10.4272 39.9681 9.72201 39.0754 9.6863 37.906L9.07927 21.534H31.834V21.4358H35.6993V20.7216C35.7033 20.4943 35.6202 20.2739 35.4672 20.1057C35.304 19.9483 35.087 19.8589 34.8602 19.8557H8.21336C8.09773 19.8528 7.98279 19.8743 7.87605 19.9188C7.76931 19.9634 7.67318 20.03 7.59397 20.1142C7.51475 20.1985 7.45422 20.2986 7.41636 20.4079C7.37849 20.5172 7.36413 20.6332 7.37423 20.7484L7.99911 37.9952C8.07053 40.0306 9.46313 41.6553 11.2485 41.6553H31.8518C33.6372 41.6553 35.0298 40.0306 35.1012 37.9685L35.5387 25.8814H33.8604Z" fill="white"/>
</svg>
