<svg width="64" height="64" viewBox="0 0 64 64" fill="none" xmlns="http://www.w3.org/2000/svg">
<circle cx="32" cy="32" r="32" fill="#292929"/>
<path fill-rule="evenodd" clip-rule="evenodd" d="M27.9983 36.813L23.0316 31.3112C21.4735 29.5851 18.9414 25.0973 21.2787 20.9548C23.3238 17.3948 23.616 17.0711 24.4924 16.7475C25.3689 16.4239 26.2455 17.3949 26.5377 17.7185L29.4592 20.9549C29.7514 21.2786 30.2774 22.1201 30.0436 22.8967C29.8097 23.6733 28.1931 25.5936 27.414 26.4566C27.0245 26.8882 26.4792 28.0102 27.4141 29.0458L31.212 33.2528L31.2122 33.2526L35.0101 37.4598C35.945 38.4954 36.9579 37.8914 37.3475 37.4599C38.1266 36.5969 39.8601 34.806 40.5611 34.547C41.2622 34.288 42.0219 34.8706 42.3141 35.1943L45.2357 38.4307C45.5278 38.7543 46.4044 39.7253 46.1123 40.6963C45.8201 41.6672 45.528 41.9908 42.3142 44.2563C38.5746 46.8454 34.5233 44.0405 32.9651 42.3144L27.9986 36.8127L27.9983 36.813Z" fill="white"/>
</svg>
