<svg width="64" height="64" viewBox="0 0 64 64" fill="none" xmlns="http://www.w3.org/2000/svg">
<circle cx="32" cy="32" r="32" fill="#292929"/>
<path d="M42.8656 20.3037C40.7857 19.3354 38.5699 18.6907 36.295 18.3921C36.2827 18.3507 36.2664 18.3105 36.2463 18.2722L32.8017 13.1859C32.7323 13.0909 32.6287 13.0267 32.5128 13.0066C32.3969 12.9866 32.2778 13.0124 32.1805 13.0785C32.0833 13.1446 32.0155 13.246 31.9915 13.3611C31.9676 13.4762 31.9893 13.5962 32.0521 13.6956L35.1256 18.2347C34.2545 18.1325 33.3788 18.0749 32.5018 18.0623C32.4793 18.0623 31.8459 18.0623 30.8564 18.141L27.4942 13.1859C27.4248 13.0909 27.3212 13.0267 27.2053 13.0066C27.0895 12.9866 26.9703 13.0124 26.8731 13.0785C26.7758 13.1446 26.7081 13.246 26.6841 13.3611C26.6601 13.4762 26.6818 13.5962 26.7446 13.6956L29.8219 18.2347C27.7116 18.4709 24.7018 19.0181 22.1418 20.2925C21.9766 20.3733 21.8372 20.4985 21.7392 20.6541C21.6412 20.8096 21.5885 20.9895 21.587 21.1733V43.4377C21.5874 44.0217 21.7826 44.5889 22.1418 45.0494V47.4708C22.1466 47.8669 22.3062 48.2454 22.5863 48.5256C22.8664 48.8057 23.2449 48.9652 23.6411 48.9701H24.6531C25.0507 48.9701 25.4321 48.8121 25.7132 48.5309C25.9944 48.2498 26.1524 47.8684 26.1524 47.4708V46.0652H38.8213V47.4708C38.8213 47.8684 38.9793 48.2498 39.2605 48.5309C39.5416 48.8121 39.923 48.9701 40.3206 48.9701H41.3326C41.5311 48.9725 41.7281 48.9356 41.9121 48.8614C42.0962 48.7871 42.2637 48.6771 42.4049 48.5376C42.5461 48.3982 42.6582 48.232 42.7348 48.0489C42.8113 47.8658 42.8507 47.6693 42.8507 47.4708V45.0344C43.2077 44.5744 43.4015 44.0087 43.4016 43.4265V21.1846C43.4019 21.0027 43.352 20.8242 43.2574 20.6688C43.1629 20.5134 43.0273 20.3871 42.8656 20.3037ZM32.5018 18.081C32.5018 18.081 32.5018 18.126 32.5018 18.171C32.4992 18.1411 32.4992 18.111 32.5018 18.081ZM29.6757 20.0376H35.208C35.3904 20.0508 35.5611 20.1325 35.6856 20.2664C35.8102 20.4002 35.8794 20.5763 35.8794 20.7591C35.8794 20.942 35.8102 21.1181 35.6856 21.2519C35.5611 21.3858 35.3904 21.4675 35.208 21.4807H29.6757C29.5766 21.4878 29.477 21.4745 29.3833 21.4414C29.2895 21.4084 29.2036 21.3564 29.1309 21.2887C29.0581 21.221 29.0001 21.1391 28.9604 21.048C28.9207 20.9568 28.9002 20.8585 28.9002 20.7591C28.9002 20.6598 28.9207 20.5614 28.9604 20.4703C29.0001 20.3792 29.0581 20.2972 29.1309 20.2295C29.2036 20.1618 29.2895 20.1099 29.3833 20.0768C29.477 20.0438 29.5766 20.0305 29.6757 20.0376ZM25.1778 43.1341C24.8279 43.1341 24.4859 43.0303 24.1949 42.8359C23.904 42.6415 23.6772 42.3652 23.5433 42.042C23.4094 41.7187 23.3744 41.363 23.4427 41.0198C23.5109 40.6766 23.6794 40.3614 23.9268 40.114C24.1743 39.8665 24.4895 39.698 24.8327 39.6298C25.1759 39.5615 25.5316 39.5966 25.8549 39.7305C26.1781 39.8644 26.4544 40.0911 26.6488 40.3821C26.8432 40.673 26.947 41.015 26.947 41.3649C26.947 41.5989 26.9006 41.8305 26.8105 42.0463C26.7205 42.2622 26.5885 42.4581 26.4222 42.6226C26.2559 42.7871 26.0587 42.9171 25.8419 43.0049C25.6251 43.0926 25.393 43.1366 25.1591 43.1341H25.1778ZM39.8333 43.1341C39.4834 43.1341 39.1414 43.0303 38.8505 42.8359C38.5595 42.6415 38.3328 42.3652 38.1989 42.042C38.065 41.7187 38.0299 41.363 38.0982 41.0198C38.1664 40.6766 38.3349 40.3614 38.5824 40.114C38.8298 39.8665 39.145 39.698 39.4882 39.6298C39.8314 39.5615 40.1871 39.5966 40.5104 39.7305C40.8336 39.8644 41.1099 40.0911 41.3043 40.3821C41.4987 40.673 41.6025 41.015 41.6025 41.3649C41.6025 41.5989 41.5561 41.8305 41.4661 42.0463C41.376 42.2622 41.244 42.4581 41.0777 42.6226C40.9114 42.7871 40.7142 42.9171 40.4974 43.0049C40.2806 43.0926 40.0485 43.1366 39.8146 43.1341H39.8333ZM41.6025 33.3288C41.603 33.5678 41.5563 33.8046 41.4652 34.0256C41.3741 34.2466 41.2402 34.4474 41.0714 34.6166C40.9025 34.7858 40.702 34.9201 40.4812 35.0117C40.2604 35.1033 40.0237 35.1504 39.7846 35.1504H25.2116C24.9722 35.1509 24.7351 35.1041 24.5139 35.0127C24.2926 34.9214 24.0916 34.7872 23.9224 34.618C23.7531 34.4487 23.619 34.2477 23.5276 34.0265C23.4362 33.8052 23.3894 33.5681 23.3899 33.3288V25.7499C23.3899 25.5108 23.4371 25.2741 23.5287 25.0533C23.6203 24.8325 23.7545 24.632 23.9237 24.4631C24.0929 24.2943 24.2937 24.1604 24.5147 24.0693C24.7357 23.9782 24.9725 23.9315 25.2116 23.932H39.7659C40.248 23.932 40.7104 24.1235 41.0513 24.4645C41.3922 24.8054 41.5838 25.2678 41.5838 25.7499L41.6025 33.3288ZM46.6438 25.42H46.2915C46.2465 23.4222 44.4174 22.89 43.4616 22.89V24.0145C43.6303 24.0145 45.1108 24.0557 45.167 25.42H44.5786C44.4792 25.42 44.3838 25.4595 44.3135 25.5298C44.2432 25.6001 44.2038 25.6955 44.2038 25.7949V30.8025C44.2038 30.9019 44.2432 30.9972 44.3135 31.0675C44.3838 31.1378 44.4792 31.1773 44.5786 31.1773H46.6251C46.7245 31.1773 46.8199 31.1378 46.8901 31.0675C46.9604 30.9972 46.9999 30.9019 46.9999 30.8025V25.8024C47.0009 25.7525 46.992 25.703 46.9736 25.6566C46.9552 25.6103 46.9277 25.5681 46.8928 25.5325C46.8579 25.4969 46.8163 25.4686 46.7703 25.4493C46.7243 25.43 46.675 25.42 46.6251 25.42H46.6438ZM21.5646 24.0145V22.89C20.5938 22.89 18.7759 23.4222 18.7309 25.42H18.3748C18.2754 25.42 18.1801 25.4595 18.1098 25.5298C18.0395 25.6001 18 25.6955 18 25.7949V30.8025C18 30.9019 18.0395 30.9972 18.1098 31.0675C18.1801 31.1378 18.2754 31.1773 18.3748 31.1773H20.4251C20.5245 31.1773 20.6198 31.1378 20.6901 31.0675C20.7604 30.9972 20.7999 30.9019 20.7999 30.8025V25.8024C20.7999 25.703 20.7604 25.6076 20.6901 25.5373C20.6198 25.467 20.5245 25.4275 20.4251 25.4275H19.8741C19.9116 24.0707 21.3921 24.0145 21.5646 24.0145Z" fill="white"/>
</svg>
