<svg width="44" height="44" viewBox="0 0 44 44" fill="none" xmlns="http://www.w3.org/2000/svg">
<path d="M21.809 22.9853C20.4898 22.9853 19.2001 22.5939 18.1033 21.8608C17.0065 21.1277 16.1518 20.0857 15.6474 18.8667C15.1429 17.6477 15.0114 16.3064 15.2694 15.0126C15.5274 13.7188 16.1634 12.5307 17.0969 11.5984C18.0304 10.6662 19.2194 10.0318 20.5136 9.77549C21.8077 9.51919 23.1488 9.65252 24.3671 10.1586C25.5854 10.6647 26.6263 11.5208 27.3579 12.6186C28.0896 13.7164 28.4792 15.0065 28.4774 16.3258C28.4751 18.0928 27.7715 19.7866 26.5212 21.0353C25.2708 22.2839 23.5761 22.9853 21.809 22.9853ZM21.809 11.4428C20.8433 11.4428 19.8992 11.7291 19.0962 12.2657C18.2932 12.8022 17.6673 13.5649 17.2977 14.4571C16.9281 15.3494 16.8314 16.3312 17.0198 17.2784C17.2082 18.2256 17.6733 19.0957 18.3562 19.7786C19.0391 20.4615 19.9092 20.9266 20.8564 21.115C21.8036 21.3034 22.7854 21.2067 23.6777 20.8371C24.5699 20.4675 25.3326 19.8416 25.8691 19.0386C26.4057 18.2356 26.6921 17.2915 26.6921 16.3258C26.6921 15.0307 26.1776 13.7887 25.2618 12.873C24.3461 11.9572 23.1041 11.4428 21.809 11.4428Z" fill="white"/>
<path d="M32.8155 41.5393H10.8107C10.5739 41.5393 10.3468 41.4452 10.1794 41.2778C10.012 41.1104 9.91797 40.8834 9.91797 40.6466C9.91797 40.4098 10.012 40.1828 10.1794 40.0154C10.3468 39.848 10.5739 39.7539 10.8107 39.7539H32.8155C33.0523 39.7539 33.2793 39.848 33.4467 40.0154C33.6142 40.1828 33.7082 40.4098 33.7082 40.6466C33.7082 40.8834 33.6142 41.1104 33.4467 41.2778C33.2793 41.4452 33.0523 41.5393 32.8155 41.5393Z" fill="white"/>
<path d="M21.8089 4C19.6233 4.00298 17.4696 4.524 15.5243 5.52033C13.579 6.51666 11.8975 7.95992 10.6179 9.73174C9.33824 11.5036 8.49681 13.5535 8.16261 15.7134C7.82841 17.8733 8.01096 20.0816 8.69529 22.1574C8.69529 22.1574 8.69529 22.1573 8.69529 22.2109C10.4807 28.2187 20.6395 40.1183 21.0769 40.6182C21.1588 40.7139 21.2599 40.7913 21.3738 40.8451C21.4876 40.899 21.6116 40.9281 21.7375 40.9307C21.8614 40.9315 21.9841 40.9065 22.0979 40.8573C22.2116 40.8082 22.3139 40.7358 22.3981 40.645L22.9426 40.0469L21.7732 38.6721C19.4879 35.9405 11.9536 26.6208 10.436 21.7913C10.4412 21.7498 10.4412 21.7079 10.436 21.6664C9.88631 20.0147 9.70146 18.2635 9.89423 16.5335C10.087 14.8035 10.6528 13.1359 11.5526 11.6458C12.4525 10.1556 13.6649 8.87848 15.1062 7.90241C16.5475 6.92634 18.1834 6.27459 19.9011 5.99213C21.6187 5.70966 23.3772 5.80322 25.0552 6.26634C26.7332 6.72945 28.2907 7.5511 29.6203 8.67459C30.9499 9.79809 32.02 11.1967 32.7566 12.7738C33.4932 14.351 33.8789 16.0692 33.887 17.8099C33.8889 19.1025 33.6808 20.3869 33.2711 21.6128C33.2684 21.6514 33.2684 21.6902 33.2711 21.7289C33.0836 22.3537 31.3161 27.5849 23.9514 36.2976L25.3708 37.3956C33.3693 27.8349 34.869 22.3716 34.9404 22.1216C35.6203 20.0466 35.7988 17.8399 35.4612 15.6826C35.1237 13.5252 34.2797 11.4785 32.9984 9.71035C31.7171 7.94216 30.035 6.50278 28.09 5.51019C26.1451 4.51761 23.9925 4.00007 21.8089 4Z" fill="white"/>
</svg>
