<svg width="19" height="17" viewBox="0 0 19 17" fill="none" xmlns="http://www.w3.org/2000/svg">
<path d="M7.87236 0.0210593C3.55017 0.0210593 0.0341797 3.32738 0.0341797 7.39183C0.0341797 11.4563 3.55017 14.7626 7.87236 14.7626C9.19366 14.7626 10.4926 14.4678 11.5899 13.8992C11.6778 13.9986 11.7753 14.0903 11.881 14.1729L14.1205 16.2789C14.3273 16.4977 14.5795 16.6744 14.8615 16.7983C15.1436 16.9221 15.4496 16.9905 15.7607 16.9991C16.0719 17.0077 16.3816 16.9564 16.671 16.8484C16.9603 16.7403 17.2231 16.5778 17.4432 16.3708C17.6633 16.1639 17.8361 15.9167 17.951 15.6447C18.0659 15.3726 18.1204 15.0813 18.1112 14.7887C18.1021 14.4961 18.0294 14.2084 17.8977 13.9431C17.766 13.6779 17.5781 13.4408 17.3454 13.2463L15.1059 11.1404C14.9968 11.0378 14.8767 10.946 14.7476 10.8666C15.3522 9.83471 15.7329 8.63433 15.7329 7.37077C15.7329 3.30632 12.217 0 7.89476 0L7.87236 0.0210593ZM7.87236 2.12699C10.9852 2.12699 13.4711 4.46458 13.4711 7.39183C13.4711 8.78174 12.9336 10.0664 11.993 11.014C11.9706 11.0351 11.9482 11.0562 11.9258 11.0772C11.82 11.1599 11.7226 11.2515 11.6347 11.351C10.6493 12.1934 9.30563 12.6777 7.84997 12.6777C4.73709 12.6777 2.25127 10.3401 2.25127 7.41289C2.25127 4.48564 4.73709 2.14805 7.84997 2.14805L7.87236 2.12699Z" fill="#292929"/>
</svg>
