<svg width="44" height="43" viewBox="0 0 44 43" fill="none" xmlns="http://www.w3.org/2000/svg">
<g clip-path="url(#clip0_832_1559)">
<path d="M22.4668 4.73552C17.8403 4.7172 13.3951 6.51554 10.1049 9.73657C6.81465 12.9576 4.94774 17.3387 4.91309 21.9202C4.91309 26.5306 6.76249 30.9521 10.0545 34.2121C13.3464 37.4721 17.8113 39.3036 22.4668 39.3036C27.1223 39.3036 31.5872 37.4721 34.8792 34.2121C38.1711 30.9521 40.0205 26.5306 40.0205 21.9202C39.9879 17.3381 38.1216 12.9558 34.831 9.73434C31.5404 6.51286 27.0939 4.71519 22.4668 4.73552ZM23.4849 37.1956V35.2861C23.4627 35.0349 23.3463 34.801 23.1585 34.6306C22.9708 34.4602 22.7253 34.3656 22.4707 34.3656C22.216 34.3656 21.9706 34.4602 21.7828 34.6306C21.5951 34.801 21.4786 35.0349 21.4565 35.2861V37.1956C17.6873 36.9766 14.1276 35.4062 11.4422 32.7778C8.75685 30.1495 7.12957 26.6429 6.86436 22.9131H8.81563C9.08154 22.9131 9.33656 22.8085 9.52459 22.6223C9.71262 22.4361 9.81826 22.1836 9.81826 21.9202C9.81826 21.6569 9.71262 21.4044 9.52459 21.2182C9.33656 21.032 9.08154 20.9274 8.81563 20.9274H6.86436C7.12957 17.1976 8.75685 13.691 11.4422 11.0627C14.1276 8.43429 17.6873 6.86394 21.4565 6.64494V8.55435C21.4786 8.8056 21.5951 9.03951 21.7828 9.20992C21.9706 9.38032 22.216 9.47485 22.4707 9.47485C22.7253 9.47485 22.9708 9.38032 23.1585 9.20992C23.3463 9.03951 23.4627 8.8056 23.4849 8.55435V6.64494C27.2535 6.86554 30.8123 8.43641 33.4973 11.0645C36.1824 13.6925 37.8102 17.1982 38.077 20.9274H36.1257C35.8598 20.9274 35.6048 21.032 35.4167 21.2182C35.2287 21.4044 35.1231 21.6569 35.1231 21.9202C35.1231 22.1836 35.2287 22.4361 35.4167 22.6223C35.6048 22.8085 35.8598 22.9131 36.1257 22.9131H38.077C37.7848 26.6333 36.1489 30.1246 33.469 32.7477C30.7891 35.3707 27.2446 36.9497 23.4849 37.1956Z" fill="white"/>
<path d="M22.467 0.916417C19.6652 0.899317 16.8875 1.42914 14.2926 2.47561C11.6977 3.52208 9.33651 5.06467 7.3439 7.01524C5.35129 8.96581 3.76636 11.2861 2.67968 13.8435C1.59301 16.401 1.02589 19.1454 1.01074 21.92C1.02589 24.6945 1.59301 27.439 2.67968 29.9964C3.76636 32.5538 5.35129 34.8741 7.3439 36.8247C9.33651 38.7753 11.6977 40.3179 14.2926 41.3643C16.8875 42.4108 19.6652 42.9406 22.467 42.9235C25.2523 42.9235 28.0103 42.3802 30.5835 41.3247C33.1568 40.2692 35.4949 38.7221 37.4644 36.7717C39.4338 34.8214 40.9961 32.5059 42.062 29.9577C43.1279 27.4094 43.6765 24.6782 43.6765 21.92C43.6765 19.1617 43.1279 16.4305 42.062 13.8823C40.9961 11.334 39.4338 9.01857 37.4644 7.06821C35.4949 5.11785 33.1568 3.57074 30.5835 2.51522C28.0103 1.45969 25.2523 0.916417 22.467 0.916417ZM22.467 41.0141C17.3245 41.0405 12.3817 39.0444 8.72449 35.4642C5.06724 31.8839 2.99465 27.0125 2.96201 21.92C2.96201 16.7971 5.017 11.8841 8.67489 8.26176C12.3328 4.63937 17.294 2.60434 22.467 2.60434C27.6401 2.60434 32.6012 4.63937 36.2591 8.26176C39.917 11.8841 41.972 16.7971 41.972 21.92C41.9394 27.0125 39.8668 31.8839 36.2095 35.4642C32.5523 39.0444 27.6095 41.0405 22.467 41.0141Z" fill="white"/>
<path d="M22.4669 14.2824C22.2015 14.2862 21.948 14.3919 21.7596 14.577C21.5711 14.7622 21.4625 15.0125 21.4566 15.2753V17.9484L18.4101 11.9911C18.288 11.7632 18.0836 11.5893 17.8376 11.5044C17.5916 11.4194 17.3223 11.4296 17.0836 11.5328C16.8533 11.6494 16.6769 11.8491 16.5908 12.0906C16.5047 12.3322 16.5155 12.5973 16.6208 12.8312L21.5337 22.3783C21.6371 22.5694 21.7982 22.7238 21.9946 22.8197C22.1911 22.9155 22.4128 22.9481 22.6289 22.9129C22.8468 22.8765 23.0443 22.764 23.1857 22.5959C23.3272 22.4278 23.4032 22.2152 23.4001 21.9964V15.2753C23.4121 15.1477 23.3968 15.0191 23.3551 14.8979C23.3133 14.7767 23.2462 14.6655 23.1581 14.5718C23.07 14.4781 22.9629 14.4038 22.8438 14.3539C22.7246 14.304 22.5962 14.2797 22.4669 14.2824Z" fill="white"/>
<path d="M2.96201 36.2783C2.18473 36.2783 1.43928 36.5841 0.889651 37.1284C0.340026 37.6727 0.03125 38.4109 0.03125 39.1806C0.03125 39.9504 0.340026 40.6886 0.889651 41.2329C1.43928 41.7772 2.18473 42.0829 2.96201 42.0829C3.7393 42.0829 4.48475 41.7772 5.03437 41.2329C5.584 40.6886 5.89278 39.9504 5.89278 39.1806C5.89278 38.4109 5.584 37.6727 5.03437 37.1284C4.48475 36.5841 3.7393 36.2783 2.96201 36.2783ZM2.96201 40.0971C2.7644 40.0941 2.57209 40.0334 2.40925 39.9224C2.24641 39.8115 2.1203 39.6554 2.04677 39.4738C1.97325 39.2921 1.95558 39.0929 1.99599 38.9014C2.0364 38.7098 2.13309 38.5343 2.2739 38.3969C2.41472 38.2596 2.59338 38.1666 2.78744 38.1295C2.9815 38.0924 3.1823 38.1129 3.36461 38.1885C3.54691 38.2641 3.7026 38.3913 3.81211 38.5543C3.92161 38.7172 3.98004 38.9085 3.98007 39.1043C3.97406 39.3684 3.86439 39.6197 3.67433 39.8051C3.48427 39.9905 3.22876 40.0952 2.96201 40.0971Z" fill="white"/>
<path d="M38.5634 4.7351C39.2004 4.73515 39.8118 4.48668 40.265 4.04352C40.7183 3.60035 40.9771 2.99817 40.9852 2.36743C40.9503 1.75578 40.6803 1.18054 40.2307 0.759741C39.7811 0.338943 39.1859 0.104492 38.5673 0.104492C37.9487 0.104492 37.3535 0.338943 36.9039 0.759741C36.4543 1.18054 36.1843 1.75578 36.1494 2.36743C36.1555 2.99747 36.4125 3.59966 36.8646 4.04304C37.3167 4.48642 37.9272 4.73513 38.5634 4.7351ZM38.5634 1.90917C38.6846 1.91623 38.799 1.96656 38.8855 2.05083C38.9721 2.1351 39.0248 2.24759 39.0339 2.36743C39.0193 2.47975 38.9639 2.58296 38.878 2.65775C38.7921 2.73254 38.6817 2.7738 38.5673 2.7738C38.4529 2.7738 38.3425 2.73254 38.2566 2.65775C38.1707 2.58296 38.1153 2.47975 38.1007 2.36743C38.1096 2.24882 38.1612 2.13731 38.2461 2.05321C38.3311 1.96911 38.4437 1.91799 38.5634 1.90917Z" fill="white"/>
<path d="M8.81601 0.916016C9.01397 0.917524 9.20706 0.977035 9.37092 1.08705C9.53478 1.19706 9.66209 1.35265 9.7368 1.53421C9.8115 1.71576 9.83026 1.91516 9.79071 2.10725C9.75115 2.29935 9.65506 2.47555 9.51454 2.61365C9.37402 2.75174 9.19535 2.84555 9.00108 2.88325C8.8068 2.92095 8.6056 2.90084 8.42284 2.82547C8.24009 2.7501 8.08395 2.62284 7.97412 2.45973C7.86428 2.29662 7.80567 2.10496 7.80566 1.90891C7.8077 1.64488 7.91504 1.39235 8.1043 1.20636C8.29356 1.02037 8.54938 0.916008 8.81601 0.916016Z" fill="white"/>
<path d="M2.96249 5.65137C3.16046 5.65288 3.35354 5.71239 3.5174 5.8224C3.68127 5.93241 3.80858 6.088 3.88328 6.26956C3.95799 6.45112 3.97675 6.65051 3.93719 6.84261C3.89764 7.0347 3.80154 7.21091 3.66102 7.349C3.5205 7.4871 3.34184 7.58091 3.14756 7.6186C2.95328 7.6563 2.75209 7.63619 2.56933 7.56082C2.38657 7.48546 2.23043 7.35819 2.1206 7.19508C2.01077 7.03197 1.95215 6.84031 1.95215 6.64426C1.95418 6.38023 2.06153 6.1277 2.25078 5.94171C2.44004 5.75572 2.69586 5.65136 2.96249 5.65137Z" fill="white"/>
<path d="M9.83348 41.0137C10.0311 41.0167 10.2234 41.0775 10.3862 41.1884C10.5491 41.2993 10.6752 41.4554 10.7487 41.6371C10.8222 41.8188 10.8399 42.0179 10.7995 42.2095C10.7591 42.4011 10.6624 42.5766 10.5216 42.7139C10.3808 42.8512 10.2021 42.9443 10.0081 42.9814C9.814 43.0185 9.6132 42.9979 9.43089 42.9224C9.24858 42.8468 9.09289 42.7195 8.98339 42.5566C8.87389 42.3937 8.81545 42.2023 8.81543 42.0066C8.81644 41.8752 8.84357 41.7453 8.89528 41.6243C8.94699 41.5033 9.02226 41.3935 9.1168 41.3013C9.21133 41.2091 9.32328 41.1363 9.44625 41.0869C9.56922 41.0376 9.7008 41.0127 9.83348 41.0137Z" fill="white"/>
<path d="M42.9897 37.1953C43.1874 37.1984 43.3797 37.2591 43.5425 37.37C43.7053 37.481 43.8314 37.6371 43.905 37.8187C43.9785 38.0004 43.9962 38.1995 43.9558 38.3911C43.9153 38.5827 43.8187 38.7582 43.6778 38.8955C43.537 39.0329 43.3584 39.1259 43.1643 39.163C42.9703 39.2001 42.7695 39.1796 42.5871 39.104C42.4048 39.0284 42.2491 38.9012 42.1396 38.7382C42.0301 38.5753 41.9717 38.384 41.9717 38.1882C41.9727 38.0568 41.9998 37.9269 42.0515 37.8059C42.1032 37.6849 42.1785 37.5752 42.273 37.483C42.3676 37.3908 42.4795 37.3179 42.6025 37.2686C42.7255 37.2192 42.8571 37.1943 42.9897 37.1953Z" fill="white"/>
<path d="M36.1255 41.0137C36.3231 41.0167 36.5154 41.0775 36.6782 41.1884C36.8411 41.2993 36.9672 41.4554 37.0407 41.6371C37.1142 41.8188 37.1319 42.0179 37.0915 42.2095C37.0511 42.4011 36.9544 42.5766 36.8136 42.7139C36.6728 42.8512 36.4941 42.9443 36.3001 42.9814C36.106 43.0185 35.9052 42.9979 35.7229 42.9224C35.5406 42.8468 35.3849 42.7195 35.2754 42.5566C35.1659 42.3937 35.1074 42.2023 35.1074 42.0066C35.1084 41.8752 35.1356 41.7453 35.1873 41.6243C35.239 41.5033 35.3143 41.3935 35.4088 41.3013C35.5033 41.2091 35.6153 41.1363 35.7382 41.0869C35.8612 41.0376 35.9928 41.0127 36.1255 41.0137Z" fill="white"/>
<path d="M42.9897 6.64456C43.1874 6.64757 43.3797 6.70835 43.5425 6.81927C43.7053 6.93018 43.8314 7.08628 43.905 7.26796C43.9785 7.44963 43.9962 7.64877 43.9558 7.84035C43.9153 8.03194 43.8187 8.20743 43.6778 8.34476C43.537 8.4821 43.3584 8.57515 43.1643 8.61224C42.9703 8.64933 42.7695 8.6288 42.5871 8.55322C42.4048 8.47764 42.2491 8.35039 42.1396 8.18746C42.0301 8.02452 41.9717 7.83318 41.9717 7.63746C41.9727 7.50606 41.9998 7.37615 42.0515 7.25515C42.1032 7.13414 42.1785 7.0244 42.273 6.9322C42.3676 6.84 42.4795 6.76714 42.6025 6.71779C42.7255 6.66844 42.8571 6.64355 42.9897 6.64456Z" fill="white"/>
</g>
<defs>
<clipPath id="clip0_832_1559">
<rect width="44" height="43" fill="white"/>
</clipPath>
</defs>
</svg>
