<svg width="44" height="44" viewBox="0 0 44 44" fill="none" xmlns="http://www.w3.org/2000/svg">
<path d="M6.56842 34.8665C5.73781 34.8724 4.92422 34.6311 4.23114 34.1733C3.53806 33.7155 2.99683 33.0619 2.67629 32.2956L0.328506 26.6805C-0.102507 25.6552 -0.109655 24.5008 0.308626 23.4701C0.726907 22.4395 1.53653 21.6166 2.56024 21.1816L7.73785 18.9945C7.84924 18.9466 7.96921 18.9219 8.09046 18.9219C8.21171 18.9219 8.33169 18.9466 8.44307 18.9945C8.5577 19.0383 8.66204 19.1054 8.74959 19.1914C8.83714 19.2774 8.90601 19.3805 8.95191 19.4944L13.8617 31.0994C13.955 31.3283 13.955 31.5846 13.8617 31.8135C13.7636 32.0369 13.5852 32.2154 13.3618 32.3134L8.18419 34.5005C7.67559 34.7296 7.1261 34.8541 6.56842 34.8665ZM7.60394 21.0655L3.28332 22.8509C2.71255 23.095 2.26113 23.5544 2.02713 24.1294C1.79312 24.7044 1.79543 25.3485 2.03355 25.9218L4.40811 31.5457C4.65201 32.1165 5.11198 32.5674 5.68744 32.7999C6.26291 33.0324 6.90703 33.0276 7.47897 32.7866L11.7907 31.0012L7.60394 21.0655Z" fill="white"/>
<path d="M12.8782 32.2621C12.6954 32.2652 12.5159 32.2121 12.3643 32.1099C12.2126 32.0077 12.096 31.8614 12.0302 31.6908L7.1382 20.0501C7.06045 19.863 7.04539 19.6558 7.09528 19.4595C7.14516 19.2631 7.25732 19.0883 7.41494 18.961L21.4213 7.78451C21.7984 7.48023 22.2416 7.26868 22.7154 7.16684C23.1891 7.065 23.6801 7.07572 24.149 7.19814C24.6178 7.32056 25.0514 7.55127 25.4149 7.87171C25.7784 8.19215 26.0616 8.5934 26.2418 9.0432L33.669 27.1559C33.8578 27.618 33.9329 28.1187 33.8879 28.6158C33.8428 29.1129 33.679 29.5919 33.4101 30.0125C33.1396 30.4313 32.7737 30.78 32.3422 31.0298C31.9108 31.2797 31.4263 31.4236 30.9284 31.4498L12.9228 32.2621H12.8782ZM9.0932 19.9787L13.4852 30.3785L30.8481 29.593C31.0492 29.5835 31.2452 29.526 31.4195 29.4252C31.5938 29.3244 31.7413 29.1832 31.8498 29.0135C31.9582 28.8439 32.0244 28.6507 32.0427 28.4502C32.061 28.2496 32.0309 28.0476 31.955 27.8611L24.5278 9.7395C24.4549 9.55787 24.3401 9.39606 24.1927 9.26729C24.0453 9.13852 23.8696 9.04643 23.6798 8.99857C23.4912 8.95105 23.2942 8.94726 23.1039 8.98748C22.9136 9.02771 22.735 9.11089 22.5818 9.23067L9.0932 19.9787Z" fill="white"/>
<path d="M31.6921 12.2808C31.4485 12.2788 31.215 12.1829 31.0404 12.013C30.9512 11.9295 30.8801 11.8286 30.8315 11.7165C30.7829 11.6044 30.7578 11.4836 30.7578 11.3614C30.7578 11.2392 30.7829 11.1183 30.8315 11.0062C30.8801 10.8941 30.9512 10.7932 31.0404 10.7097L36.2894 5.28215C36.4599 5.10576 36.6934 5.00432 36.9387 5.00013C37.184 4.99595 37.4208 5.08936 37.5972 5.25983C37.7736 5.43029 37.875 5.66384 37.8792 5.9091C37.8834 6.15436 37.79 6.39124 37.6195 6.56762L32.3527 11.9952C32.2684 12.086 32.1662 12.1584 32.0524 12.2075C31.9387 12.2567 31.816 12.2817 31.6921 12.2808Z" fill="white"/>
<path d="M34.8145 17.2186C34.6972 17.2432 34.5763 17.2445 34.4586 17.2223C34.3409 17.2002 34.2286 17.1551 34.1283 17.0897C34.028 17.0242 33.9416 16.9396 33.874 16.8407C33.8064 16.7418 33.7589 16.6306 33.7343 16.5133C33.7097 16.3961 33.7084 16.2752 33.7305 16.1574C33.7526 16.0397 33.7977 15.9275 33.8632 15.8272C33.9287 15.7269 34.0133 15.6405 34.1122 15.5729C34.2111 15.5053 34.3223 15.4578 34.4395 15.4332L41.5097 12.3177C41.6203 12.2635 41.7409 12.2327 41.8639 12.2274C41.987 12.2221 42.1098 12.2423 42.2247 12.2867C42.3395 12.3311 42.444 12.3989 42.5314 12.4856C42.6188 12.5724 42.6873 12.6763 42.7326 12.7908C42.7869 12.9014 42.8176 13.022 42.8229 13.1451C42.8283 13.2681 42.8081 13.3909 42.7636 13.5058C42.7192 13.6207 42.6515 13.7251 42.5647 13.8125C42.478 13.9 42.374 13.9685 42.2595 14.0138L35.1894 17.1382C35.0712 17.1903 34.9436 17.2176 34.8145 17.2186Z" fill="white"/>
<path d="M42.8476 23.2992L35.2419 22.8529C35.1159 22.8537 34.9912 22.8278 34.8759 22.7769C34.7607 22.726 34.6575 22.6513 34.5732 22.5577C34.4889 22.4641 34.4253 22.3538 34.3867 22.2339C34.3481 22.1139 34.3353 21.9872 34.3492 21.862C34.3485 21.7369 34.3742 21.613 34.4246 21.4984C34.4749 21.3839 34.5488 21.2812 34.6414 21.197C34.734 21.1128 34.8432 21.0491 34.962 21.0098C35.0809 20.9706 35.2066 20.9568 35.3311 20.9693L42.8922 21.4603C43.1361 21.4662 43.3676 21.5688 43.5359 21.7454C43.7041 21.922 43.7953 22.1582 43.7894 22.4021C43.7835 22.646 43.6809 22.8775 43.5043 23.0457C43.3277 23.214 43.0915 23.3052 42.8476 23.2992Z" fill="white"/>
<path d="M17.5225 39.13L15.5318 34.3987L14.0499 35.0504L16.0674 39.8084C16.1006 39.886 16.1177 39.9695 16.1177 40.0539C16.1177 40.1383 16.1006 40.2218 16.0674 40.2994C16.0009 40.4583 15.8764 40.586 15.7193 40.6565L13.9339 41.4153C13.8547 41.4482 13.7697 41.4651 13.6839 41.4651C13.5981 41.4651 13.5132 41.4482 13.434 41.4153C13.2774 41.3484 13.1527 41.2237 13.0858 41.0671L10.006 33.7649L12.0057 32.9168V32.8633L14.407 31.7742L14.1303 31.1225C14.0479 30.9247 13.8906 30.7675 13.6929 30.6851C13.5941 30.6429 13.4878 30.6211 13.3804 30.6211C13.273 30.6211 13.1667 30.6429 13.068 30.6851L8.60451 32.5776C8.50606 32.6185 8.41673 32.6786 8.34174 32.7544C8.26675 32.8302 8.20759 32.9201 8.1677 33.019C8.12782 33.1179 8.10802 33.2237 8.10945 33.3303C8.11087 33.4369 8.1335 33.5421 8.17602 33.6399L11.5682 41.6741C11.6819 41.9497 11.8494 42.1998 12.061 42.4098C12.2725 42.6198 12.5238 42.7855 12.8002 42.8971C13.0848 43.0071 13.3878 43.0617 13.6929 43.0578C13.9996 43.061 14.3036 43.0002 14.5855 42.8793L16.3709 42.1205C16.9264 41.8846 17.3661 41.4385 17.5939 40.8796C17.7001 40.5981 17.7485 40.2982 17.7362 39.9975C17.7239 39.6969 17.6513 39.4019 17.5225 39.13Z" fill="white"/>
</svg>
