<svg width="44" height="44" viewBox="0 0 44 44" fill="none" xmlns="http://www.w3.org/2000/svg">
<path d="M33.5259 28.1922C34.0347 28.1922 34.4186 28.5136 34.3471 28.8796L33.7669 31.4863C33.6743 31.7237 33.5061 31.924 33.2882 32.0563C33.0704 32.1886 32.8151 32.2455 32.5618 32.2183H11.1372C10.884 32.244 10.6293 32.1865 10.4119 32.0543C10.1944 31.9222 10.0259 31.7228 9.93202 31.4863L9.35177 28.8796C9.27143 28.5136 9.66422 28.1922 10.173 28.1922H33.5259ZM33.5259 26.4069H10.1909C9.78996 26.3996 9.39251 26.4824 9.02787 26.6493C8.66324 26.8162 8.34073 27.0628 8.08415 27.371C7.87082 27.6319 7.7191 27.9375 7.64028 28.2652C7.56145 28.5929 7.55755 28.9341 7.62888 29.2635L8.20913 31.8791C8.37991 32.5206 8.76554 33.0841 9.30166 33.4757C9.83777 33.8672 10.4919 34.063 11.155 34.0305H32.5796C33.2471 34.0693 33.9076 33.8764 34.4493 33.4844C34.9909 33.0924 35.3806 32.5253 35.5523 31.8791L36.1325 29.2635C36.2057 28.9348 36.2036 28.5938 36.1263 28.2661C36.049 27.9383 35.8985 27.6323 35.6862 27.371C35.4287 27.0616 35.1047 26.8143 34.7384 26.6474C34.3721 26.4804 33.9729 26.3982 33.5705 26.4069H33.5259Z" fill="white"/>
<path d="M22.3341 27.9148C22.0973 27.9148 21.8703 27.8207 21.7029 27.6533C21.5355 27.4859 21.4414 27.2588 21.4414 27.0221V17.631C21.4414 17.3942 21.5355 17.1672 21.7029 16.9997C21.8703 16.8323 22.0973 16.7383 22.3341 16.7383C22.5709 16.7383 22.7979 16.8323 22.9653 16.9997C23.1327 17.1672 23.2268 17.3942 23.2268 17.631V27.0221C23.2268 27.2588 23.1327 27.4859 22.9653 27.6533C22.7979 27.8207 22.5709 27.9148 22.3341 27.9148Z" fill="white"/>
<path d="M22.6983 20.3714C22.4979 20.3788 22.3009 20.3186 22.139 20.2004C21.977 20.0821 21.8596 19.9128 21.8056 19.7198C20.9412 15.6808 21.4895 11.4676 23.3589 7.78447C26.4922 1.32138 34.339 1.00001 34.6604 1.00001C34.8158 0.99931 34.969 1.03729 35.1062 1.11053C35.2433 1.18378 35.3601 1.28998 35.4459 1.41957C35.5531 1.59811 38.2311 5.92767 35.5531 11.9176C32.875 17.9076 23.2964 20.2554 22.8947 20.3446C22.8304 20.3608 22.7646 20.3698 22.6983 20.3714ZM34.1783 2.83003C32.4643 3.02642 27.1885 3.9816 24.9657 8.56111C23.4779 11.6055 22.9309 15.0241 23.3946 18.3807C25.7602 17.6666 32.1073 15.3991 33.9373 11.2392C34.5729 9.9352 34.9232 8.51067 34.9648 7.0606C35.0063 5.61054 34.7382 4.16828 34.1783 2.83003Z" fill="white"/>
<path d="M16.4406 20.746C13.0216 20.746 10.4863 19.898 8.87055 18.1929C6.19248 15.3363 7.16551 11.2657 7.20122 11.0514C7.24944 10.8987 7.33788 10.7617 7.45724 10.6549C7.57661 10.5481 7.72252 10.4754 7.87966 10.4444C12.0218 9.50705 15.5033 9.92661 18.2349 11.7566C20.7108 13.4902 22.4343 16.1009 23.0554 19.0588C23.0951 19.2868 23.0446 19.5213 22.9147 19.7128C22.7848 19.9044 22.5856 20.038 22.3591 20.0854C20.4132 20.5023 18.4305 20.7236 16.4406 20.746ZM8.84377 12.0601C8.69578 12.9274 8.73808 13.8165 8.96775 14.6658C9.19742 15.5151 9.60896 16.3044 10.1739 16.9789C12.0307 18.916 15.78 19.4427 21.0558 18.5143C20.3995 16.3773 19.0526 14.5186 17.2261 13.2296C15.0212 11.7923 12.2271 11.3996 8.84377 12.0601Z" fill="white"/>
<path d="M31.1619 36.1003L30.3853 40.5638C30.2939 40.8426 30.1111 41.0824 29.8664 41.2444C29.6218 41.4064 29.3297 41.4811 29.0373 41.4565H15.4416C15.1529 41.4718 14.8672 41.3906 14.6297 41.2258C14.3921 41.0609 14.2161 40.8218 14.1294 40.5459L12.5939 32.5117H10.5586L12.1744 40.9566C12.3475 41.6766 12.7652 42.3141 13.3563 42.7603C13.9473 43.2064 14.675 43.4334 15.4148 43.4026H29.0373C29.7772 43.4334 30.5048 43.2064 31.0959 42.7603C31.6869 42.3141 32.1047 41.6766 32.2778 40.9566L33.1705 36.145L31.1619 36.1003Z" fill="white"/>
</svg>
