<svg width="22" height="19" viewBox="0 0 22 19" fill="none" xmlns="http://www.w3.org/2000/svg">
<rect x="1" y="4" width="20" height="4" fill="#C5C5C5"/>
<rect x="4.28564" y="10" width="2.57143" height="1.71429" fill="#C5C5C5"/>
<rect x="9.42822" y="10" width="3.42857" height="1.71429" fill="#C5C5C5"/>
<rect x="15.4282" y="10" width="2.57143" height="1.71429" fill="#C5C5C5"/>
<rect x="4.28564" y="13.4297" width="2.57143" height="1.71429" fill="#C5C5C5"/>
<rect x="9.42822" y="13.4297" width="3.42857" height="1.71429" fill="#C5C5C5"/>
<rect x="15.4282" y="13.4297" width="2.57143" height="1.71429" fill="#C5C5C5"/>
<path d="M18.604 19H3.39597C1.52573 19 0 17.6028 0 15.8901V6.10986C0 4.39718 1.52573 3 3.39597 3H18.604C20.4743 3 22 4.39718 22 6.10986V15.8901C22 17.6028 20.4743 19 18.604 19ZM3.39597 4.35211C2.3132 4.35211 1.47651 5.16338 1.47651 6.10986V15.8901C1.47651 16.8366 2.3132 17.6479 3.39597 17.6479H18.604C19.6376 17.6479 20.5235 16.8817 20.5235 15.8901V6.10986C20.5235 5.16338 19.6868 4.35211 18.604 4.35211H3.39597Z" fill="#C5C5C5"/>
<path d="M6 5C5.45 5 5 4.67273 5 4.27273V1.72727C5 1.32727 5.45 1 6 1C6.55 1 7 1.32727 7 1.72727V4.27273C7 4.67273 6.55 5 6 5Z" fill="#C5C5C5"/>
<path fill-rule="evenodd" clip-rule="evenodd" d="M4.70558 5.5951C4.3393 5.32872 4 4.87404 4 4.27273V1.72727C4 1.12596 4.3393 0.671285 4.70558 0.4049C5.07407 0.136904 5.53478 0 6 0C6.46522 0 6.92593 0.136904 7.29442 0.4049C7.6607 0.671285 8 1.12596 8 1.72727V4.27273C8 4.87404 7.6607 5.32872 7.29442 5.5951C6.92593 5.8631 6.46522 6 6 6C5.53478 6 5.07407 5.8631 4.70558 5.5951ZM5 4.27273C5 4.67273 5.45 5 6 5C6.55 5 7 4.67273 7 4.27273V1.72727C7 1.32727 6.55 1 6 1C5.45 1 5 1.32727 5 1.72727V4.27273Z" fill="white"/>
<path d="M16 5C15.45 5 15 4.67273 15 4.27273V1.72727C15 1.32727 15.45 1 16 1C16.55 1 17 1.32727 17 1.72727V4.27273C17 4.67273 16.55 5 16 5Z" fill="#C5C5C5"/>
<path fill-rule="evenodd" clip-rule="evenodd" d="M14.7056 5.5951C14.3393 5.32872 14 4.87404 14 4.27273V1.72727C14 1.12596 14.3393 0.671285 14.7056 0.4049C15.0741 0.136904 15.5348 0 16 0C16.4652 0 16.9259 0.136904 17.2944 0.4049C17.6607 0.671285 18 1.12596 18 1.72727V4.27273C18 4.87404 17.6607 5.32872 17.2944 5.5951C16.9259 5.8631 16.4652 6 16 6C15.5348 6 15.0741 5.8631 14.7056 5.5951ZM15 4.27273C15 4.67273 15.45 5 16 5C16.55 5 17 4.67273 17 4.27273V1.72727C17 1.32727 16.55 1 16 1C15.45 1 15 1.32727 15 1.72727V4.27273Z" fill="white"/>
</svg>
