<svg width="208" height="23" viewBox="0 0 208 23" fill="none" xmlns="http://www.w3.org/2000/svg">
<path d="M6.456 7.176C5.256 7.344 2.112 9.312 1.272 9.312C0.96 9.312 0.672 9.024 0.672 8.712C0.672 8.4 0.84 8.208 1.08 8.088C1.44 7.896 1.8 7.728 2.16 7.56C3.12 7.056 5.544 5.736 6.552 5.736C7.296 5.736 7.944 6 7.944 6.84C7.944 6.96 7.944 7.056 7.92 7.152C7.872 7.536 7.848 7.92 7.824 8.328L7.752 9.528C7.68 10.752 7.608 11.952 7.584 13.176C7.584 13.848 7.56 14.496 7.536 15.168C7.536 15.192 7.536 15.192 7.536 15.216C9.384 14.64 11.496 14.088 13.056 14.088C13.32 14.088 13.56 14.304 13.56 14.592C13.56 14.904 13.344 15.072 13.032 15.144C12.432 15.264 11.856 15.312 11.256 15.48C9.408 15.936 7.608 16.608 5.808 17.28C5.472 17.424 5.136 17.592 4.776 17.712C3.624 18.12 2.064 18.48 0.84 18.48C0.528 18.48 0.24 18.192 0.24 17.88C0.24 17.472 0.48 17.28 0.84 17.208C0.912 17.184 0.984 17.184 1.056 17.16L1.488 17.088C1.56 17.064 1.632 17.064 1.704 17.04C2.328 16.944 2.928 16.8 3.552 16.608C4.176 16.44 4.776 16.152 5.376 15.936C5.688 15.816 6.048 15.696 6.408 15.576C6.408 15.288 6.408 15.024 6.384 14.736C6.36 13.704 6.312 12.672 6.312 11.64C6.312 10.272 6.312 8.544 6.456 7.176ZM23.5699 5.4C23.5699 5.64 23.4499 5.784 23.2579 5.904C22.3699 6.432 21.4819 6.936 20.5939 7.464C20.5939 7.488 20.6179 7.536 20.6179 7.56C20.7139 8.52 20.6899 9.504 20.6899 10.464C20.6899 10.848 20.6899 11.232 20.6899 11.592C21.4099 11.544 22.7539 10.392 23.5939 9.888C23.6419 9.36 23.8099 8.856 23.9299 8.352C23.9539 8.208 23.9779 8.088 24.0259 7.944C23.5699 8.304 23.1619 8.688 22.7539 9.096C22.5859 9.216 22.4419 9.312 22.2259 9.312C21.9139 9.312 21.6259 9.024 21.6259 8.712C21.6259 7.968 23.6659 6.504 24.2659 6.024C24.6259 5.736 25.2499 5.16 25.7539 4.824C26.0659 4.56 26.4019 4.368 26.6899 4.368C27.0499 4.368 27.3859 4.68 27.3859 5.04C27.3859 5.328 27.2419 5.544 27.0019 5.712C26.8579 5.832 26.6899 5.928 26.5459 6.048L26.4739 6.096C25.6339 6.984 25.2979 8.52 25.0339 9.6C25.7059 9.096 26.3779 8.544 27.0259 7.992C27.3139 7.728 27.6259 7.44 27.9379 7.2C27.9619 7.176 27.9859 7.176 28.0099 7.152C28.0339 6.12 28.0339 5.112 28.0339 4.08C28.0339 3.528 28.0339 2.952 28.0099 2.4C27.9859 2.016 27.9379 1.608 27.9379 1.224C27.9379 0.839999 28.2499 0.527999 28.6339 0.527999C29.2339 0.527999 29.2819 1.2 29.3299 1.632C29.4499 2.664 29.4979 3.696 29.4979 4.752C29.4979 5.496 29.4739 6.264 29.4259 7.008C30.4339 6.36 31.7059 6.36 32.9059 6.36C33.1939 6.36 33.4579 6.528 33.4579 6.864C33.4579 7.176 33.2659 7.344 32.9539 7.416C31.3939 7.824 30.8419 7.728 29.4259 8.712C29.3779 8.736 29.3539 8.784 29.3059 8.808C29.2579 9.216 29.2099 9.624 29.1619 10.032C29.0899 10.536 29.0419 11.064 28.9459 11.544C28.8979 11.856 28.6819 12.048 28.3939 12.048C28.1299 12.048 27.8899 11.832 27.8899 11.544V11.496C27.9379 10.536 27.9619 9.6 27.9859 8.64C27.0979 9.48 25.7779 10.68 25.2739 10.92C25.0579 11.04 24.7939 11.136 24.5299 11.136C24.3139 11.136 24.1219 11.088 23.9779 10.992C23.3059 11.568 22.4899 12.192 21.7939 12.624C21.3859 12.864 20.8819 12.984 20.4019 12.984C19.0819 12.984 19.2019 11.664 19.2019 10.752C19.2019 9.936 19.2019 9.096 19.2739 8.256C18.7939 8.544 18.3139 8.856 17.8099 9.048C17.7139 9.096 17.6179 9.12 17.5219 9.12C17.2099 9.12 16.9219 8.832 16.9219 8.52C16.9219 8.352 16.9699 8.208 17.0659 8.088C17.1859 7.944 17.3779 7.824 17.5219 7.704C19.0579 6.6 20.7139 5.832 22.4659 5.088C22.6579 5.016 22.8499 4.896 23.0659 4.896C23.3299 4.896 23.5699 5.112 23.5699 5.4ZM24.8419 18.048C24.8419 16.752 25.1299 15.648 25.9219 14.616C26.1619 14.304 26.3299 14.112 26.7619 14.112C27.4339 13.848 28.3939 13.776 28.8019 13.776C29.4979 13.776 30.3139 13.8 30.7459 14.472C30.8659 14.664 30.9379 14.88 30.9379 15.12C30.9379 15.312 30.8899 15.528 30.7939 15.72C30.4099 16.392 28.2259 18.96 27.6259 19.344C27.2419 19.608 26.8339 19.776 26.3779 19.776C25.3459 19.776 24.8419 18.984 24.8419 18.048ZM26.4019 18.336C26.4019 18.336 26.4259 18.336 26.4499 18.336C26.9779 18.336 29.2339 15.672 29.6179 15.144C29.5219 14.952 28.6819 14.952 28.4659 14.952C28.0099 14.952 27.6019 15 27.1699 15.12C27.1459 15.144 27.1459 15.144 27.1219 15.168C26.4499 16.104 26.3299 16.8 26.3299 17.952C26.3299 18.072 26.3299 18.216 26.4019 18.336ZM37.2641 5.256C37.2641 4.56 37.6241 2.52 38.5361 2.52C38.6321 2.52 38.7281 2.544 38.8001 2.592C39.2081 2.328 39.7841 2.184 40.1921 2.184C41.4401 2.184 42.8801 3.504 42.8801 4.776C42.8801 5.136 42.7601 5.448 42.6161 5.76C42.0161 6.984 41.0561 7.92 39.6401 7.92C38.2001 7.92 37.2641 6.624 37.2641 5.256ZM38.8721 3.96C38.7521 4.344 38.6801 4.776 38.6801 5.16C38.6801 5.736 39.0881 6.48 39.7361 6.48C40.5041 6.48 40.9841 5.904 41.3201 5.304C41.3921 5.16 41.5121 4.992 41.5121 4.848C41.5121 4.128 40.6721 3.336 39.9521 3.336C39.7361 3.336 39.5441 3.384 39.3521 3.504C39.2561 3.696 39.0881 3.84 38.8961 3.864C38.8721 3.888 38.8721 3.936 38.8721 3.96ZM47.0321 9.096C46.8401 9.096 46.6721 9.12 46.4801 9.168C45.2321 9.456 43.7681 10.152 42.5681 10.656C40.6001 11.472 38.6321 12.312 36.7121 13.224C35.9681 13.56 35.2721 13.968 34.5281 14.328C34.4081 14.376 34.3121 14.424 34.1681 14.424C33.8561 14.424 33.5681 14.136 33.5681 13.824C33.5681 13.536 33.6881 13.392 33.9041 13.224C34.1201 13.08 34.3601 12.936 34.5761 12.816C37.5761 11.064 40.8401 9.84 44.1041 8.688C44.8721 8.448 46.0721 8.016 46.8401 8.016C47.2721 8.016 48.1361 8.136 48.1361 8.712C48.1361 9.024 47.8961 9.264 47.5841 9.264C47.3681 9.264 47.2241 9.096 47.0321 9.096ZM42.5681 14.184C41.9681 14.448 39.0401 15.912 38.6561 15.912C38.3441 15.912 38.0561 15.624 38.0561 15.312C38.0561 15.024 38.2001 14.856 38.4161 14.712C39.3281 14.136 43.7921 11.88 44.6561 11.88C44.9921 11.88 45.3041 12.168 45.3041 12.528C45.3041 13.032 44.6801 13.416 44.3921 13.752C44.1761 13.992 44.0081 14.232 43.8401 14.472C43.6001 14.832 43.3601 15.192 43.1441 15.552C43.4561 15.456 43.8161 15.336 43.9601 15.336C44.2241 15.336 44.4641 15.552 44.4641 15.84C44.4641 16.104 44.3441 16.224 44.1041 16.344C43.2641 16.776 42.4001 17.136 41.5601 17.544C41.2961 18.192 40.7441 19.44 40.6241 19.776C42.6401 18.84 44.8001 18.096 47.0561 18.096C47.3921 18.096 47.8241 18.144 47.8241 18.6C47.8241 18.936 47.5841 19.104 47.2961 19.152C46.5281 19.248 45.8321 19.248 45.0881 19.464C43.5281 19.92 41.7761 20.616 40.4321 21.504C40.0961 21.72 39.8321 22.08 39.4001 22.08C39.0161 22.08 38.7041 21.768 38.7041 21.384C38.7041 20.712 39.1601 19.512 39.6401 18.48C39.0161 18.768 38.4401 19.008 38.1521 19.008C37.8401 19.008 37.5521 18.72 37.5521 18.408C37.5521 18.096 37.6961 17.928 37.9601 17.784C39.1601 17.136 40.4081 16.536 41.6801 16.056C41.8961 15.504 42.4241 14.448 42.5681 14.184ZM59.4908 7.92C58.5547 7.92 57.8348 7.368 57.2588 6.672C57.1628 6.744 57.0668 6.768 56.9228 6.768C56.3948 6.768 56.3948 6.264 56.3948 5.88C56.3948 4.248 57.2828 1.848 59.2268 1.848C61.0268 1.848 62.0108 3.912 62.0108 5.472C62.0108 6.864 60.8588 7.92 59.4908 7.92ZM57.6908 5.04C58.1948 5.424 58.6028 6.504 59.5388 6.504C60.0428 6.504 60.5228 6.096 60.5228 5.568C60.5228 4.8 60.2828 3.768 59.5628 3.336C59.4188 3.264 59.2747 3.168 59.1068 3.168C58.2908 3.168 57.9068 4.128 57.6908 5.04ZM66.7148 9.288C66.7148 9.624 66.4988 9.792 66.1868 9.84C65.6828 9.936 65.2028 10.008 64.6988 10.152C63.4508 10.512 62.2508 11.04 61.0748 11.616C61.2668 12.672 61.2668 13.776 61.2668 14.856C61.2668 15.912 61.1468 16.944 61.0028 17.976C60.9548 18.36 60.8588 18.768 60.8588 19.152C60.8588 19.56 60.8588 19.992 60.3068 19.992C59.7068 19.992 59.7308 19.152 59.7308 18.72C59.7308 18.288 59.7308 17.88 59.7548 17.448L59.8028 16.608C59.8268 16.176 59.8268 15.768 59.8268 15.336C59.8268 15.144 59.8268 14.928 59.8268 14.736L59.7548 13.584C59.7548 13.392 59.7548 13.176 59.7548 12.984C59.7548 12.768 59.7548 12.528 59.7548 12.288C58.6508 12.84 57.5708 13.416 56.4428 13.92C55.5308 14.328 54.0428 15.024 53.0588 15.024C52.7468 15.024 52.4588 14.76 52.4588 14.424C52.4588 14.184 52.5788 13.992 52.7708 13.848C52.9628 13.728 53.4188 13.656 53.6588 13.584C54.3068 13.368 54.9308 13.08 55.5548 12.792C58.4108 11.496 63.1388 8.784 66.2108 8.784C66.4748 8.784 66.7148 9.024 66.7148 9.288ZM76.4584 5.856C76.4584 5.16 76.3624 4.488 76.2424 3.792C76.2424 3.768 76.2424 3.72 76.2424 3.696C76.2424 3.312 76.5544 3 76.9384 3C77.2504 3 77.4424 3.216 77.5384 3.504C77.8264 4.392 77.8984 5.448 77.8984 6.384C77.8984 8.352 77.5384 10.296 77.2264 12.24C77.0104 13.536 76.8184 14.856 76.6264 16.152C76.5544 16.752 76.5064 17.472 76.3624 18.024C76.2904 18.336 76.1224 18.528 75.8104 18.528C75.5464 18.528 75.3064 18.312 75.3064 18.024V17.976C75.4024 16.344 75.5464 14.712 75.7384 13.104C76.0024 10.68 76.4584 8.304 76.4584 5.856ZM70.9864 5.688C69.5464 6.36 68.5864 6.816 66.9544 6.816C66.6424 6.816 66.3544 6.528 66.3544 6.216C66.3544 5.808 66.6424 5.568 67.0264 5.52C67.6984 5.448 68.3224 5.328 68.9464 5.064C69.3544 4.92 69.7384 4.704 70.1224 4.512C70.5304 4.344 70.9144 4.176 71.2984 3.96C71.5864 3.84 71.8264 3.624 72.1144 3.504C72.2104 3.456 72.3304 3.432 72.4504 3.432C72.8344 3.432 73.1464 3.768 73.1464 4.152C73.1464 4.344 73.0744 4.512 73.0024 4.68C72.7384 5.28 72.3784 5.856 72.0904 6.432C71.8264 6.936 71.5864 7.464 71.3704 7.992C71.8264 7.728 72.2584 7.392 72.7384 7.2C72.8584 7.152 72.9544 7.128 73.0744 7.128C73.4344 7.128 73.7464 7.44 73.7464 7.8C73.7464 8.328 73.3144 8.496 72.9544 8.76C71.1544 10.032 70.2424 11.064 69.4024 13.104C69.3544 13.2 69.3064 13.296 69.2584 13.392H69.2824C70.6744 12.744 72.0184 11.976 73.3384 11.208L74.9704 10.272C75.0664 10.224 75.1624 10.2 75.2584 10.2C75.5224 10.2 75.7624 10.416 75.7624 10.704C75.7624 10.92 75.6664 11.064 75.4984 11.184C75.0184 11.496 74.5144 11.784 74.0104 12.096C72.9784 12.72 71.9464 13.368 70.9144 13.968C70.5304 14.208 70.1464 14.424 69.7384 14.592C69.5224 14.688 69.2824 14.76 69.0424 14.76C68.3464 14.76 67.8664 14.232 67.8664 13.536C67.8664 13.032 68.4904 11.592 68.7544 11.136C68.4424 11.304 68.1304 11.64 67.7464 11.64C67.4344 11.64 67.1464 11.352 67.1464 11.04C67.1464 10.584 67.5064 10.416 67.8184 10.2C68.4424 9.768 69.0664 9.36 69.7144 8.976C70.0504 7.944 70.7944 6.12 70.9864 5.688ZM91.8193 10.488C91.8193 7.848 91.7233 5.232 91.3873 2.616C91.3873 2.592 91.3873 2.568 91.3873 2.544C91.3873 2.16 91.6993 1.848 92.0833 1.848C92.4193 1.848 92.5873 2.064 92.6833 2.376C92.7793 2.664 92.8273 3.024 92.8753 3.336C93.1873 5.208 93.2353 7.104 93.2353 8.976C93.2353 10.824 93.0673 12.624 92.8753 14.448C92.8273 14.928 92.7553 16.032 92.6593 16.416C92.5873 16.728 92.4433 16.944 92.1073 16.944C91.8433 16.944 91.6033 16.728 91.6033 16.44C91.6033 14.448 91.8193 12.48 91.8193 10.488ZM80.0353 12.864C80.0353 11.184 80.3953 9.672 81.4033 8.304C81.6433 7.968 81.8833 7.536 82.3393 7.536C82.5073 7.536 82.6753 7.608 82.7953 7.752C83.6593 7.752 84.5473 8.112 85.1233 8.784C86.0833 7.992 87.9793 6.552 88.9153 6.288C88.9153 5.472 88.8193 4.656 88.7233 3.84C88.7233 3.816 88.7233 3.792 88.7233 3.768C88.7233 3.384 89.0353 3.072 89.4193 3.072C89.7313 3.072 89.9473 3.288 90.0193 3.6C90.3073 4.608 90.3793 5.688 90.3793 6.744C90.3793 7.44 90.2833 8.112 90.1873 8.784C89.9953 10.272 89.6833 11.712 89.4433 13.176C89.4193 13.344 89.3953 13.536 89.3713 13.704L89.2273 14.736C89.2033 14.904 89.1793 15.096 89.1553 15.264C89.1073 15.576 88.9153 15.792 88.6033 15.792C88.3393 15.792 88.0993 15.576 88.0993 15.288C88.0993 13.488 88.3633 11.616 88.6033 9.816C88.6753 9.168 88.7713 8.496 88.8433 7.824C87.9553 8.352 86.4913 9.384 85.6513 9.792C85.6993 10.008 85.6993 10.224 85.6993 10.464C85.6993 11.304 85.2673 12.288 84.6433 12.864C83.8753 13.584 82.5553 14.424 81.4513 14.424C80.5153 14.424 80.0353 13.752 80.0353 12.864ZM81.5473 12.984C81.9313 12.984 82.4353 12.744 82.7713 12.576C83.7073 12.048 84.4273 11.4 84.4273 10.248C84.4273 9.336 83.4673 8.88 82.7233 8.808C82.6993 8.808 82.6753 8.808 82.6513 8.808C81.8833 10.08 81.5233 10.92 81.5233 12.552C81.5233 12.696 81.5233 12.84 81.5473 12.984ZM106.667 10.488C106.667 7.848 106.571 5.232 106.235 2.616C106.235 2.592 106.235 2.568 106.235 2.544C106.235 2.16 106.547 1.848 106.931 1.848C107.267 1.848 107.435 2.064 107.531 2.376C107.627 2.664 107.675 3.024 107.723 3.336C108.035 5.208 108.083 7.104 108.083 8.976C108.083 10.824 107.915 12.624 107.723 14.448C107.675 14.928 107.603 16.032 107.507 16.416C107.435 16.728 107.291 16.944 106.955 16.944C106.691 16.944 106.451 16.728 106.451 16.44C106.451 14.448 106.667 12.48 106.667 10.488ZM99.7554 6.432C99.1314 6.744 95.4834 8.592 95.1234 8.592C94.8114 8.592 94.5234 8.304 94.5234 7.992C94.5234 7.704 94.6674 7.536 94.8834 7.392C95.2434 7.176 95.6274 6.984 95.9874 6.792C96.8274 6.336 97.6914 5.904 98.5314 5.472C99.0594 5.208 99.6114 4.872 100.163 4.656C100.331 4.608 100.475 4.56 100.667 4.56C101.123 4.56 101.483 4.944 101.483 5.4C101.483 5.76 101.147 6.912 100.715 8.184C101.723 7.416 103.019 6.48 103.763 6.288C103.763 5.472 103.667 4.656 103.571 3.84C103.571 3.816 103.571 3.792 103.571 3.768C103.571 3.384 103.883 3.072 104.267 3.072C104.579 3.072 104.795 3.288 104.867 3.6C105.155 4.608 105.227 5.688 105.227 6.744C105.227 7.44 105.131 8.112 105.035 8.784C104.843 10.272 104.531 11.712 104.291 13.176C104.267 13.344 104.243 13.536 104.219 13.704L104.075 14.736C104.051 14.904 104.027 15.096 104.003 15.264C103.955 15.576 103.763 15.792 103.451 15.792C103.187 15.792 102.947 15.576 102.947 15.288C102.947 13.488 103.211 11.616 103.451 9.816C103.523 9.168 103.619 8.496 103.691 7.824C102.659 8.448 100.811 9.744 100.115 9.936C99.7554 10.944 99.4434 11.832 99.2994 12.24C98.9634 13.224 98.6034 14.184 98.3634 15.192C98.2914 15.576 98.2434 15.936 98.1714 16.296C98.1234 16.608 97.9314 16.824 97.6194 16.824C97.3554 16.824 97.1154 16.608 97.1154 16.32C97.1154 14.976 97.6674 13.368 98.0274 12.072C98.5794 10.176 99.2514 8.328 99.7554 6.432ZM120.163 3.96C119.179 4.344 117.427 4.968 116.395 4.968C116.083 4.968 115.795 4.68 115.795 4.368C115.795 3.624 116.587 3.672 117.115 3.552C118.051 3.288 119.011 2.928 119.923 2.544C120.187 2.424 120.427 2.28 120.715 2.184C120.955 2.088 121.171 2.04 121.435 2.04C121.891 2.04 122.299 2.376 122.299 2.856C122.299 3.72 121.051 5.064 120.523 5.76C120.331 6 120.163 6.264 119.995 6.504C120.571 6.504 121.171 6.48 121.747 6.408C122.395 6.312 123.499 5.688 124.027 5.688C124.291 5.688 124.531 5.904 124.531 6.192C124.531 6.432 124.411 6.576 124.195 6.696C123.619 7.008 122.539 7.632 121.939 7.776C121.411 7.896 120.883 7.944 120.355 7.944C119.947 7.944 119.515 7.92 119.083 7.848C118.771 8.328 118.459 8.832 118.195 9.336C117.979 9.696 117.835 10.08 117.643 10.44C117.523 10.656 117.355 10.8 117.115 10.8C116.851 10.8 116.611 10.584 116.611 10.296C116.611 10.08 116.731 9.816 116.827 9.6C117.715 7.608 118.867 5.736 120.163 3.96ZM127.723 9.288C127.723 9.624 127.507 9.768 127.195 9.84C126.691 9.936 126.211 10.008 125.707 10.152C124.459 10.536 123.259 11.04 122.083 11.616C122.275 12.696 122.275 13.776 122.275 14.856C122.275 15.912 122.155 16.944 122.011 17.976C121.939 18.36 121.867 18.768 121.867 19.152C121.867 19.56 121.867 19.992 121.315 19.992C120.691 19.992 120.739 19.152 120.739 18.72C120.739 18.288 120.739 17.88 120.763 17.448L120.811 16.608C120.835 16.176 120.835 15.768 120.835 15.336C120.835 14.568 120.763 13.776 120.763 12.984C120.763 12.768 120.763 12.528 120.763 12.288C119.659 12.84 118.579 13.416 117.451 13.92C116.539 14.328 115.051 15.024 114.067 15.024C113.755 15.024 113.467 14.736 113.467 14.424C113.467 14.184 113.587 13.992 113.779 13.848C113.971 13.704 114.427 13.656 114.667 13.584C115.315 13.368 115.939 13.08 116.563 12.792C119.419 11.496 124.147 8.784 127.219 8.784C127.483 8.784 127.723 9 127.723 9.288ZM136.458 5.856C136.458 5.16 136.362 4.488 136.242 3.792C136.242 3.768 136.242 3.72 136.242 3.696C136.242 3.312 136.554 3 136.938 3C137.25 3 137.442 3.216 137.538 3.504C137.826 4.392 137.898 5.448 137.898 6.384C137.898 8.352 137.538 10.296 137.226 12.24C137.01 13.536 136.818 14.856 136.626 16.152C136.554 16.752 136.506 17.472 136.362 18.024C136.29 18.336 136.122 18.528 135.81 18.528C135.546 18.528 135.306 18.312 135.306 18.024V17.976C135.402 16.344 135.546 14.712 135.738 13.104C136.002 10.68 136.458 8.304 136.458 5.856ZM127.242 15.168C127.242 15.12 127.242 15.048 127.266 14.976C127.578 13.992 127.89 12.984 128.274 12.024V12C128.922 10.608 129.642 9.264 130.386 7.92C130.674 7.368 130.962 6.816 131.298 6.264C131.442 6.024 131.634 5.88 131.922 5.88C132.234 5.88 132.522 6.168 132.522 6.48C132.522 6.96 131.538 8.808 130.674 10.368C131.13 11.04 131.634 11.688 132.114 12.336C132.186 12.456 132.258 12.552 132.258 12.696C132.258 13.008 132.018 13.248 131.706 13.248C131.562 13.248 131.466 13.176 131.346 13.104C130.77 12.72 130.242 12.312 129.858 11.832C129.69 12.12 129.57 12.36 129.498 12.528C129.042 13.44 128.73 14.4 128.274 15.312C128.154 15.528 127.986 15.672 127.746 15.672C127.482 15.672 127.242 15.456 127.242 15.168ZM149.419 5.856C149.419 5.16 149.323 4.488 149.203 3.792C149.203 3.768 149.203 3.72 149.203 3.696C149.203 3.312 149.515 3 149.899 3C150.211 3 150.403 3.216 150.499 3.504C150.787 4.392 150.859 5.448 150.859 6.384C150.859 8.352 150.499 10.296 150.187 12.24C149.971 13.536 149.779 14.856 149.587 16.152C149.515 16.752 149.467 17.472 149.323 18.024C149.251 18.336 149.083 18.528 148.771 18.528C148.507 18.528 148.267 18.312 148.267 18.024V17.976C148.363 16.344 148.507 14.712 148.699 13.104C148.963 10.68 149.419 8.304 149.419 5.856ZM143.947 5.688C142.507 6.36 141.547 6.816 139.915 6.816C139.603 6.816 139.315 6.528 139.315 6.216C139.315 5.808 139.603 5.568 139.987 5.52C140.659 5.448 141.283 5.328 141.907 5.064C142.315 4.92 142.699 4.704 143.083 4.512C143.491 4.344 143.875 4.176 144.259 3.96C144.547 3.84 144.787 3.624 145.075 3.504C145.171 3.456 145.291 3.432 145.411 3.432C145.795 3.432 146.107 3.768 146.107 4.152C146.107 4.344 146.035 4.512 145.963 4.68C145.699 5.28 145.339 5.856 145.051 6.432C144.787 6.936 144.547 7.464 144.331 7.992C144.787 7.728 145.219 7.392 145.699 7.2C145.819 7.152 145.915 7.128 146.035 7.128C146.395 7.128 146.707 7.44 146.707 7.8C146.707 8.328 146.275 8.496 145.915 8.76C144.115 10.032 143.203 11.064 142.363 13.104C142.315 13.2 142.267 13.296 142.219 13.392H142.243C143.635 12.744 144.979 11.976 146.299 11.208L147.931 10.272C148.027 10.224 148.123 10.2 148.219 10.2C148.483 10.2 148.723 10.416 148.723 10.704C148.723 10.92 148.627 11.064 148.459 11.184C147.979 11.496 147.475 11.784 146.971 12.096C145.939 12.72 144.907 13.368 143.875 13.968C143.491 14.208 143.107 14.424 142.699 14.592C142.483 14.688 142.243 14.76 142.003 14.76C141.307 14.76 140.827 14.232 140.827 13.536C140.827 13.032 141.451 11.592 141.715 11.136C141.403 11.304 141.091 11.64 140.707 11.64C140.395 11.64 140.107 11.352 140.107 11.04C140.107 10.584 140.467 10.416 140.779 10.2C141.403 9.768 142.027 9.36 142.675 8.976C143.011 7.944 143.755 6.12 143.947 5.688ZM156.908 5.688C155.468 6.36 154.508 6.816 152.876 6.816C152.564 6.816 152.276 6.528 152.276 6.216C152.276 5.808 152.564 5.568 152.948 5.52C153.62 5.448 154.244 5.328 154.868 5.064C155.276 4.92 155.66 4.704 156.044 4.512C156.452 4.344 156.836 4.176 157.22 3.96C157.508 3.84 157.748 3.624 158.036 3.504C158.132 3.456 158.252 3.432 158.372 3.432C158.756 3.432 159.068 3.768 159.068 4.152C159.068 4.344 158.996 4.512 158.924 4.68C158.66 5.28 158.3 5.856 158.012 6.432C157.748 6.936 157.508 7.464 157.292 7.992C157.748 7.728 158.18 7.392 158.66 7.2C158.78 7.152 158.876 7.128 158.996 7.128C159.356 7.128 159.668 7.44 159.668 7.8C159.668 8.328 159.236 8.496 158.876 8.76C157.076 10.032 156.164 11.064 155.324 13.104C155.276 13.2 155.228 13.296 155.18 13.392H155.204C156.596 12.744 157.94 11.976 159.26 11.208L160.892 10.272C160.916 9.168 160.94 8.088 160.988 7.008C161.012 6.36 161.036 5.736 161.084 5.112C161.084 4.848 161.084 4.56 161.132 4.32C161.18 3.936 161.396 3.648 161.828 3.648C162.38 3.648 162.452 4.2 162.452 4.632C162.452 4.824 162.428 5.04 162.428 5.256C162.428 6.984 162.404 8.736 162.332 10.464C163.268 9.912 164.348 9.672 165.428 9.528C165.62 9.504 165.812 9.48 166.004 9.48C166.268 9.48 166.508 9.696 166.508 9.984C166.508 10.272 166.34 10.44 166.052 10.512C164.732 10.968 163.508 11.376 162.26 12.024C162.236 12.648 162.212 13.272 162.188 13.872L162.044 16.752C162.044 17.136 162.068 17.616 161.996 18C161.948 18.312 161.78 18.528 161.444 18.528C161.108 18.528 160.964 18.288 160.94 18C160.868 17.544 160.892 16.968 160.892 16.488C160.868 15.192 160.868 13.92 160.868 12.648C160.868 12.264 160.868 11.904 160.868 11.52C160.556 11.712 160.244 11.904 159.932 12.096C158.9 12.72 157.868 13.368 156.836 13.968C156.452 14.208 156.068 14.424 155.66 14.592C155.444 14.688 155.204 14.76 154.964 14.76C154.268 14.76 153.788 14.232 153.788 13.536C153.788 13.032 154.412 11.592 154.676 11.136C154.364 11.304 154.052 11.64 153.668 11.64C153.356 11.64 153.068 11.352 153.068 11.04C153.068 10.584 153.428 10.416 153.74 10.2C154.364 9.768 154.988 9.36 155.636 8.976C155.972 7.944 156.716 6.12 156.908 5.688ZM169.839 3.36C169.839 3.336 169.839 3.312 169.839 3.288L169.815 3.144C169.815 3.12 169.815 3.096 169.815 3.072C169.839 2.664 170.103 2.376 170.511 2.376C171.135 2.376 171.183 3.12 171.183 3.6C171.183 4.224 170.967 4.848 170.847 5.448C170.583 6.72 170.439 8.016 170.247 9.312C170.031 10.728 169.791 12.144 169.791 13.584C169.791 13.776 169.863 13.992 169.863 14.208C169.863 14.52 169.623 14.76 169.311 14.76C168.639 14.76 168.639 13.488 168.639 13.056C168.639 10.68 168.879 8.232 169.287 5.904C169.431 5.064 169.839 4.2 169.839 3.36ZM168.303 18.672C168.303 18.24 168.639 17.688 169.119 17.688C169.191 17.688 169.287 17.688 169.359 17.736C169.407 17.712 169.479 17.712 169.551 17.712C169.911 17.712 170.343 18.192 170.343 18.528C170.343 19.152 169.887 19.632 169.287 19.632C168.735 19.632 168.303 19.248 168.303 18.672ZM187.228 12.896C187.228 12.256 187.26 11.6 187.292 10.944C187.34 9.616 187.356 8.256 187.644 6.944C187.692 6.704 187.852 6.544 188.108 6.544C188.316 6.544 188.508 6.736 188.508 6.944C188.508 7.584 188.428 8.24 188.364 8.864C188.316 9.568 188.268 10.272 188.188 10.96C188.124 11.584 188.06 12.272 187.932 12.88C187.9 13.088 187.772 13.232 187.564 13.232C187.388 13.232 187.228 13.088 187.228 12.896ZM182.124 13.664C182.14 13.616 182.156 13.568 182.188 13.52C181.276 12.848 180.54 11.84 179.98 10.864C179.948 10.784 179.916 10.72 179.916 10.64C179.916 10.384 180.124 10.176 180.38 10.176C180.524 10.176 180.62 10.256 180.716 10.352C180.892 10.576 181.068 10.8 181.228 11.024C182.076 10.48 183.084 9.856 183.98 9.472C184.108 9.408 184.252 9.376 184.396 9.376C184.78 9.376 185.004 9.712 185.004 10.08C185.004 10.368 184.876 10.688 184.764 10.96C184.908 10.848 185.084 10.704 185.26 10.704C185.436 10.704 185.596 10.848 185.596 11.04C185.596 11.168 185.548 11.264 185.436 11.344C184.396 12.16 183.756 13.2 182.844 14.128C182.748 14.224 182.636 14.272 182.492 14.272C182.268 14.272 182.076 14.096 182.076 13.872C182.076 13.792 182.092 13.728 182.124 13.664ZM183.9 10.56C183.164 10.944 182.46 11.36 181.74 11.728C182.028 12.112 182.316 12.48 182.652 12.816C183.116 12.096 183.596 11.36 183.9 10.56ZM184.38 19.008C183.676 19.008 183.404 18.4 183.276 17.808C183.132 17.104 182.988 16.416 182.796 15.744C182.78 15.696 182.78 15.664 182.78 15.632C182.78 15.376 182.988 15.168 183.244 15.168C183.436 15.168 183.564 15.296 183.628 15.456C183.82 15.904 183.948 16.384 184.06 16.864C184.124 17.104 184.268 17.904 184.428 18.048C184.684 18 185.612 17.456 185.916 17.296C186.364 17.056 189.58 15.472 189.82 15.472C189.996 15.472 190.156 15.616 190.156 15.808C190.156 15.952 190.092 16.048 189.964 16.128C189.628 16.336 189.26 16.512 188.924 16.688L186.732 17.872C186.236 18.144 185.164 18.848 184.684 18.976C184.588 18.992 184.492 19.008 184.38 19.008ZM190.327 14.704C190.327 13.424 190.375 12.16 190.487 10.88C190.535 10.368 190.551 9.824 190.647 9.312C190.695 9.072 190.855 8.896 191.111 8.896C191.319 8.896 191.511 9.072 191.511 9.296V9.344C191.463 10.656 191.383 11.968 191.319 13.28C191.271 14.208 191.223 15.136 191.223 16.064C191.223 16.672 191.335 17.264 191.335 17.872V17.92C191.335 18.128 191.175 18.288 190.967 18.288C190.775 18.288 190.679 18.16 190.631 18C190.599 17.872 190.567 17.728 190.551 17.6C190.391 16.64 190.327 15.664 190.327 14.704ZM192.797 14.112C192.797 13.952 192.877 13.808 192.941 13.664C193.229 13.104 194.301 12.112 194.765 11.584C195.245 11.056 195.709 10.496 196.157 9.952C196.381 9.68 196.605 9.376 196.845 9.12C196.957 9.008 197.053 8.944 197.213 8.944C197.341 8.944 197.453 9.008 197.533 9.104C197.677 9.168 197.789 9.296 197.789 9.472V9.536C197.693 10.944 197.517 12.352 197.309 13.744C197.613 13.744 197.917 13.728 198.237 13.728C198.413 13.728 198.573 13.888 198.573 14.064C198.573 14.272 198.413 14.4 198.221 14.432C197.917 14.48 197.613 14.48 197.309 14.496C197.277 14.496 197.229 14.496 197.197 14.496C197.181 14.592 197.165 14.688 197.149 14.784C197.037 15.504 196.909 16.208 196.813 16.928C196.765 17.28 196.749 17.648 196.685 18C196.653 18.208 196.541 18.352 196.317 18.352C196.141 18.352 195.981 18.192 195.981 18.016C195.981 16.896 196.141 15.712 196.253 14.592C195.885 14.608 195.501 14.624 195.133 14.656C194.637 14.688 194.157 14.768 193.661 14.768C193.245 14.768 192.797 14.608 192.797 14.112ZM193.933 13.856C194.733 13.824 195.533 13.792 196.333 13.76C196.429 12.88 196.541 12 196.669 11.12C196.685 10.992 196.701 10.864 196.717 10.72C196.317 11.232 195.885 11.744 195.501 12.192C195.005 12.768 194.429 13.264 193.933 13.856ZM199.527 10.32C199.527 10.032 199.751 9.664 200.071 9.664C200.119 9.664 200.183 9.664 200.231 9.696C200.263 9.68 200.311 9.68 200.359 9.68C200.599 9.68 200.887 10 200.887 10.224C200.887 10.64 200.583 10.96 200.183 10.96C199.815 10.96 199.527 10.704 199.527 10.32ZM199.687 15.984C199.687 15.68 199.911 15.232 200.263 15.232C200.311 15.232 200.375 15.248 200.423 15.28C200.471 15.264 200.519 15.248 200.551 15.248C200.839 15.248 201.143 15.712 201.143 15.968C201.143 16.4 200.823 16.72 200.391 16.72C199.975 16.72 199.687 16.384 199.687 15.984ZM202.33 13.44C202.33 12.048 202.97 10.528 203.834 9.44C203.962 9.264 204.138 9.04 204.378 9.008C204.618 8.864 204.938 8.8 205.13 8.8C205.418 8.8 205.674 8.912 205.93 9.04C206.842 9.472 207.082 10.416 207.082 11.344C207.082 11.696 207.05 12.112 206.906 12.448C206.65 13.056 205.962 13.904 205.466 14.4C206.218 14.752 207.162 15.472 207.162 16.384C207.162 17.28 206.682 17.936 205.85 18.256C205.53 18.384 205.194 18.48 204.842 18.48C203.914 18.48 203.338 17.776 203.338 16.88C203.338 16.368 203.546 15.744 203.802 15.2C203.562 15.2 203.338 15.168 203.114 15.072C202.33 14.768 202.33 14.16 202.33 13.44ZM203.562 14.192C203.642 14.224 203.738 14.24 203.818 14.24C204.442 14.24 204.954 13.632 205.322 13.2C205.61 12.88 205.898 12.544 206.074 12.144C206.186 11.872 206.218 11.52 206.218 11.216C206.218 10.56 206.122 10.016 205.482 9.68C205.322 9.6 205.178 9.52 205.002 9.52C204.922 9.52 204.874 9.552 204.81 9.584C204.794 9.632 204.762 9.664 204.73 9.712C204.538 9.968 204.346 10.176 204.186 10.448C203.722 11.232 203.322 12.48 203.322 13.392C203.322 13.552 203.322 13.696 203.338 13.856C203.354 14.096 203.322 14.128 203.562 14.192ZM204.922 14.992C204.698 15.488 204.314 16.208 204.314 16.816C204.314 17.2 204.506 17.536 204.922 17.536C205.562 17.536 206.282 17.136 206.282 16.416C206.282 15.776 205.482 15.28 204.922 14.992Z" fill="white"/>
</svg>
