<svg width="190" height="21" viewBox="0 0 190 21" fill="none" xmlns="http://www.w3.org/2000/svg">
<path d="M136.634 5.01377C136.713 4.43006 136.501 3.7933 136.448 3.13C136.448 2.99734 136.395 2.86468 136.316 2.75855C136.13 2.4667 136.13 2.14832 136.156 1.8034C136.183 1.40542 136.395 1.16664 136.767 1.08704C137.111 1.00744 137.43 1.00744 137.775 1.08704C137.934 1.11357 138.067 1.2197 138.146 1.37889C138.332 1.67074 138.518 1.93606 138.677 2.25445C138.889 2.70549 139.048 3.15653 138.916 3.66064C138.756 4.27087 138.783 4.90764 138.836 5.51787C138.863 5.73013 138.863 5.96891 138.783 6.18117C138.703 6.44649 138.703 6.71181 138.863 6.92406C139.128 7.32204 139.128 7.72002 138.969 8.118C138.624 8.88743 138.73 9.68338 138.677 10.4793C138.65 10.7977 138.677 11.1426 138.597 11.4345C138.544 11.6202 138.518 11.7794 138.597 11.9651C138.624 12.0713 138.624 12.1774 138.597 12.2835C138.571 12.7611 138.544 13.2387 138.597 13.7428C138.677 14.3795 138.756 15.0428 138.571 15.6796C138.518 15.8388 138.624 16.051 138.624 16.2368C138.597 16.7409 138.65 17.2184 138.783 17.696C138.889 18.0409 138.863 18.0675 138.518 18.2532C138.04 18.5185 137.563 18.5185 137.058 18.3328C137.005 18.3063 136.926 18.2797 136.926 18.2267C136.846 17.7756 136.448 17.4572 136.501 16.9266C136.554 16.5817 136.528 16.2102 136.395 15.8653C136.369 15.8123 136.369 15.7857 136.369 15.7327C136.448 15.1224 136.369 14.4857 136.475 13.8754C136.581 13.0795 136.554 12.31 136.528 11.5141C136.528 11.4876 136.528 11.4876 136.528 11.461C136.475 11.2753 136.448 11.063 136.236 10.9834C136.024 10.9039 135.891 11.0896 135.758 11.2488C135.732 11.2753 135.705 11.3284 135.679 11.3549C135.228 12.1509 134.591 12.7876 133.875 13.3713C133.689 13.5305 133.53 13.7428 133.344 13.9285C133.185 14.1142 132.999 14.2734 132.787 14.3795C132.468 14.5122 132.203 14.7244 131.964 14.9898C131.832 15.149 131.672 15.2551 131.487 15.3347C131.115 15.5204 130.717 15.6796 130.346 15.8653C129.683 16.1837 128.648 15.6796 128.542 14.9367C128.515 14.6714 128.356 14.4326 128.223 14.1938C127.931 13.6366 127.799 13.0264 127.693 12.4162C127.613 11.9386 127.48 11.4876 127.215 11.0896C127.162 11.01 127.109 10.9039 127.109 10.7977C127.056 10.1079 126.844 9.47113 126.737 8.7813C126.684 8.38332 126.764 8.25066 127.135 8.33026C127.666 8.43638 128.223 8.46291 128.727 8.7017C128.94 8.80783 129.205 8.7813 129.417 8.75477C129.736 8.7017 130.027 8.59557 130.319 8.51598C130.478 8.46291 130.611 8.35679 130.585 8.1976C130.585 7.90574 130.691 7.64043 130.797 7.37511C130.823 7.26898 130.876 7.16285 130.77 7.08326C130.691 7.03019 130.611 7.08325 130.532 7.13632C130.505 7.16285 130.478 7.16285 130.452 7.18938C129.789 7.56083 129.178 7.50777 128.595 7.00366C128.382 6.81794 128.223 6.63221 128.064 6.39343C127.878 6.10157 127.931 5.80972 128.038 5.5444C128.117 5.33215 128.303 5.22602 128.542 5.22602C128.993 5.22602 129.364 5.0403 129.709 4.74845C129.974 4.53619 130.319 4.43006 130.638 4.32394C130.797 4.27087 130.983 4.21781 131.115 4.11168C131.407 3.87289 131.752 3.92596 132.097 3.89942C132.203 3.89942 132.309 3.92596 132.389 4.00555C132.548 4.16474 132.707 4.24434 132.946 4.16474C133.079 4.11168 133.132 4.19128 133.185 4.2974C133.317 4.66885 133.583 4.9607 133.928 5.14642C134.14 5.27908 134.193 5.51787 134.299 5.73013C134.405 5.99545 134.273 6.15464 134.14 6.34036C134.034 6.49955 133.954 6.65874 133.848 6.7914C133.636 7.00366 133.45 7.24245 133.53 7.58736C133.556 7.72002 133.477 7.82615 133.397 7.95881C133.185 8.43638 132.866 8.88743 132.707 9.39153C132.601 9.73645 132.283 9.86911 131.964 9.97523C131.328 10.161 130.691 10.3467 130.081 10.6385C129.656 10.8508 129.576 10.9304 129.683 11.3814C129.789 11.9121 129.736 12.4427 129.868 12.9733C129.921 13.2387 130.081 13.3979 130.24 13.557C130.399 13.6897 130.585 13.7162 130.77 13.6101C131.221 13.3713 131.646 13.106 132.044 12.7876C132.734 12.2304 133.344 11.6202 133.901 10.9304C134.326 10.4263 134.856 10.0018 135.334 9.55072C135.864 9.04662 136.342 8.51598 136.342 7.69349C136.342 7.18938 136.448 6.65874 136.501 6.15464C136.634 5.83626 136.66 5.46481 136.634 5.01377Z" fill="white"/>
<path d="M107.24 4.05938C107.161 3.52875 107.055 2.99811 106.948 2.46747C106.816 1.9103 106.55 1.37966 106.365 0.849022C106.179 0.344915 106.232 0.291851 106.736 0.106128C107.081 -0.0265319 107.373 -0.0530638 107.691 0.13266C107.797 0.212255 107.957 0.212255 108.089 0.238787C108.222 0.265319 108.381 0.291851 108.461 0.397979C108.673 0.68983 108.965 0.82249 109.257 1.00821C109.389 1.08781 109.496 1.19394 109.522 1.35313C109.549 1.51232 109.628 1.67151 109.708 1.80417C109.734 1.85723 109.787 1.93683 109.787 2.01643C109.734 2.73279 109.973 3.44915 109.973 4.16551C109.973 4.93494 110.053 5.70436 110.132 6.47379C110.159 6.73911 110.185 6.9779 110 7.19015C109.92 7.29628 109.92 7.40241 109.92 7.53507C109.973 8.11877 110.026 8.67594 110.106 9.25964C110.159 9.73722 110.238 10.1883 110.132 10.6658C110.053 10.9842 110.026 11.2495 109.734 11.4353C109.496 11.5944 109.496 11.674 109.761 11.8332C110.159 12.072 110.212 12.4169 110.238 12.8149C110.371 14.1415 110.451 15.4681 110.769 16.7682C110.849 17.0335 110.928 17.3253 111.034 17.5641C111.114 17.7764 111.087 17.9356 110.955 18.0948C110.849 18.2009 110.743 18.3336 110.796 18.4928C110.875 18.7581 110.769 18.9173 110.583 19.0765C110.398 19.2356 110.159 19.2622 109.947 19.2091C109.734 19.156 109.522 19.103 109.31 19.103C109.151 19.103 109.018 18.9969 108.885 18.8907C108.647 18.6785 108.461 18.4397 108.275 18.1744C108.195 18.0417 108.116 17.9356 107.957 17.8825C107.744 17.8029 107.612 17.909 107.585 18.1213C107.585 18.2009 107.585 18.2805 107.585 18.3336C107.559 18.705 107.373 18.9969 107.028 19.103C106.63 19.2356 106.232 18.9969 106.206 18.5458C106.126 17.7764 105.861 17.06 105.542 16.3437C105.41 16.0783 105.383 15.76 105.383 15.4681C105.383 15.1763 105.224 14.964 105.065 14.7517C104.906 14.5395 104.693 14.5926 104.561 14.8313C104.481 14.964 104.481 15.1232 104.454 15.2559C104.348 16.1845 103.34 16.8212 102.597 16.6355C102.014 16.5029 101.536 16.6355 101.165 17.0866C101.058 17.2192 100.979 17.3519 101.032 17.5376C101.085 17.7499 101.058 17.9621 101.032 18.2009C100.952 18.705 101.297 18.9969 101.775 18.8642C102.04 18.7846 102.305 18.7315 102.571 18.705C102.995 18.6519 103.42 18.5458 103.712 18.2009C103.844 18.0417 104.003 17.9621 104.216 17.9886C104.348 18.0152 104.454 17.9886 104.561 17.9356C104.693 17.8825 104.852 17.8825 105.012 17.909C105.303 17.9621 105.383 18.1478 105.277 18.4397C105.118 18.8907 104.799 19.156 104.322 19.2887C103.552 19.501 102.756 19.6336 102.067 20.0847C101.907 20.1908 101.695 20.2704 101.483 20.3235C101.218 20.403 100.979 20.35 100.713 20.2173C99.891 19.7397 99.4134 19.0234 99.1216 18.1478C99.095 18.0417 99.0154 17.9356 98.9624 17.8295C98.7236 17.4845 98.7236 17.06 98.6705 16.6886C98.644 16.4763 98.8297 16.3171 99.0154 16.2906C99.3073 16.2375 99.6257 16.1049 99.944 16.211C100.183 16.2906 100.422 16.1579 100.634 16.1314C101.111 16.0783 101.562 15.9987 102.04 15.9192C102.624 15.8396 102.836 15.2559 102.518 14.7783C102.438 14.6722 102.332 14.6191 102.199 14.6456C101.801 14.7517 101.377 14.6987 100.979 14.9375C100.82 15.0171 100.66 15.0171 100.501 14.964C99.9175 14.6987 99.5195 14.115 99.4665 13.4252C99.4665 13.319 99.5195 13.2129 99.6257 13.1864C99.8379 13.1333 100.05 13.0802 100.289 13.1598C100.713 13.3456 101.138 13.3456 101.589 13.266C102.067 13.1598 102.571 13.1598 103.075 13.0272C103.393 12.9476 103.791 12.8945 104.083 13.2129C104.269 13.3986 104.401 13.3721 104.428 13.1068C104.481 12.7619 104.693 12.5496 104.879 12.3108C105.012 12.1251 105.197 12.072 105.436 12.1516C105.914 12.3108 106.285 12.6027 106.391 13.1068C106.497 13.5313 106.577 13.9823 106.63 14.4068C106.657 14.5926 106.736 14.6987 106.922 14.7252C107.532 14.7783 107.983 14.4599 108.408 14.0885C108.567 13.9558 108.514 13.717 108.461 13.5313C108.249 12.921 108.302 12.3639 108.726 11.8598C108.859 11.7006 108.832 11.5944 108.673 11.4883C108.461 11.3557 108.249 11.223 108.036 11.0638C107.744 10.8516 107.718 10.7189 107.877 10.374C107.983 10.1883 107.983 10.0025 107.93 9.81681C107.797 9.31271 107.771 8.8086 107.771 8.30449C107.797 7.85345 107.691 7.42894 107.612 6.9779C107.585 6.87177 107.532 6.73911 107.479 6.65951C107.32 6.44726 107.187 6.36766 106.948 6.47379C106.657 6.63298 106.365 6.65951 106.046 6.73911C105.463 6.87177 104.959 7.19015 104.428 7.482C104.216 7.58813 104.03 7.74732 103.818 7.82692C103.473 7.98611 103.287 7.93304 103.022 7.66773C102.942 7.58813 102.889 7.482 102.809 7.42894C102.385 7.13709 102.385 6.63298 102.173 6.235C102.093 6.04928 102.199 5.91662 102.358 5.83702C102.756 5.67783 103.128 5.51864 103.552 5.70436C103.738 5.78396 103.924 5.78396 104.11 5.75743C104.64 5.67783 105.171 5.70436 105.675 5.51864C106.179 5.33292 106.55 4.988 107.002 4.69615C107.293 4.59002 107.161 4.29817 107.24 4.05938ZM107.24 16.2641C107.267 16.4763 107.293 16.7151 107.32 16.9539C107.373 17.4315 107.506 17.5111 107.957 17.3519C108.408 17.1927 108.832 17.1131 109.31 17.1396C109.575 17.1396 109.655 17.0335 109.575 16.7682C109.416 16.211 109.098 15.7069 108.859 15.2028C108.753 14.9905 108.593 14.9905 108.434 15.1763C108.222 15.4681 107.957 15.6538 107.638 15.7865C107.532 15.813 107.453 15.8926 107.373 15.9457C107.267 15.9987 107.214 16.1049 107.24 16.2641Z" fill="white"/>
<path d="M53.086 15.8409C53.0329 15.6286 53.1391 15.4429 53.1656 15.2307C53.2452 14.8062 53.1656 14.4082 52.9799 14.0367C52.8737 13.851 52.7676 13.7714 52.6084 13.9041C52.0512 14.302 51.4145 14.5143 50.8308 14.8061C50.7247 14.8592 50.6451 14.9388 50.5389 15.0184C50.1409 15.3633 49.6368 15.5225 49.1858 15.7613C49.0797 15.8144 48.9735 15.8144 48.8939 15.7613C48.4164 15.6286 47.9388 15.6021 47.4612 15.7348C47.1163 15.8144 46.8245 15.6552 46.5591 15.4429C46.3469 15.2837 46.3734 14.9919 46.453 14.7796C46.6387 14.302 46.851 13.8245 47.0632 13.3469C47.1163 13.2408 47.2224 13.1612 47.302 13.0816C48.1245 12.2856 49.0531 11.6489 49.9022 10.906C50.3532 10.508 50.7777 10.0569 51.1492 9.57936C51.3614 9.34057 51.4675 8.96913 51.441 8.62421C51.4145 8.04051 51.4145 7.45681 51.2553 6.89964C51.1492 6.55472 51.1492 6.23634 51.1757 5.89142C51.2022 5.41385 51.2553 4.90974 51.2553 4.43217C51.2553 3.84847 51.1492 3.2913 51.0696 2.70759C50.99 2.17696 50.7512 1.69938 50.6716 1.16874C50.6185 0.850359 50.6981 0.611572 50.9634 0.45238C51.1492 0.346253 51.3614 0.240125 51.5471 0.133997C51.7329 0.0544013 51.9186 0.0809333 52.1043 0.160529C52.3166 0.240125 52.5288 0.346253 52.7676 0.425848C53.5901 0.638104 53.8819 1.93817 53.2452 2.46881C52.9003 2.76066 52.8207 3.1321 52.8737 3.55662C52.8737 3.58315 52.8737 3.58315 52.8737 3.60968C53.1391 4.48523 52.9799 5.30772 52.7411 6.15674C52.6615 6.39553 52.6615 6.66085 52.7145 6.89964C52.7676 7.16496 52.8207 7.45681 52.8207 7.74866C52.8207 7.88132 52.8737 8.01398 52.9268 8.14664C53.0329 8.38543 53.1391 8.43849 53.3778 8.30583C53.537 8.22623 53.6962 8.14664 53.8289 8.01398C54.0411 7.82826 54.2799 7.69559 54.5187 7.50987C54.8371 7.27108 55.1289 7.0323 55.3943 6.76698C55.5535 6.60779 55.5535 6.31594 55.6331 6.10368C55.7922 5.67917 56.1372 5.44038 56.429 5.17506C56.6147 5.01587 56.8801 5.09547 57.0658 5.20159C57.2515 5.33425 57.4903 5.44038 57.676 5.57304C58.2332 6.02408 58.4985 6.58125 58.4189 7.32415C58.3658 7.6956 58.2067 7.93438 57.8617 8.06704C57.5699 8.17317 57.3311 8.38543 56.9862 8.38543C56.8801 8.38543 56.8005 8.46502 56.7209 8.54462C56.6413 8.59768 56.5617 8.70381 56.4555 8.70381C55.8453 8.80994 55.3677 9.23445 54.8371 9.5263C54.2269 9.81815 53.7493 10.3223 53.2717 10.7998C52.7941 11.2774 52.29 11.7019 51.6002 11.8346C51.043 11.9407 50.5655 12.2326 50.1409 12.6305C50.0879 12.6836 50.0348 12.7367 50.0613 12.8163C50.0879 12.8959 50.1675 12.9224 50.2471 12.9224C50.4328 12.9224 50.592 12.9224 50.7777 12.8959C51.3349 12.7632 51.8921 12.6305 52.4758 12.5244C52.6084 12.4979 52.7145 12.4448 52.7411 12.3387C52.8737 12.0203 53.1391 11.7815 53.3513 11.5162C53.484 11.3305 53.6432 11.2509 53.8819 11.2509C54.333 11.2243 54.7575 11.2509 55.0759 11.6754C55.1555 11.7815 55.3147 11.8346 55.3943 11.9672C55.6065 12.2856 55.6065 12.6305 55.5269 13.002C55.5004 13.1346 55.4739 13.2673 55.4208 13.3734C55.2616 13.7183 55.182 14.0633 55.3943 14.4347C55.4473 14.5408 55.3943 14.6735 55.3677 14.7796C55.2616 15.1245 55.182 15.4694 55.182 15.8409C55.182 16.5838 54.8636 17.2206 54.6779 17.9104C54.5718 18.3614 54.3861 18.7594 54.3595 19.237C54.333 19.635 54.0677 19.9799 53.7228 20.2187C53.6166 20.2983 53.537 20.3513 53.4574 20.4574C53.1391 20.8554 52.6349 20.8554 52.3166 20.5105C52.2104 20.4044 52.1043 20.2983 51.9982 20.1921C51.8921 20.086 51.839 19.9799 51.839 19.8472C51.839 19.7146 51.839 19.5819 51.7594 19.4492C51.4941 19.0778 51.6533 18.7063 51.8655 18.4145C52.0778 18.1492 52.2635 17.8573 52.5288 17.6451C52.7145 17.5124 52.7941 17.3002 52.8472 17.0879C52.8737 16.8756 52.9533 16.6634 53.0329 16.4511C53.086 16.1858 53.1391 16.0266 53.086 15.8409Z" fill="white"/>
<path d="M83.9963 13.4993C83.5718 13.4993 83.0942 13.4993 82.6697 13.7381C82.2982 13.9504 81.8472 14.03 81.4492 14.1096C81.3431 14.1361 81.2369 14.1361 81.1574 14.1626C80.7063 14.4014 80.3083 14.1361 79.9369 13.9504C79.7246 13.8708 79.645 13.6585 79.6981 13.4197C79.7246 13.2871 79.7512 13.1544 79.7777 13.0217C79.8042 12.9156 79.8308 12.783 79.7246 12.7034C79.592 12.6238 79.4593 12.6238 79.3532 12.7034C79.3001 12.7299 79.2205 12.783 79.1675 12.836C79.0348 12.9687 78.9287 12.9687 78.7429 12.8891C78.1327 12.6503 77.496 12.5442 76.8592 12.8095C76.5408 12.9422 75.8775 12.7299 75.6652 12.438C75.6122 12.3584 75.5591 12.2523 75.4795 12.1993C75.055 11.8013 75.002 11.3502 75.1346 10.8196C75.2142 10.5277 75.3734 10.3951 75.6652 10.3686C75.8775 10.3686 76.0898 10.3686 76.2755 10.3951C76.9122 10.5277 77.4429 10.3686 77.9205 9.94404C78.0797 9.78485 78.2388 9.67872 78.4776 9.75832C78.5042 9.78485 78.5572 9.75832 78.6103 9.75832C78.8225 9.73179 78.9552 9.43994 79.1675 9.54606C79.3532 9.65219 79.5389 9.70526 79.7512 9.73179C80.2022 9.81138 80.6532 9.89098 81.0778 9.5726C81.1043 9.54606 81.1574 9.51953 81.2104 9.51953C81.688 9.54607 82.1656 9.46647 82.6166 9.46647C83.0146 9.46647 83.386 9.36034 83.731 9.22768C84.0759 9.09502 84.4208 8.98889 84.7657 8.85624C85.0841 8.75011 85.3759 8.61745 85.6943 8.53785C86.2249 8.40519 86.7821 8.37866 87.3393 8.29906C87.7373 8.246 88.1353 8.40519 88.4006 8.75011C88.5332 8.93583 88.6659 8.88277 88.7985 8.75011C89.0373 8.53785 89.1965 8.53785 89.4353 8.75011C89.5945 8.88277 89.5945 9.09502 89.6476 9.28075C89.7272 9.51953 89.5149 9.5726 89.3822 9.67872C89.1965 9.83792 89.0373 9.91751 88.772 9.89098C88.6394 9.86445 88.5067 9.91751 88.4006 9.99711C87.6842 10.4747 86.8882 10.6869 86.0392 10.8196C85.2433 10.9257 84.4738 11.0584 83.731 11.4033C83.2799 11.6156 82.7493 11.7217 82.3513 12.0666C82.2717 12.1197 82.1656 12.1197 82.0594 12.1462C81.9268 12.1727 81.8207 12.2523 81.7411 12.385C81.6615 12.5176 81.7145 12.6238 81.8472 12.6238C82.1921 12.6238 82.537 12.6238 82.8554 12.5442C83.3595 12.438 83.8371 12.385 84.3677 12.3584C84.7657 12.3584 85.1371 12.3054 85.5351 12.2789C85.7739 12.2523 85.9862 12.1197 86.1719 11.987C86.5964 11.6686 86.8617 11.6686 87.2066 11.9339C87.5515 12.1993 87.7373 12.7564 87.5781 13.1279C87.472 13.3932 87.3393 13.6585 87.1536 13.8973C86.7821 14.3483 86.4903 14.879 86.2515 15.4096C86.1454 15.6484 85.9331 15.8607 85.7474 16.0995C85.6678 16.2056 85.5351 16.2586 85.3759 16.2056C85.0045 16.0994 84.6596 16.179 84.3146 16.2852C83.6514 16.4709 82.9881 16.6301 82.3248 16.8158C82.0064 16.8954 81.688 16.8689 81.3431 16.8423C80.9186 16.8158 80.8655 16.8689 80.892 17.2934C80.892 17.3995 80.892 17.5056 80.892 17.6118C80.892 17.9036 80.9982 18.1159 81.237 18.3016C81.5553 18.5139 81.9002 18.6996 82.1921 18.9649C82.2717 19.0445 82.4044 19.071 82.537 19.0445C83.0146 18.9384 83.5187 18.9118 83.9963 18.673C84.58 18.3812 85.2167 18.1955 85.7739 17.8771C86.0923 17.6914 86.4107 17.5056 86.7821 17.426C86.9678 17.373 87.0474 17.2138 87.1536 17.0811C87.4985 16.577 88.321 16.524 88.6924 16.975C88.9312 17.2669 88.9047 17.7975 88.6128 18.1159C88.1883 18.5935 87.6842 18.8853 87.0474 18.9384C86.4372 19.018 85.9066 19.2567 85.3759 19.5486C84.6065 19.9731 83.7575 20.1323 82.935 20.2915C82.1125 20.4507 81.4492 20.1588 80.7594 19.7609C80.1757 19.4159 79.8308 18.9118 79.4858 18.3547C79.4328 18.2751 79.3797 18.1689 79.3001 18.0893C78.8491 17.6914 78.5572 17.2138 78.4776 16.6036C78.4511 16.3913 78.345 16.2056 78.2919 16.0199C78.1327 15.4892 78.2919 15.1708 78.7695 14.9586C78.9552 14.879 79.1144 14.8524 79.3001 15.0116C79.592 15.277 79.9634 15.33 80.3349 15.3566C80.8124 15.3831 81.3165 15.3566 81.7941 15.4096C82.4574 15.4627 83.0942 15.3035 83.7044 15.0912C84.2351 14.9055 84.6065 14.4279 84.9249 13.9769C84.978 13.9238 84.9779 13.8442 84.9779 13.7646C85.0045 13.4993 84.9514 13.3932 84.6596 13.4197C84.5004 13.5259 84.2881 13.5259 83.9963 13.4993Z" fill="white"/>
<path d="M32.416 8.80614C32.416 8.01018 32.2833 7.32035 32.2037 6.65705C32.1507 6.23254 32.0445 5.80803 32.0711 5.38352C32.0711 5.25086 32.0711 5.06514 31.9915 4.95901C31.7792 4.5345 31.7261 4.05692 31.6731 3.57935C31.62 3.26097 31.4874 2.94258 31.4078 2.59767C31.3547 2.33235 31.3282 2.09356 31.3812 1.85478C31.4078 1.66905 31.4608 1.50986 31.4608 1.32414C31.4343 1.00575 31.62 0.793498 31.8323 0.607775C31.9915 0.448583 32.1772 0.368988 32.3894 0.528179C32.5486 0.660839 32.7609 0.660839 32.9466 0.634307C33.1589 0.607775 33.3181 0.687371 33.4507 0.846562C33.6099 1.03229 33.7956 1.16495 33.9814 1.32414C34.114 1.43026 34.2467 1.56292 34.3263 1.74865C34.4855 2.06703 34.6181 2.38541 34.7773 2.7038C34.8834 2.96912 34.8834 3.2079 34.6977 3.44669C34.5385 3.65895 34.4324 3.89773 34.2201 4.08346C34.0609 4.24265 33.9814 4.42837 34.0609 4.66716C34.1671 5.01207 34.114 5.35699 34.0609 5.72844C33.9283 6.57746 33.9018 7.45301 33.9018 8.30203C33.9018 8.59388 33.9018 8.88573 33.8222 9.17759C33.7691 9.4429 33.8487 9.5225 34.1405 9.46944C34.2467 9.44291 34.3793 9.38984 34.4589 9.33678C34.5916 9.25718 34.7242 9.17759 34.8569 9.15105C35.3875 9.07146 35.759 8.70001 36.1835 8.43469C36.4488 8.2755 36.6611 8.06325 36.7407 7.71833C36.7937 7.47954 36.9795 7.24076 37.1652 7.05503C37.5101 6.65705 38.2265 6.71012 38.5448 7.1081C38.651 7.24076 38.7571 7.34688 38.8367 7.50607C39.2347 8.1959 38.9959 8.8592 38.6775 9.49597C38.5979 9.65516 38.4387 9.76129 38.253 9.78782C38.2265 9.78782 38.2265 9.78782 38.1999 9.78782C37.5632 10.1858 36.8999 10.5307 36.157 10.7695C36.0243 10.8226 35.8917 10.9287 35.8121 11.0348C35.4406 11.4859 34.9365 11.6451 34.4059 11.7247C34.0344 11.7777 33.7426 12.043 33.3977 12.1757C33.0527 12.3349 32.7609 12.5737 32.5221 12.9186C32.3098 13.2104 32.0445 13.5023 31.6996 13.6349C31.62 13.6615 31.5404 13.7145 31.5404 13.8207C31.5404 13.9533 31.6465 13.9799 31.7527 14.0329C31.8853 14.0595 32.018 14.1125 32.1507 14.1125C32.6813 14.086 33.2119 14.2717 33.7426 14.2452C34.1405 14.2452 34.3793 14.4309 34.5916 14.7758C34.9365 15.3595 35.0692 15.9963 35.2284 16.6596C35.3345 17.1372 35.3079 17.5882 35.2814 18.0658C35.2549 18.4638 35.1222 18.8087 34.8304 19.1005C34.512 19.4189 34.2997 19.7904 33.8752 20.0026C33.1058 20.3741 32.3364 20.7455 31.4608 20.6128C30.771 20.5067 30.0812 20.4006 29.524 19.923C29.0729 19.525 28.7811 18.9944 28.7015 18.3842C28.6484 17.9066 28.675 17.4025 28.6484 16.9249C28.6484 16.6331 28.728 16.3412 28.8076 16.0494C29.0199 14.9881 29.3383 13.9799 29.922 13.0778C30.2138 12.6267 30.5853 12.2288 31.0628 11.9634C31.4343 11.7512 31.6465 11.4593 31.8057 11.0879C31.9649 10.743 32.0976 10.3715 32.2568 10.0266C32.416 9.6021 32.3894 9.15105 32.416 8.80614ZM30.5587 17.031C30.5322 17.8535 31.0628 18.3046 31.8323 18.1454C31.9649 18.1188 32.1241 18.0658 32.2568 18.0658C32.8139 18.0127 33.1854 17.6678 33.4772 17.2433C33.716 16.8984 33.6364 16.6331 33.2915 16.4208C33.1854 16.3677 33.0793 16.2881 32.9731 16.2351C32.4425 15.9698 31.8323 15.8106 31.4078 15.333C31.3812 15.2799 31.3016 15.2534 31.2486 15.2534C30.9832 15.1738 30.7445 15.3065 30.6914 15.5983C30.6118 16.0759 30.5587 16.58 30.5587 17.031Z" fill="white"/>
<path d="M114.856 11.0362C114.856 10.877 114.856 10.5851 114.856 10.3198C114.83 10.0279 114.697 9.92182 114.405 10.0545C114.326 10.081 114.246 10.1606 114.193 10.2137C114.087 10.2933 113.981 10.3729 113.875 10.4525C113.344 10.8239 112.946 10.7708 112.548 10.2933C112.336 10.0279 112.442 9.55037 112.76 9.41771C113.503 9.09933 114.113 8.59522 114.777 8.11765C115.175 7.82579 115.148 7.61354 114.803 7.29516C114.75 7.24209 114.644 7.1625 114.644 7.10943C114.538 6.76452 114.352 6.52573 114.113 6.23388C113.742 5.7563 113.901 4.82769 114.352 4.40318C114.511 4.24398 114.697 4.19092 114.909 4.21745C115.36 4.24398 115.732 4.45624 116.103 4.6685C116.528 4.90728 116.82 5.2522 117.111 5.65018C117.35 5.96856 117.377 5.96856 117.722 5.80937C118.465 5.46445 118.518 5.49098 118.942 6.20735C119.181 6.57879 119.101 6.92371 118.995 7.26862C118.916 7.53394 118.756 7.77273 118.571 8.01152C118.358 8.30337 118.411 8.4095 118.703 8.56869C118.756 8.59522 118.809 8.64828 118.863 8.64828C119.526 8.67482 119.924 9.31158 120.561 9.44424C120.667 9.47077 120.693 9.55037 120.667 9.6565C120.64 9.84222 120.72 9.92182 120.905 9.92182C121.144 9.94835 121.224 10.1871 121.303 10.3463C121.463 10.6647 121.542 10.9566 121.303 11.3015C121.144 11.5403 121.065 11.8586 120.985 12.177C120.905 12.5485 120.852 12.9199 120.746 13.2914C120.667 13.5567 120.534 13.7689 120.295 13.8751C119.897 14.0608 119.632 14.3526 119.314 14.6445C119.101 14.8302 118.889 14.9363 118.624 14.9363C118.385 14.9363 118.173 15.0425 117.96 15.1221C117.509 15.2547 117.032 15.3609 116.528 15.1751C116.103 15.0159 115.705 14.8568 115.493 14.4588C115.307 14.0873 115.068 13.7159 114.989 13.2914C114.936 12.5485 114.777 11.8852 114.856 11.0362ZM118.013 12.9995C118.358 13.0526 118.65 12.8403 118.969 12.6546C119.287 12.4689 119.314 12.0974 119.075 11.8056C118.916 11.6199 118.703 11.4872 118.491 11.4076C118.12 11.3015 117.722 11.2484 117.509 10.8504L117.483 10.8239C117.403 10.7708 117.297 10.7178 117.191 10.7708C117.058 10.8239 117.085 10.93 117.085 11.0362C117.111 11.2219 117.085 11.4076 117.005 11.5933C116.793 12.2566 117.297 12.9995 118.013 12.9995Z" fill="white"/>
<path d="M80.1494 6.60732C80.3352 6.66038 80.6005 6.58079 80.8393 6.4216C81.2107 6.18281 81.6618 6.23587 82.0597 6.07668C82.5108 5.91749 83.0149 5.83789 83.4925 5.70523C83.8904 5.59911 84.1823 5.30726 84.5007 5.095C85.0844 4.72355 85.9865 5.06847 86.0926 5.78483C86.1457 6.12974 85.562 7.05836 85.217 7.05836C83.97 7.11143 82.8822 7.589 81.8475 8.19923C81.6352 8.33189 81.423 8.38496 81.1842 8.43802C80.5474 8.51762 79.8841 8.62375 79.2739 8.80947C78.929 8.9156 78.6106 8.7564 78.3718 8.49109C77.8942 7.93392 77.4962 7.29715 77.284 6.58079C77.2044 6.28894 77.0983 6.02362 76.9656 5.7583C76.7534 5.25419 76.7534 4.77662 77.0187 4.29904C77.2044 3.98066 77.4963 3.82147 77.8677 3.90106C78.0004 3.9276 78.133 3.95413 78.2391 4.03372C78.3983 4.16638 78.5841 4.19291 78.7698 4.13985C78.8228 4.11332 78.9024 4.11332 78.9555 4.13985C79.5923 4.40517 80.176 4.08679 80.7862 3.98066C81.1577 3.9276 81.5026 3.7684 81.8475 3.66228C81.9271 3.63574 82.0067 3.60921 82.0863 3.52962C82.1393 3.47655 82.1659 3.39696 82.1393 3.31736C82.1128 3.2643 82.0597 3.23777 81.9801 3.23777C81.9536 3.23777 81.9536 3.23777 81.9271 3.23777C81.476 3.47655 80.9985 3.34389 80.5209 3.34389C80.229 3.34389 79.9637 3.37042 79.6984 3.50308C79.5392 3.58268 79.3535 3.63574 79.1943 3.66228C79.0086 3.71534 78.8494 3.68881 78.7167 3.50308C78.6371 3.37042 78.531 3.2643 78.4249 3.1847C78.2922 3.07857 78.2391 2.91938 78.2126 2.76019C78.133 2.36221 78.0269 1.99077 78.1596 1.59279C78.2657 1.22134 78.4779 0.95602 78.7963 0.770297C78.929 0.690701 79.0351 0.690701 79.1678 0.770297C79.7515 1.11521 80.3882 1.22134 81.0515 1.06215C81.3168 1.00908 81.6087 0.982552 81.9006 1.00908C82.2455 1.03562 82.5373 0.982552 82.7761 0.690701C82.9618 0.478445 83.2006 0.39885 83.4925 0.584573C83.5986 0.664169 83.7843 0.664169 83.917 0.690701C84.2354 0.770297 84.4476 0.929488 84.5272 1.2744C84.5803 1.53972 84.6864 1.77851 84.7925 2.0173C85.0048 2.601 84.8191 3.15817 84.7395 3.71534C84.7129 3.98066 84.5803 4.24598 84.5007 4.5113C84.4476 4.67049 84.368 4.77662 84.1823 4.77662C84.0231 4.77662 83.8108 4.82968 83.7047 4.77662C83.4394 4.61742 83.2271 4.72355 82.9884 4.77662C82.5904 4.88274 82.1659 4.90928 81.7414 4.88274C81.5291 4.88274 81.3434 4.93581 81.1842 5.095C80.7331 5.51951 80.229 5.83789 79.6188 5.97055C79.5657 5.99709 79.5127 5.99709 79.4596 6.02362C79.327 6.07668 79.2474 6.15628 79.2474 6.28894C79.2474 6.44813 79.3535 6.55426 79.4861 6.55426C79.6453 6.58079 79.8576 6.58079 80.1494 6.60732Z" fill="white"/>
<path d="M41.0381 7.3745C41.0912 7.16225 41.0646 7.00306 40.985 6.84387C40.9585 6.81733 40.932 6.76427 40.9585 6.71121C41.0912 6.2071 40.8789 5.75606 40.8789 5.25195C40.8789 4.8805 41.0646 4.64172 41.3299 4.42946C41.7279 4.13761 42.5769 4.24374 42.8953 4.61518C43.0545 4.80091 43.1872 4.98663 43.2933 5.19889C43.426 5.49074 43.5852 5.59687 43.8505 5.46421C44.4872 5.17236 45.2301 5.14582 45.8138 4.69478C46.1853 4.42946 46.7159 4.34987 47.1404 4.40293C47.5649 4.48253 48.0691 4.56212 48.3874 4.9601C48.467 5.06623 48.5466 5.17236 48.5466 5.30502C48.5466 5.35808 48.5201 5.43767 48.5466 5.49074C48.7854 5.96831 48.5201 6.36629 48.3344 6.7908C48.2017 7.10919 48.2548 7.48063 48.0425 7.74595C48.1487 7.98474 48.1486 8.27659 48.3874 8.46231C48.5732 8.62151 48.7854 8.75416 48.8385 9.04602C48.8915 9.41746 48.865 9.76238 48.7589 10.1073C48.7058 10.2134 48.6262 10.293 48.5466 10.3991C48.2548 10.7706 47.9629 11.142 47.5119 11.3012C47.4058 11.3278 47.3262 11.4604 47.2466 11.54C47.0608 11.7257 46.8486 11.8053 46.6098 11.7523C46.4241 11.6992 46.2384 11.7257 46.0261 11.7257C45.2567 11.7257 44.7526 11.0624 45.1505 10.2665C45.2036 10.1604 45.2567 10.0277 45.2832 9.89504C45.3628 9.57665 45.4689 9.2848 45.7873 9.09908C45.973 8.99295 46.0261 8.75417 46.0261 8.54191C46.0261 8.14393 46.0261 7.74595 46.0526 7.34797C46.0792 7.02959 45.92 6.97653 45.6281 7.10919C45.0179 7.42757 44.6995 7.93168 44.6464 8.62151C44.5934 9.39093 44.4607 10.1604 44.2485 10.9033C44.1158 11.3543 43.877 11.7257 43.4525 11.9645C43.1341 12.1237 42.9219 12.1503 42.63 11.938C42.4443 11.8053 42.2851 11.6461 42.179 11.4339C41.8341 10.7706 41.5157 10.0808 41.4891 9.31134C41.4891 9.09908 41.4361 8.86029 41.3299 8.67457C41.0912 8.25006 41.1442 7.77248 41.0381 7.3745Z" fill="white"/>
<path d="M68.1038 8.91562C68.7671 9.02175 69.3773 8.80949 69.9875 8.62377C70.2529 8.54417 70.4121 8.33192 70.4121 8.0666C70.4121 7.66862 70.5713 7.24411 70.359 6.84613C70.3059 6.76653 70.3855 6.63387 70.4121 6.55428C70.5447 6.0767 70.5713 5.59913 70.4917 5.09502C70.4917 5.01543 70.4651 4.93583 70.4651 4.88277C70.5182 4.45826 70.5182 4.06028 70.3325 3.6623C70.3059 3.63577 70.3059 3.55617 70.3325 3.52964C70.4917 3.23779 70.4121 2.91941 70.4386 2.60102C70.4386 2.49489 70.4651 2.36223 70.4917 2.25611C70.5713 1.93772 70.7039 1.61934 71.0754 1.53975C71.4733 1.46015 71.8448 1.51321 72.1366 1.88466C72.402 2.22958 72.6407 2.54796 72.6673 2.999C72.6938 3.31738 72.7469 3.60924 72.9061 3.90109C72.9326 3.95415 72.9591 4.06028 72.9326 4.11334C72.7734 4.40519 72.7999 4.72358 72.7203 5.01543C72.6407 5.28075 72.5081 5.54607 72.6673 5.83792C72.6938 5.89098 72.6673 5.97058 72.6407 5.99711C72.455 6.31549 72.5611 6.66041 72.5081 7.00532C72.4815 7.16451 72.5346 7.29717 72.6142 7.42983C72.9061 7.93394 72.9061 8.46458 72.6142 8.99522C72.5346 9.12788 72.5081 9.3136 72.5081 9.47279C72.5346 9.92383 72.455 10.4014 72.4285 10.8525C72.402 11.0382 72.402 11.1974 72.455 11.3831C72.5081 11.5423 72.4816 11.6749 72.455 11.8076C72.4285 11.9137 72.402 12.0199 72.4285 12.126C72.5611 12.4444 72.4816 12.7893 72.4285 13.0811C72.3754 13.426 72.3489 13.771 72.3224 14.0893C72.2958 14.3281 72.2958 14.5935 72.1897 14.8322C72.1101 15.0445 72.1632 15.3098 72.1897 15.5486C72.2162 15.867 72.3224 16.1854 72.2162 16.5303C72.1897 16.6099 72.2162 16.7425 72.2428 16.8221C72.455 17.5385 72.0305 18.1753 71.4999 18.5467C71.2876 18.6794 71.0488 18.7059 70.81 18.5998C70.3855 18.414 70.0141 18.1222 69.9345 17.6181C69.8814 17.2997 69.8284 16.9813 69.8814 16.6099C69.961 15.6017 70.1467 14.62 70.0937 13.6118C70.0671 13.2934 70.1467 13.0015 70.2794 12.7097C70.359 12.5505 70.3855 12.3913 70.3855 12.2321C70.359 11.728 70.4651 11.2239 70.5182 10.7463C70.5447 10.5606 70.5713 10.4014 70.4121 10.2422C70.2263 10.083 70.0406 10.2157 69.8814 10.2953C69.5365 10.481 69.1916 10.6137 68.8201 10.7463C68.6079 10.8259 68.3691 10.9055 68.1834 11.0647C67.9711 11.2504 67.7323 11.2504 67.5466 11.0647C67.2813 10.8259 66.9629 10.6667 66.6976 10.4279C66.2996 10.083 66.2996 9.49932 66.7241 9.15441C66.9629 8.96868 67.2017 8.86256 67.4935 8.88909C67.6793 8.91562 67.8915 8.91562 68.1038 8.91562Z" fill="white"/>
<path d="M22.0421 7.5584C21.989 6.70938 22.3604 6.20527 23.1564 5.99302C23.236 5.96649 23.3156 5.96649 23.3686 5.96649C24.2707 6.12568 25.0932 5.83383 25.9422 5.62157C26.579 5.46238 27.0301 5.03787 27.4811 4.61336C27.826 4.29498 28.1709 4.32151 28.5424 4.42764C28.675 4.45417 28.8077 4.53376 28.9138 4.53376C29.3383 4.5603 29.5241 4.87868 29.7363 5.144C29.7894 5.22359 29.8159 5.32972 29.7894 5.43585C29.6302 5.83383 29.5506 6.25834 29.3118 6.62978C29.0199 7.13389 28.8077 7.66453 28.675 8.2217C28.5954 8.56662 28.6485 8.64621 28.9404 8.8054C29.073 8.885 29.2322 8.96459 29.3914 8.99113C29.8424 9.07072 30.1608 9.33604 30.5588 9.52176C30.8241 9.65442 30.8241 9.76055 30.718 10.0524C30.6649 10.1851 30.6384 10.3443 30.5588 10.4769C30.2935 10.9545 29.6567 11.1137 29.1791 10.8218C28.7812 10.5565 28.3301 10.4504 27.8525 10.3973C27.5872 10.3708 27.4015 10.5034 27.2158 10.6626C27.0831 10.7953 26.977 10.928 26.8709 11.0871C26.8178 11.1667 26.7647 11.2729 26.6851 11.3259C26.0218 11.6974 25.73 12.3607 25.3055 12.9178C25.2259 13.024 25.1728 13.1036 25.0932 13.1832C24.5626 13.7138 24.0054 14.2179 23.4748 14.7486C23.2625 14.9608 23.0237 15.12 22.7053 15.1731C22.44 15.2261 22.2012 15.2261 22.0421 14.9608C21.8829 14.6955 21.8829 14.4302 22.0686 14.1649C22.2543 13.8995 22.4931 13.6607 22.7053 13.422C23.1299 12.9444 23.3156 12.3341 23.7136 11.8566C23.8993 11.6178 24.0585 11.379 24.3238 11.2198C24.6422 11.0341 24.8014 10.7157 24.881 10.3973C25.0136 9.86668 25.1728 9.36257 25.5708 8.93806C25.8096 8.67274 25.8626 8.27476 25.9953 7.92985C26.0484 7.77066 25.9688 7.69106 25.8096 7.74413C25.2259 7.90332 24.6687 8.06251 24.2973 8.59315C24.2442 8.67274 24.1646 8.75234 24.085 8.83193C23.8462 9.01766 23.6074 9.07072 23.3421 8.885C23.1033 8.72581 22.8645 8.59315 22.5727 8.54008C22.3074 8.46049 22.1747 8.27476 22.1482 8.03598C22.0686 7.87678 22.0686 7.71759 22.0421 7.5584Z" fill="white"/>
<path d="M123.98 13.6412C124.113 13.7474 124.245 13.8535 124.378 13.9596C124.405 13.88 124.405 13.827 124.405 13.7474C124.405 13.6943 124.431 13.6147 124.484 13.6147C124.564 13.6147 124.59 13.6678 124.617 13.7208C124.67 13.9066 124.67 14.1188 124.643 14.3045C124.511 14.9413 124.59 15.5781 124.803 16.1883C124.909 16.5067 124.75 16.8251 124.882 17.1434C124.935 17.3026 124.935 17.4884 124.988 17.6741C125.094 18.2047 124.856 18.6823 124.325 18.7884C124.245 18.815 124.166 18.815 124.113 18.8415C123.768 19.1068 123.529 18.9476 123.184 18.7354C122.627 18.3904 122.415 17.8863 122.362 17.3026C122.335 17.0108 122.309 16.7189 122.415 16.4271C122.441 16.3475 122.441 16.2414 122.468 16.1618C122.494 15.7107 122.574 15.2862 122.76 14.8352C122.945 14.3576 122.998 13.827 122.892 13.2963C122.839 12.9249 122.813 12.5534 122.786 12.182C122.733 11.333 122.6 10.4839 122.494 9.63491C122.415 9.10427 122.335 8.57364 122.309 8.043C122.282 7.24704 122.176 6.47761 122.017 5.70819C121.858 4.9653 121.725 4.2224 121.698 3.45298C121.672 3.00193 121.539 2.57742 121.46 2.15291C121.407 1.86106 121.46 1.70187 121.751 1.67534C122.309 1.62227 122.892 1.51615 123.423 1.75493C124.086 2.07332 124.643 2.55089 124.909 3.26725C125.041 3.61217 124.856 3.98361 124.776 4.302C124.723 4.51425 124.723 4.72651 124.723 4.93876C124.75 5.31021 124.67 5.70819 124.59 6.07964C124.537 6.39802 124.484 6.7164 124.617 7.03478C124.643 7.08785 124.67 7.11438 124.643 7.16744C124.564 7.64502 124.67 8.12259 124.67 8.6267C124.67 9.10427 124.458 9.55532 124.59 10.0329C124.617 10.1656 124.511 10.2717 124.431 10.4043C124.325 10.5901 124.299 10.8023 124.378 11.0411C124.484 11.4126 124.511 11.784 124.537 12.182C124.537 12.3942 124.484 12.6065 124.59 12.8187C124.643 12.9514 124.511 13.0575 124.458 13.1637C124.378 13.3759 124.139 13.4555 123.98 13.6412ZM124.086 14.2515C123.98 14.2515 123.927 14.3311 123.901 14.4107C123.874 14.4903 123.901 14.5433 123.98 14.5433C124.086 14.5433 124.139 14.4637 124.139 14.3841C124.166 14.3045 124.166 14.2515 124.086 14.2515ZM124.272 12.9249C124.325 12.9249 124.352 12.8983 124.352 12.8718C124.352 12.8187 124.352 12.7922 124.299 12.7657C124.245 12.7391 124.219 12.7922 124.219 12.8187C124.219 12.8718 124.245 12.9249 124.272 12.9249Z" fill="white"/>
<path d="M13.4752 17.0862C13.4752 16.7413 13.6078 16.3433 13.8466 15.9718C13.9262 15.8392 13.9793 15.7065 13.9528 15.5473C13.8997 15.2289 13.9528 14.9371 14.0058 14.6187C14.165 13.8758 14.0058 13.1594 13.8466 12.4696C13.714 11.8063 13.7405 11.1696 13.7936 10.5328C13.8201 10.3205 13.8201 10.1083 13.7936 9.92255C13.6609 8.94087 13.5282 7.95919 13.5282 6.95098C13.5282 6.553 13.5548 6.15502 13.5813 5.75704C13.6078 5.46519 13.6078 5.19987 13.6078 4.90802C13.6078 4.58964 13.5017 4.29779 13.2629 4.08553C13.0507 3.89981 12.9445 3.63449 12.8915 3.3957C12.8384 3.15691 12.7588 2.91813 12.6527 2.67934C12.467 2.2283 12.8119 1.77725 13.2895 1.85685C13.7936 1.93644 14.2446 2.12217 14.6956 2.38749C14.7752 2.44055 14.8814 2.49361 14.961 2.54668C15.5447 2.91813 15.8631 3.42223 15.9426 4.11206C15.9957 4.58964 16.0753 5.09374 16.1549 5.57132C16.1814 5.65091 16.1814 5.75704 16.1549 5.83664C16.0488 6.42034 16.0488 6.97751 16.0753 7.56121C16.0753 8.48983 16.0488 9.39191 16.0222 10.3205C16.0222 10.6654 15.9957 11.0369 15.8631 11.3818C15.81 11.4879 15.81 11.6206 15.8365 11.7267C15.9692 12.2574 15.9161 12.788 15.9957 13.3186C16.1018 13.8493 16.0488 14.3799 15.9957 14.9106C15.9692 15.4677 15.9692 15.9984 16.1018 16.5555C16.1814 16.927 16.1549 17.2454 15.9692 17.5903C15.7835 17.9087 15.6508 18.2536 15.3589 18.5189C14.7752 19.1026 14.6161 19.1291 13.9262 18.6516C13.714 18.4924 13.5813 18.3066 13.5548 18.0413C13.5548 17.6964 13.4221 17.4311 13.4752 17.0862Z" fill="white"/>
<path d="M1.42838 11.8587C1.53451 11.4076 1.45491 10.9566 1.45491 10.479C1.45491 10.1606 1.37532 9.84223 1.26919 9.52384C1.18959 9.31159 1.11 9.12587 1.11 8.88708C1.11 8.75442 1.00387 8.67482 0.924273 8.59523C0.60589 8.25031 0.393635 7.85233 0.181379 7.42782C-0.110472 6.87065 -0.0574082 6.71146 0.393635 6.26042C0.897741 5.78284 1.45491 5.54406 2.17127 5.59712C2.51619 5.62365 2.72844 5.86244 2.99376 5.9951C3.41827 6.23389 3.68359 6.68493 4.05504 7.00331C4.21423 7.13597 4.1877 7.37476 4.16117 7.58701C4.08157 8.06459 3.86932 8.54216 3.97544 9.0728C3.97544 9.09933 3.97544 9.09933 3.97544 9.12587C3.73666 9.55038 3.92238 9.97489 4.00198 10.3994C4.08157 10.8239 3.97544 11.2484 3.92238 11.6995C3.84279 12.4424 3.97544 12.6015 4.69181 12.6281C5.08979 12.6281 5.40817 12.4424 5.67349 12.177C6.20413 11.6729 6.7613 11.2219 7.31847 10.7443C7.82257 10.2933 8.5124 10.4525 8.77772 11.0627C8.91038 11.3545 8.96345 11.6464 8.96345 11.9648C8.96345 12.2832 8.83079 12.3893 8.53894 12.4954C7.74298 12.7607 6.94702 13.0261 6.33679 13.6894C5.91227 14.1404 5.4347 14.5118 4.90406 14.8037C4.34689 15.1221 3.73666 15.0955 3.12642 14.9629C3.0203 14.9364 2.91417 14.8833 2.83457 14.7772C2.22434 14.1139 1.66717 13.424 1.50798 12.4954C1.45491 12.3097 1.42838 12.0974 1.42838 11.8587Z" fill="white"/>
<path d="M150.534 5.1492C150.507 5.70637 150.428 6.13088 150.268 6.52886C150.189 6.71458 150.162 6.9003 150.215 7.08603C150.242 7.21869 150.242 7.35135 150.268 7.48401C150.374 7.98811 150.189 8.41262 149.923 8.75754C149.658 9.10245 149.579 9.44737 149.605 9.84535C149.632 10.0576 149.605 10.2433 149.525 10.4556C149.446 10.6413 149.419 10.8536 149.446 11.0658C149.472 11.5434 149.419 12.021 149.313 12.472C149.287 12.6312 149.207 12.7639 149.101 12.8435C148.65 13.1884 148.172 13.4006 147.642 13.5598C147.562 13.5863 147.482 13.5863 147.429 13.5333C147.164 13.3476 146.925 13.1353 146.846 12.8435C146.66 12.074 146.554 11.2781 146.554 10.5086C146.554 9.52696 146.527 8.51875 146.527 7.53707C146.527 7.32481 146.527 7.11256 146.474 6.92684C146.262 6.05128 146.395 5.22879 146.713 4.4063C146.74 4.35324 146.74 4.27364 146.793 4.24711C147.191 4.00832 147.217 3.55728 147.403 3.18583C147.668 2.68173 147.854 2.62866 148.411 2.76132C148.836 2.86745 149.207 3.02664 149.579 3.26543C150.003 3.55728 150.268 3.98179 150.454 4.4063C150.534 4.67162 150.507 4.99 150.534 5.1492Z" fill="white"/>
<path d="M11.7513 4.45798C11.8309 5.25394 11.7778 6.02337 11.7513 6.81933C11.7513 7.05811 11.8043 7.2969 11.937 7.50916C12.1227 7.8806 12.2023 8.25205 12.1227 8.70309C12.0166 9.23373 11.99 9.76437 11.99 10.295C11.99 10.746 11.9635 11.1971 11.8839 11.6216C11.7778 12.1788 11.7778 12.7625 11.8574 13.3196C11.937 13.9299 11.99 14.5401 11.8839 15.1503C11.8309 15.4157 11.8309 15.681 11.937 15.9463C12.0166 16.132 11.99 16.3708 11.9104 16.5565C11.7778 16.9545 11.5125 17.2994 11.2737 17.6178C11.088 17.8831 10.6634 17.8831 10.3981 17.6443C10.1328 17.4321 9.89402 17.1933 9.7083 16.8749C9.57564 16.6892 9.57564 16.5035 9.7083 16.2912C9.81443 16.1055 9.89402 15.9198 10.0267 15.7606C10.3981 15.3095 10.5043 14.7789 10.4247 14.2217C10.4247 14.1421 10.3981 14.036 10.4247 13.9564C10.4777 13.6646 10.4512 13.3727 10.3451 13.0809C10.2389 12.7625 10.2389 12.4441 10.3451 12.1257C10.3716 11.9931 10.4247 11.8604 10.3981 11.7277C10.3716 11.0379 10.3451 10.3215 10.1593 9.65824C10.0002 9.10107 9.52258 8.96841 9.17766 9.41945C8.85928 9.84396 8.40824 10.0032 7.95719 10.2154C7.50615 10.4011 7.05511 10.1093 6.73672 9.7909C6.47141 9.52558 6.44487 8.91535 6.65713 8.57043C6.86938 8.25205 7.10817 8.03979 7.55921 8.03979C8.16945 8.03979 8.75315 7.82754 9.33685 7.64182C9.76136 7.50916 9.92056 7.2173 9.92056 6.76626C9.92056 6.44788 9.92055 6.1295 9.81443 5.83764C9.81443 5.81111 9.7879 5.78458 9.7879 5.75805C9.7879 5.25394 9.68177 4.8029 9.54911 4.32533C9.41645 3.87428 9.57564 3.68856 10.0002 3.50284C10.6634 3.21098 11.2206 3.5559 11.6451 3.98041C11.8309 4.08654 11.7513 4.27226 11.7513 4.45798Z" fill="white"/>
<path d="M67.2829 12.4415C67.3094 13.0783 67.0706 13.5028 66.6726 13.7681C66.0889 14.1661 65.5848 14.6967 65.0011 15.0947C64.8419 15.2274 64.6562 15.3335 64.4705 15.4131C64.099 15.5723 63.7806 15.7846 63.5153 16.1295C63.3827 16.2887 63.25 16.4479 63.0908 16.5805C62.799 16.8193 62.454 16.8193 62.2153 16.5274C61.552 15.758 61.0744 14.909 60.9417 13.8743C60.8621 13.211 60.8356 12.5477 60.7029 11.8844C60.5968 11.3007 60.3315 10.717 60.0396 10.1863C59.8274 9.78834 59.9866 9.23117 60.3846 9.04545C60.756 8.85972 61.154 8.7536 61.552 8.7536C61.9765 8.7536 62.3479 8.56787 62.7724 8.54134C63.0908 8.54134 63.4092 8.46175 63.7276 8.43521C64.4439 8.35562 64.9746 9.15158 64.6297 9.81487C64.4705 10.1333 64.2052 10.3986 63.8337 10.4782C63.3296 10.5578 62.9316 10.8496 62.5336 11.1149C62.3744 11.2211 62.3479 11.3803 62.3744 11.5394C62.3744 11.9905 62.4275 12.4415 62.401 12.866C62.3744 13.264 62.6663 13.5293 62.852 13.7947C62.9316 13.9273 63.0908 13.9008 63.2235 13.8477C63.8602 13.662 64.3643 13.2906 64.7093 12.7069C64.7623 12.6273 64.7889 12.5477 64.8154 12.4681C65.0276 11.8578 65.5052 11.6721 66.0889 11.619C66.142 11.619 66.195 11.619 66.2216 11.619C66.5134 11.5129 66.7787 11.4599 67.0175 11.7517C67.2298 12.0436 67.3359 12.2558 67.2829 12.4415Z" fill="white"/>
<path d="M104.449 10.3473C104.131 10.2412 103.759 10.4004 103.388 10.3473C103.255 10.3208 103.149 10.3739 103.069 10.4535C102.539 10.8514 101.982 11.2229 101.371 11.4882C101.159 11.5678 101.026 11.7535 100.867 11.9127C100.681 12.0984 100.469 12.2046 100.23 12.2842C100.071 12.3372 99.9386 12.3107 99.7529 12.2842C99.1426 12.1515 98.6916 11.8331 98.2936 11.3556C98.0548 11.0637 97.8956 10.7453 97.8426 10.4004C97.763 9.97589 97.5773 9.63098 97.4446 9.233C97.0997 8.17172 96.7282 7.11044 96.5956 5.9961C96.569 5.75731 96.4895 5.54506 96.3568 5.3328C96.1976 5.06748 96.1445 4.77563 96.1445 4.48378C96.1445 4.37765 96.1445 4.27153 96.2241 4.19193C96.3568 4.03274 97.0997 3.87355 97.3119 3.97968C97.4181 4.03274 97.4977 4.0858 97.6038 4.11234C98.0018 4.13887 98.214 4.35112 98.3997 4.66951C98.4793 4.80217 98.5855 4.90829 98.6651 5.01442C98.9834 5.492 99.1957 5.94304 99.1692 6.5798C99.1426 7.11044 98.9304 7.66761 99.1161 8.19825C99.1692 8.33091 99.063 8.51664 99.063 8.67583C99.063 9.12687 99.1957 9.52485 99.3549 9.92283C99.4345 10.1616 99.5937 10.2147 99.859 10.1616C100.098 10.1086 100.337 10.082 100.549 10.0555C101.318 9.94936 101.928 9.57791 102.459 8.99421C102.698 8.72889 103.043 8.62276 103.388 8.4901C103.918 8.30438 104.422 8.35744 104.927 8.59623C105.245 8.75542 105.431 9.04727 105.404 9.39219C105.404 9.76364 105.192 10.0555 104.874 10.2677C104.714 10.3739 104.608 10.3473 104.449 10.3473Z" fill="white"/>
<path d="M64.2307 7.77353C63.5939 7.77353 62.9837 7.87966 62.3469 7.95925C61.9489 8.01232 61.5775 8.01232 61.206 7.93272C60.9672 7.90619 60.8346 7.80006 60.7019 7.58781C60.5162 7.26942 60.3305 6.97757 60.1448 6.68572C59.8794 6.28774 59.9856 5.86323 60.0121 5.43872C60.0121 5.30606 60.1448 5.22647 60.2509 5.19993C60.4101 5.14687 60.5958 5.09381 60.7815 5.1734C61.3918 5.38566 62.0551 5.43872 62.6653 5.65098C63.0898 5.78364 63.5408 5.7571 63.9919 5.67751C64.1511 5.65098 64.3103 5.59791 64.4695 5.70404C64.5491 5.7571 64.6552 5.7571 64.7613 5.7571C65.3185 5.78364 65.6369 6.12855 65.6634 6.68572C65.6634 6.79185 65.6899 6.92451 65.6899 7.03064C65.6899 7.53474 65.345 7.82659 64.8409 7.77353C64.6552 7.77353 64.4695 7.72047 64.2307 7.77353Z" fill="white"/>
<path d="M140.377 10.2684C140.722 10.3215 141.226 10.348 141.731 10.4542C142.076 10.5338 142.367 10.7725 142.659 10.9583C143.031 11.1971 143.323 11.4889 143.641 11.8073C143.8 11.9665 143.88 12.1787 143.88 12.4175C143.827 13.3727 143.243 13.7441 142.367 13.6911C142.261 13.6911 142.155 13.638 142.076 13.638C141.545 13.6645 141.226 13.3461 140.961 12.9482C140.855 12.789 140.749 12.6563 140.563 12.6032C140.351 12.5502 140.245 12.4175 140.218 12.2053C140.192 11.9134 140.006 11.7012 139.82 11.4889C139.635 11.2767 139.502 11.0379 139.608 10.7195C139.688 10.295 139.767 10.2154 140.377 10.2684Z" fill="white"/>
<path d="M148.919 16.8181C148.972 17.163 148.787 17.4018 148.574 17.6671C148.521 17.7467 148.442 17.7998 148.362 17.7998C148.017 17.7732 147.699 17.9059 147.354 17.9855C146.691 18.1447 146.001 17.3222 146.16 16.6589C146.186 16.5793 146.239 16.4732 146.213 16.3936C146.133 15.9425 146.399 15.5976 146.611 15.2527C146.823 14.9343 147.115 14.8282 147.486 14.9343C148.468 15.2527 148.813 15.8629 148.919 16.8181Z" fill="white"/>
<path d="M175.109 15.548C174.711 15.6011 174.419 15.5746 174.153 15.5215C173.676 15.4419 173.464 14.9378 173.729 14.5398C174.074 14.0092 174.419 13.452 174.764 12.9214C175.002 12.5765 175.268 12.2315 175.586 11.9397C175.904 11.6478 176.09 11.3029 176.329 10.958C176.7 10.3743 176.966 9.73755 177.284 9.12731C177.311 9.07425 177.337 9.04772 177.364 8.99466C177.549 8.67627 177.735 8.64974 177.974 8.96812C178.08 9.10078 178.186 9.23344 178.372 9.10078C178.425 9.04772 178.478 9.07425 178.531 9.12731C178.956 9.4457 179.115 9.92327 178.982 10.3213C178.956 10.4274 178.903 10.5335 178.903 10.6396C178.876 11.5417 178.664 12.4438 178.425 13.3194C178.398 13.4785 178.398 13.6112 178.425 13.7704C178.452 13.9031 178.531 13.9561 178.637 13.8765C178.823 13.7439 179.009 13.7969 179.194 13.9031C179.194 13.9031 179.221 13.9031 179.221 13.9296C179.805 14.2214 179.831 14.301 179.513 14.8582C179.407 15.0439 179.194 15.1235 178.982 15.0174C178.903 14.9643 178.823 14.9643 178.743 14.9909C178.372 15.0705 178.054 15.2827 177.815 15.548C177.576 15.8399 177.417 16.1848 177.47 16.5828C177.496 16.742 177.523 16.9012 177.523 17.0869C177.549 17.4053 177.311 17.6441 176.966 17.6971C176.621 17.7502 176.329 17.591 176.223 17.2991C176.09 16.9012 176.064 16.5032 176.249 16.1052C176.276 16.0521 176.302 15.9991 176.302 15.946C176.329 15.8134 176.276 15.6807 176.143 15.7072C175.851 15.6807 175.427 15.4684 175.109 15.548ZM177.629 11.9662C177.629 11.8336 177.629 11.6744 177.629 11.5417C177.629 11.4091 177.523 11.356 177.417 11.4356C177.364 11.4887 177.311 11.5417 177.258 11.5683C176.807 11.9397 176.462 12.3907 176.09 12.8418C175.772 13.2132 175.56 13.6643 175.321 14.1153C175.268 14.2214 175.268 14.3541 175.347 14.4337C175.427 14.5398 175.507 14.5929 175.639 14.5398C175.772 14.4868 175.851 14.5398 175.984 14.5664C176.302 14.6194 176.647 14.6194 176.86 14.3541C177.151 14.0092 177.39 13.6112 177.47 13.1602C177.549 12.7887 177.603 12.3907 177.629 11.9662Z" fill="white"/>
<path d="M169.719 17.193C169.533 17.193 169.347 17.193 169.162 17.193C168.817 17.1665 168.631 16.9542 168.604 16.5297C168.578 16.2378 168.737 16.0256 169.055 15.946C169.135 15.9195 169.188 15.946 169.268 15.946C170.09 16.0786 170.833 15.9195 171.47 15.3358C171.576 15.2562 171.656 15.15 171.762 15.0704C172.133 14.8316 172.239 14.4602 172.292 14.0357C172.319 13.903 172.292 13.7438 172.319 13.6112C172.345 13.3459 172.213 13.1601 172 13.0805C171.576 12.8948 171.178 12.8683 170.753 13.1071C170.435 13.2928 170.117 13.5316 169.745 13.6112C169.506 13.6642 169.321 13.6112 169.188 13.4255C168.976 13.1867 168.817 12.9213 168.896 12.5499C168.923 12.3907 168.87 12.2315 168.923 12.0723C168.976 11.8866 169.055 11.7009 169.188 11.5417C169.4 11.2498 169.613 10.958 169.745 10.6131C169.825 10.4008 169.904 10.1886 169.878 9.9763C169.825 9.36607 170.276 9.02115 170.86 9.18035C171.072 9.23341 171.258 9.25994 171.47 9.28647C171.841 9.31301 172.186 9.25994 172.558 9.15381C172.796 9.07422 173.062 9.10075 173.301 9.07422C173.38 9.07422 173.486 9.07422 173.539 9.15381C173.672 9.33954 173.858 9.4722 174.043 9.60486C174.176 9.71098 174.282 9.87018 174.229 10.0824C174.15 10.2682 173.99 10.3478 173.805 10.3743C173.645 10.4008 173.486 10.4008 173.354 10.3212C172.77 10.0824 172.213 10.2151 171.682 10.4804C171.258 10.6927 170.939 11.0906 170.647 11.4886C170.515 11.6743 170.621 11.8335 170.86 11.8601C170.913 11.8601 170.966 11.8601 171.045 11.8335C171.788 11.7539 172.398 12.0193 172.956 12.4703C172.982 12.4968 173.035 12.5234 173.062 12.5764C173.513 13.1071 173.592 14.1949 173.194 14.8051C173.062 15.0174 172.982 15.2296 172.982 15.4684C173.009 15.7337 172.903 15.9195 172.717 16.1052C172.558 16.2644 172.372 16.397 172.186 16.5032C172.107 16.5562 172.027 16.5828 171.947 16.5828C171.709 16.5297 171.523 16.6623 171.364 16.8215C171.072 17.1134 170.7 17.193 170.302 17.246C170.143 17.2726 169.984 17.246 169.798 17.246C169.719 17.1665 169.719 17.1665 169.719 17.193Z" fill="white"/>
<path d="M188.691 9.36719C189.062 9.39372 189.354 9.57944 189.566 9.84476C189.752 10.0835 189.885 10.3754 189.885 10.6938C189.885 10.7999 189.938 10.8795 189.938 10.9591C189.991 11.1979 190.044 11.4367 189.938 11.6755C189.858 11.8081 189.911 11.9673 189.911 12.1265C189.911 12.2857 189.885 12.4449 189.832 12.6041C189.778 12.7367 189.725 12.8694 189.54 12.8429C189.407 12.8163 189.354 12.9225 189.301 13.0286C189.195 13.2939 189.009 13.4796 188.797 13.6654C188.691 13.745 188.638 13.8511 188.638 13.9572C188.638 14.2491 188.452 14.4083 188.24 14.4613C187.895 14.5674 187.736 14.8858 187.497 15.0981C187.444 15.1511 187.417 15.2307 187.47 15.2838C187.523 15.3369 187.603 15.3634 187.656 15.3369C187.974 15.1777 188.319 15.2573 188.638 15.1777C189.009 15.0716 189.301 15.3103 189.593 15.443C189.725 15.5226 189.646 15.6287 189.566 15.7348C189.248 16.1063 188.797 16.2655 188.346 16.3451C188.001 16.4247 187.682 16.4777 187.338 16.4247C187.019 16.3716 186.648 16.4777 186.356 16.6104C185.958 16.7696 185.586 16.8492 185.162 16.7431C185.029 16.69 184.923 16.6635 184.897 16.5043C184.87 16.4247 184.844 16.3716 184.79 16.3186C184.684 16.1063 184.684 16.0532 184.87 15.9471C185.029 15.841 185.109 15.6818 185.242 15.5757C185.454 15.3899 185.666 15.1777 185.958 15.045C186.356 14.8593 186.701 14.5409 186.886 14.196C187.125 13.6919 187.444 13.2408 187.603 12.7102C187.682 12.3918 187.948 12.2061 188.08 11.9408C188.107 11.8612 188.213 11.8347 188.293 11.8347C188.611 11.7816 188.638 11.7551 188.638 11.5163C188.664 11.2244 188.585 11.0652 188.346 10.9591C188.266 10.9326 188.16 10.906 188.08 10.9326C187.815 11.0652 187.497 11.1183 187.284 11.3836C187.125 11.5693 186.966 11.7285 186.754 11.8347C186.435 12.0204 186.037 11.8612 185.958 11.5163C185.852 11.1448 185.852 10.7468 185.984 10.3754C186.064 10.1366 186.25 9.95089 186.515 9.92436C186.78 9.92436 187.019 9.7917 187.258 9.7121C187.656 9.60597 188.027 9.39372 188.478 9.36719C188.505 9.39372 188.585 9.36719 188.691 9.36719Z" fill="white"/>
<path d="M164.915 10.0261C164.915 10.371 164.915 10.6628 164.809 10.9282C164.73 11.1139 164.783 11.3261 164.836 11.5119C164.915 11.8303 165.021 12.1486 165.021 12.4935C165.021 12.6793 165.101 12.7323 165.313 12.7058C165.34 12.7058 165.393 12.7058 165.419 12.6793C165.738 12.467 165.977 12.5466 166.268 12.7854C166.507 12.9711 166.613 13.2364 166.72 13.4752C166.746 13.5018 166.746 13.5548 166.746 13.6079C166.852 13.9528 166.719 14.112 166.375 14.112C166.136 14.112 165.95 14.0059 165.764 13.8467C165.632 13.7405 165.526 13.6344 165.34 13.5814C165.101 13.5283 164.942 13.6079 164.915 13.8467C164.889 14.1916 164.783 14.51 164.862 14.8549C164.915 15.1202 164.862 15.359 164.836 15.6243C164.809 15.9958 164.809 16.3672 164.783 16.7652C164.756 17.057 164.756 17.0305 164.464 17.1366C164.093 17.2693 163.801 17.2162 163.536 16.9244C163.509 16.8978 163.456 16.8448 163.456 16.8183C163.403 16.4733 163.217 16.1284 163.376 15.757C163.483 15.5447 163.483 15.3059 163.483 15.0671C163.483 14.5896 163.562 14.1385 163.774 13.714C163.854 13.5283 163.881 13.3691 163.801 13.1834C163.748 13.0507 163.748 12.9181 163.721 12.7589C163.695 12.1752 163.668 11.5915 163.615 11.0078C163.562 10.3445 163.456 9.7077 163.376 9.0444C163.35 8.93827 163.297 8.85867 163.27 8.75255C163.217 8.59336 163.164 8.43416 163.217 8.27497C163.35 7.77087 163.721 7.63821 164.119 7.93006C164.544 8.24844 164.889 8.61989 164.862 9.23012C164.862 9.49544 164.968 9.78729 164.915 10.0261Z" fill="white"/>
<path d="M161.651 11.1948C161.651 11.4867 161.598 11.752 161.306 11.9112C161.147 12.0173 161.014 12.1235 160.855 12.2561C160.696 12.3888 160.669 12.4684 160.802 12.6276C160.855 12.7072 160.934 12.7867 161.014 12.8398C161.173 12.9459 161.332 13.0521 161.332 13.2643C161.332 13.3705 161.438 13.397 161.518 13.4766C161.783 13.7684 162.075 14.0072 162.287 14.3521C162.447 14.5909 162.42 14.6705 162.261 14.8828C162.022 15.1746 161.651 15.2542 161.385 14.9889C160.934 14.5644 160.377 14.4317 159.847 14.1929C159.581 14.0868 159.449 14.1133 159.316 14.3787C159.183 14.644 159.024 14.9093 158.812 15.1481C158.52 15.5195 158.308 15.5726 157.883 15.3869C157.671 15.2807 157.591 15.0685 157.671 14.8562C157.671 14.8562 157.671 14.8297 157.697 14.8297C158.148 14.1399 158.334 13.2909 158.865 12.6276C159.077 12.3622 159.183 11.9908 159.289 11.6724C159.422 11.2744 159.581 10.9295 159.608 10.4785C159.608 10.2132 159.793 9.94783 159.953 9.70905C160.085 9.49679 160.483 9.52332 160.669 9.73558C160.961 10.054 161.226 10.3723 161.465 10.7173C161.598 10.8765 161.651 11.0091 161.651 11.1948Z" fill="white"/>
<path d="M181.734 16.1306C181.761 15.5734 182.079 15.1224 182.583 15.0162C182.928 14.9366 183.194 15.0958 183.3 15.4408C183.406 15.8387 183.353 16.2367 183.167 16.6082C183.034 16.9 182.451 17.1123 182.185 16.9531C181.947 16.8204 181.787 16.6082 181.761 16.3428C181.734 16.2898 181.734 16.2102 181.734 16.1306Z" fill="white"/>
<path d="M182.936 12.0187C182.829 12.0187 182.75 12.0453 182.67 12.0187C182.378 11.9922 182.219 11.833 182.193 11.5677C182.166 11.382 182.113 11.1697 182.06 10.984C181.954 10.7187 182.087 10.4268 182.352 10.2942C182.485 10.2146 182.617 10.2411 182.723 10.3207C183.095 10.6125 183.413 10.9309 183.546 11.382C183.679 11.8065 183.493 11.9922 183.068 11.9922C182.989 12.0187 182.962 12.0187 182.936 12.0187Z" fill="white"/>
</svg>
