<svg width="91" height="36" viewBox="0 0 91 36" fill="none" xmlns="http://www.w3.org/2000/svg">
<path d="M20.9154 0.753906H18.1211V23.8223H20.9154V0.753906Z" fill="white"/>
<path d="M13.8871 5.53556H10.3306C9.82258 4.94837 9.31451 4.52894 8.55242 4.1934C8.21371 4.02563 7.875 3.94174 7.53629 3.85786V1.67684H4.4879V3.69009C4.06451 3.77397 3.64113 3.94174 3.30242 4.10951C2.54032 4.44505 1.94758 4.94837 1.43951 5.53556C0.931449 6.12276 0.592743 6.87773 0.338711 7.71658C0.0846787 8.55543 0 9.39428 0 10.317C0 11.2398 0.0846787 12.0786 0.338711 12.9175C0.592743 13.7563 0.931449 14.4274 1.43951 15.0985C1.94758 15.6857 2.54032 16.189 3.30242 16.5245C4.06452 16.8601 4.91129 17.0278 5.92742 17.0278C6.94355 17.0278 7.875 16.8601 8.55242 16.5245C9.31451 16.189 9.90725 15.6857 10.4153 15.0985L10.5 15.0146H13.8871V23.5709H16.6814V0.921875H13.8871V5.53556ZM8.21371 13.6724C7.62096 14.4274 6.85887 14.7629 5.92742 14.7629C4.91129 14.7629 4.14919 14.4274 3.64113 13.6724C3.04838 12.9175 2.79435 11.827 2.79435 10.317C2.79435 8.80709 3.04838 7.71658 3.64113 6.96161C4.23387 6.20664 4.99597 5.8711 5.92742 5.8711C6.94355 5.8711 7.70564 6.20664 8.21371 6.96161C8.80645 7.71658 9.06048 8.80709 9.06048 10.317C9.06048 11.827 8.80645 12.9175 8.21371 13.6724ZM13.8871 12.6658H11.5161C11.6855 11.9108 11.7702 11.1559 11.7702 10.4009C11.7702 9.56205 11.6855 8.7232 11.4315 7.88435H13.8024V12.6658H13.8871Z" fill="white"/>
<path d="M34.7188 17.4471H40.1381V19.2087H43.1018V0.753906H40.1381V15.0983H34.7188V17.4471Z" fill="white"/>
<path d="M26.5034 9.39514C27.0115 9.81457 27.6889 10.0662 28.3663 10.3179C29.1284 10.5695 29.8905 10.6534 30.7373 10.6534C31.584 10.6534 32.3461 10.5695 33.1082 10.3179C33.8703 10.0662 34.4631 9.81457 34.9711 9.39514C35.4792 8.97572 35.9026 8.47241 36.1566 7.9691C36.4107 7.3819 36.58 6.7947 36.58 6.03974C36.58 5.36865 36.4107 4.69757 36.1566 4.11038C35.9026 3.52318 35.4792 3.01987 34.9711 2.68433C34.4631 2.2649 33.7857 2.01324 33.1082 1.76159C32.8542 1.6777 32.5155 1.59382 32.2615 1.59382V0H29.2131V1.59382C28.959 1.6777 28.6203 1.6777 28.3663 1.76159C27.6042 2.01324 27.0115 2.2649 26.5034 2.68433C25.9953 3.10375 25.572 3.60706 25.3179 4.11038C25.0639 4.69757 24.8945 5.28477 24.8945 6.03974C24.8945 6.71082 25.0639 7.3819 25.3179 7.9691C25.572 8.47241 25.9953 8.97572 26.5034 9.39514ZM28.5357 4.27815C29.0437 3.85872 29.8058 3.60706 30.7373 3.60706C31.6687 3.60706 32.4308 3.85872 32.9389 4.27815C33.447 4.69757 33.701 5.28477 33.701 6.03974C33.701 6.7947 33.447 7.3819 32.9389 7.80132C32.4308 8.22075 31.6687 8.47241 30.7373 8.47241C29.8058 8.47241 29.0437 8.22075 28.5357 7.80132C28.0276 7.3819 27.7736 6.7947 27.7736 6.03974C27.7736 5.28477 28.0276 4.69757 28.5357 4.27815Z" fill="white"/>
<path d="M28.706 17.4497H31.6697V14.0104C33.0246 13.9265 34.2947 13.9265 35.3955 13.8426C36.581 13.7587 37.6818 13.6749 38.7826 13.5071L38.6133 11.2422C36.327 11.41 33.8713 11.5777 31.331 11.6616C28.7907 11.7455 25.9117 11.7455 22.8633 11.7455V14.0943C23.7947 14.0943 24.7262 14.0943 25.7423 14.0943C26.7584 14.0943 27.6899 14.0943 28.6213 14.0104V17.4497H28.706Z" fill="white"/>
<path d="M29.2984 21.3071V18.3711H26.25V22.062C26.25 22.7331 26.4194 23.2364 26.8427 23.572C27.1814 23.9914 27.6895 24.1592 28.3669 24.1592H43.6935V21.8943H29.8911C29.4677 21.8943 29.2984 21.7265 29.2984 21.3071Z" fill="white"/>
<path d="M62.49 5.45161C62.49 6.0388 62.49 6.79377 62.49 7.54874C62.49 8.3037 62.4054 9.14256 62.4054 10.0653C62.4054 10.9041 62.3207 11.8269 62.236 12.7496C62.1513 13.6724 62.1513 14.5112 62.0667 15.3501L65.0304 15.6017C65.115 14.7629 65.1997 13.924 65.2844 13.0013C65.3691 12.0785 65.4538 11.1558 65.4538 10.2331C65.5384 9.31033 65.5384 8.47147 65.6231 7.63262C65.6231 6.79377 65.7078 6.0388 65.7078 5.36772V2.51562H48.4336V4.86441H62.5747V5.45161H62.49Z" fill="white"/>
<path d="M59.4418 10.8203H56.4781V18.7055H53.5144V10.8203H50.466V18.7055H45.5547V21.0543H68.3329V18.7055H59.4418V10.8203Z" fill="white"/>
<path d="M87.7263 18.0343C85.3553 18.3698 82.9844 18.5376 80.6981 18.6215C80.5287 18.6215 80.3594 18.6215 80.1053 18.6215V16.2727C80.5287 16.1888 80.8674 16.1049 81.2062 16.021C81.9683 15.7694 82.6457 15.4338 83.1537 14.9305C83.6618 14.5111 84.0852 13.9239 84.3392 13.3367C84.5933 12.7495 84.7626 12.0784 84.7626 11.4073C84.7626 10.7362 84.5933 10.149 84.3392 9.47797C84.0852 8.89077 83.6618 8.38746 83.1537 7.88415C82.6457 7.46472 81.9683 7.0453 81.2062 6.79364C80.4441 6.54199 79.5973 6.37422 78.5812 6.37422C77.565 6.37422 76.7183 6.54199 75.9562 6.79364C75.1941 7.0453 74.5166 7.38084 74.0086 7.88415C73.5005 8.30358 73.0771 8.89077 72.8231 9.47797C72.5691 10.0652 72.3997 10.7362 72.3997 11.4073C72.3997 12.0784 72.5691 12.6656 72.8231 13.3367C73.0771 13.9239 73.5005 14.4272 74.0086 14.9305C74.5166 15.3499 75.1941 15.7694 75.9562 16.021C76.2949 16.1049 76.7183 16.2727 77.1416 16.2727V18.7053C75.8715 18.7053 74.5166 18.7892 73.1618 18.7892H69.8594V21.2219H73.2465C74.5166 21.2219 75.8715 21.2219 77.2263 21.2219C78.5812 21.2219 79.936 21.138 81.2062 21.138C82.4763 21.0541 83.7465 20.9702 85.0166 20.8864C86.0328 20.8025 86.9642 20.6347 87.8957 20.5508V23.9901H90.8594V0.753906H87.7263V18.0343ZM75.4481 11.4912C75.4481 10.7362 75.7021 10.0652 76.2949 9.56185C76.8029 9.05854 77.6497 8.80689 78.6658 8.80689C79.682 8.80689 80.4441 9.05854 81.0368 9.56185C81.5449 10.0652 81.8836 10.6524 81.8836 11.4912C81.8836 12.2462 81.6295 12.9173 81.0368 13.4206C80.5287 13.9239 79.682 14.1755 78.6658 14.1755C77.6497 14.1755 76.8876 13.9239 76.2949 13.4206C75.7021 12.9173 75.4481 12.2462 75.4481 11.4912Z" fill="white"/>
<path d="M85.6934 3.35395H80.1047V0.417969H77.0563V3.35395H71.1289V5.61885H85.6934V3.35395Z" fill="white"/>
<path d="M5.24773 33.2176C4.9937 33.3015 4.48564 33.3015 3.46951 33.3015H1.94531V28.1845H4.73967V28.9394H2.87677V32.5465H3.8929C4.40096 32.5465 5.07838 32.4626 5.33241 32.4626V33.2176H5.24773ZM8.3808 35.063H7.53403V31.0366H6.51789V34.7275H5.67112V27.4295H6.51789V30.1977H7.53403V27.2617H8.3808V35.063Z" fill="#C9CACA"/>
<path d="M17.3566 29.1929H12.4453V28.5219H17.3566V29.1929ZM14.901 32.2967C13.6308 32.2967 12.784 31.6256 12.784 30.9545C12.784 30.1996 13.6308 29.6124 14.901 29.6124C16.2558 29.6124 17.0179 30.1996 17.0179 30.9545C17.0179 31.6256 16.2558 32.2967 14.901 32.2967ZM19.2195 34.8971H13.5461V32.7161H14.4776V34.1422H19.2195V34.8971ZM16.2558 27.9347H13.7155V27.2636H16.2558V27.9347ZM16.0864 30.9545C16.0864 30.5351 15.6631 30.2834 14.901 30.2834C14.1389 30.2834 13.7155 30.5351 13.7155 30.9545C13.7155 31.3739 14.1389 31.6256 14.901 31.6256C15.7477 31.6256 16.0864 31.2901 16.0864 30.9545ZM20.151 30.2834H19.0502V32.9678H18.2034V27.1797H19.0502V29.5285H20.151V30.2834Z" fill="#C9CACA"/>
<path d="M28.279 29.1911H29.3798V27.4295H30.2266V34.7275H29.3798V32.2948H28.3637C28.1096 33.2176 27.5169 33.8048 26.7548 33.8048C25.7387 33.8048 24.9766 32.7143 24.9766 30.8688C24.9766 29.1072 25.7387 27.9328 26.7548 27.9328C27.4322 27.9328 28.025 28.4361 28.279 29.1911ZM27.6862 30.8688C27.6862 29.6944 27.3475 28.7717 26.7548 28.7717C26.162 28.7717 25.8233 29.6944 25.8233 30.8688C25.8233 32.0432 26.162 32.9659 26.7548 32.9659C27.3475 32.9659 27.6862 32.0432 27.6862 30.8688ZM28.533 31.3721H29.3798V30.0299H28.4483C28.4483 30.2816 28.533 30.5332 28.533 30.8688V31.3721ZM31.8354 35.063H30.9887V27.2617H31.8354V35.063Z" fill="#C9CACA"/>
<path d="M43.608 32.1271H40.2209V35.063H39.2894V32.1271H35.9023V31.3721H43.608V32.1271ZM39.7128 28.7717C39.2894 29.6944 38.0193 30.3655 36.8338 30.6171L36.3257 30.0299C38.7814 29.5266 39.2894 28.1845 39.2894 27.6811V27.2617H40.2209V27.6811C40.2209 28.2683 40.6443 29.5266 43.1846 30.0299L42.6765 30.6171C41.6604 30.5332 40.1362 29.6944 39.7128 28.7717Z" fill="#C9CACA"/>
<path d="M55.2916 34.0574H47.5859V33.3024H49.3642V30.6181H50.2109V33.3024H51.3964V30.6181H52.2432V33.3024H55.2069V34.0574H55.2916ZM54.4448 28.1016C54.4448 28.9404 54.1908 30.9537 53.9368 32.2958H53.09C53.09 32.2119 53.5134 30.1148 53.5134 28.8565H48.348V28.1016H54.4448Z" fill="#C9CACA"/>
<path d="M64.2669 30.7849L63.7588 31.456C63.1661 31.2882 62.3193 30.701 61.7266 29.946C61.4725 30.6171 60.3717 31.3721 59.6943 31.6237L59.1016 31.0366C60.7951 30.3655 61.3032 29.5266 61.3032 28.4361H59.6943V27.6811H63.9282V28.4361H62.3193C62.15 29.5266 62.7427 30.2816 64.2669 30.7849ZM66.1298 33.637C66.1298 34.4758 65.1137 35.1469 63.1661 35.1469C61.2185 35.1469 60.2024 34.4758 60.2024 33.637C60.2024 32.7981 61.2185 32.1271 63.1661 32.1271C65.1137 32.1271 66.1298 32.7981 66.1298 33.637ZM65.1983 33.637C65.1983 33.1337 64.4362 32.7981 63.2508 32.7981C62.0653 32.7981 61.3032 33.1337 61.3032 33.637C61.3032 34.1403 62.0653 34.4758 63.2508 34.4758C64.3516 34.4758 65.1983 34.1403 65.1983 33.637ZM67.0612 29.7783H65.9604V31.9593H65.1137V27.2617H65.9604V29.0233H67.0612V29.7783Z" fill="#C9CACA"/>
<path d="M78.7486 34.143H71.043V33.388H74.4301V32.2136H72.0591V29.697H76.7164V28.6065H72.0591V27.8516H77.5631V30.452H72.9059V31.5425H77.7325V32.2975H75.2768V33.4719H78.6639V34.143H78.7486Z" fill="#C9CACA"/>
<path d="M89.2476 33.7209C88.5702 33.8048 87.4694 33.8886 86.0299 33.8886H83.5742V33.1337H85.9452V32.2948C85.0137 32.2109 84.3363 31.7076 84.3363 31.0366C84.3363 30.3655 85.1831 29.7783 86.3686 29.7783C87.554 29.7783 88.4008 30.3655 88.4008 31.0366C88.4008 31.6237 87.8081 32.1271 86.8766 32.2109V33.0498C87.7234 33.0498 88.5702 32.9659 89.1629 32.882V33.7209H89.2476ZM88.7395 29.4427H83.9976V28.6878H88.7395V29.4427ZM87.6387 28.1845H85.0984V27.4295H87.6387V28.1845ZM87.5541 31.1204C87.5541 30.7849 87.046 30.4494 86.3686 30.4494C85.7758 30.4494 85.2678 30.701 85.2678 31.0366C85.2678 31.3721 85.7758 31.6237 86.3686 31.6237C87.1307 31.7076 87.5541 31.456 87.5541 31.1204ZM90.5178 35.063H89.671V27.2617H90.5178V35.063Z" fill="#C9CACA"/>
</svg>
