<svg width="38" height="27" viewBox="0 0 38 27" fill="none" xmlns="http://www.w3.org/2000/svg">
<path d="M0 26.9074C11.0878 24.1193 26.066 24.1193 37.1537 26.9074C22.6294 21.5256 14.5243 21.5256 0 26.9074Z" fill="#8C9091"/>
<path d="M13.0332 22.3706C13.6816 22.3057 14.2652 22.176 14.9136 22.1112C14.7191 14.6545 9.9857 10.9586 9.59665 10.6992L4.86328 16.3404C4.86328 16.3404 7.45691 17.5075 9.92086 18.8692C12.2551 20.166 12.9684 21.787 13.0332 22.3706Z" fill="#6FBA2C"/>
<path d="M15.8863 22.0458C16.5347 21.981 17.1831 21.981 17.8315 21.981V11.4768H14.8488H14.4598V9.98547H14.8488H17.8315V6.22471H18.6096V0L10.2451 9.92063C11.0232 10.5042 15.6917 14.3298 15.8863 22.0458Z" fill="#6FBA2C"/>
<path d="M22.2402 22.1112C22.8886 22.176 23.4722 22.2409 24.1206 22.3706C24.1855 21.787 24.8987 20.166 27.2978 18.8692C29.7618 17.5075 32.3554 16.3404 32.3554 16.3404L27.622 10.6992C27.1681 11.0234 22.4348 14.6545 22.2402 22.1112Z" fill="#0081CC"/>
<path d="M19.3226 6.22471V9.92063H22.3053H22.6943V11.412H22.3053H19.3226V21.9162C19.971 21.9162 20.6194 21.981 21.2678 21.981C21.5272 14.265 26.1957 10.4394 26.909 9.85579L18.6094 0V6.22471H19.3226Z" fill="#0081CC"/>
</svg>
